<svg id="Capa_1" data-name="Capa 1" xmlns="http://www.w3.org/2000/svg" viewBox="0 0 268.57 291.87"><defs><style>.cls-1{fill:#fff;}</style></defs><title>NAMING , LOGO , SLOGAN</title><path class="cls-1" d="M119.85,291.17c-28.86,0-57.72-.17-86.58.11a16.81,16.81,0,0,1-17.16-17.21q.08-117.9,0-235.8c0-9.74,7.13-16.78,17.09-16.82,16.12-.06,32.25,0,48.37,0,3.19,0,3.19,0,3.24-3.16.06-3.49.68-4.12,4.09-4.13,4.35,0,8.7,0,13.06,0a2.07,2.07,0,0,0,2.37-1.73C106.72,4.94,112.49.61,119.87.6s13.07,4.14,15.45,11.52c.49,1.5,1.17,2.07,2.73,2,4.35-.07,8.7,0,13.06,0,3,0,3.82.61,3.85,3.63,0,4.35.74,3.65,4.1,3.66,15.24,0,30.49.3,45.71-.1,9.67-.25,19.14,5.27,19.06,19-.14,23.86,0,47.72,0,71.58q0,25.63,0,51.28c0,3.31,0,3.31,3.36,3.32,5.56,0,11.13,0,16.69,0,5.18,0,8.56,3.19,8.58,8.41q.12,30.35,0,60.7c0,5.15-3.45,8.36-8.9,8.46s-11,0-16.44,0c-3.25,0-3.28,0-3.28,3.19,0,8.71,0,17.42,0,26.12-.05,6.52-2.2,12-8.1,15.49a15.8,15.8,0,0,1-8.28,2.24Q163.63,291.15,119.85,291.17ZM102.05,172.6c9.13-5.36,18.86-5.83,28.62-5.9a5.55,5.55,0,0,0,4.42-1.73q14.57-14.68,29.24-29.25c3.91-3.89,8.55-4,12.71-.41a36.8,36.8,0,0,1,3.43,3.41c4,4.51,3.82,9.24-.41,13.51s-8.22,8.19-12.31,12.32c-.51.52-1.39.87-1.23,2.14a34.25,34.25,0,0,1,12.83,1.54c7.42,2.16,14.94,4,22.38,6.07,2.16.62,2.64,0,2.64-2.08q-.06-63,0-126c0-2.28-.79-2.86-2.94-2.85q-21.65.11-43.29,0c-2.23,0-3.16.58-3.18,3,0,3.36-.8,4-4,4q-31.08,0-62.16,0c-3,0-4-.81-3.88-3.85.07-2.27-.6-3.08-3-3.06q-21.9.13-43.78,0c-2.22,0-2.88.67-2.88,2.9q.09,110.28,0,220.57c0,2.07.53,2.79,2.7,2.79q81.87-.09,163.74,0c1.94,0,2.71-.52,2.68-2.57q-.13-11.85,0-23.71c0-2-.64-2.29-2.41-1.77a42.24,42.24,0,0,1-17.74,1c-11.72-1.54-22.21-5.94-30.41-14.86a2.4,2.4,0,0,0-2.61-.79c-1.15.34-.93,1.38-.95,2.23-.09,3.7.19,7.42-.35,11.1a11.91,11.91,0,0,1-7.8,10c-4.41,1.72-8.44.75-11.82-2.48-1.17-1.12-1.81-1.28-3.07-.06-3.43,3.32-7.53,4.31-12,2.48a11.82,11.82,0,0,1-7.69-10.27c-.4-3.7-.22-7.41-.29-11.11,0-.77.26-1.8-.67-2.14s-1.41.59-2,1.13q-7.55,7.52-15,15.06a9.1,9.1,0,0,1-3.15,2.18c-6.27,2.53-12.54,5.1-18.8,7.65-1.29.52-2.61,1.1-3.81-.14s-.77-2.67-.2-4.06c2.29-5.59,4.64-11.16,6.82-16.8a16.2,16.2,0,0,1,4.12-6.13c2.72-2.55,5.31-5.24,8.27-8.18-6,.46-10.21-.95-14.34-4.57-2.6-2.28-2.66-3.51-.22-6q9.39-9.42,18.8-18.83c.58-.59,1.4-1.05,1.62-2.22H59.53c-3.71,0-4.24-.5-4.24-4.14q0-19.23,0-38.45c0-3.6.58-4.15,4.27-4.15q19,0,38,0c4.09,0,4.51.43,4.51,4.62C102.05,153.09,102.05,162.59,102.05,172.6ZM217.19,234c-2.07,1.37-3.86,2.74-5.83,3.78a3.33,3.33,0,0,0-2,3.45c.06,9.51,0,19,0,28.54,0,4.65-.27,4.92-4.92,4.92H33.3a2.9,2.9,0,0,1-3.08-3c-.07-.88,0-1.77,0-2.66q0-112.45,0-224.91c0-.8,0-1.61,0-2.41.13-2.5.93-3.32,3.41-3.33,4.52,0,9,0,13.55,0,11.69,0,23.38,0,35.06,0,2,0,2.78-.57,2.65-2.6a40,40,0,0,1,0-6.29c.21-2.4-.78-3-3-2.95-15.72.09-31.44.05-47.16.05-9,0-13.41,4.35-13.41,13.29V272.51c0,.89-.05,1.78,0,2.66.39,4.72,2.52,8.25,7,10.15,2.07.88,4.26.78,6.43.78H179.1c9.43,0,18.86.06,28.29,0,6.43-.06,11.07-4.58,11-11C218.09,261.47,219.49,247.85,217.19,234Zm-81.91-37h18.6c1.59,0,2.68.62,2.78,2.32s-1,2.47-2.49,2.72a14.83,14.83,0,0,1-2.41.08H126.62c-5.8,0-11.61-.1-17.41.05a10.2,10.2,0,0,0-10,9.35c-.3,4.47,3.64,8.79,8.77,9.7a31.94,31.94,0,0,0,5.52.44c13.14,0,26.27,0,39.41,0a4.83,4.83,0,0,1,4.49,2.18,21.76,21.76,0,0,0,6,5.57A47.31,47.31,0,0,0,195,237.56a32.55,32.55,0,0,0,20.67-9.45,5.19,5.19,0,0,0,1.69-4q-.08-18.85,0-37.72c0-1.83-.54-2.68-2.4-3.16-8.19-2.1-16.31-4.42-24.48-6.58-9.16-2.43-18.17-5.66-27.93-4.6a6,6,0,0,0-4,1.72c-4.28,4.37-8.65,8.67-13,13Zm74.16-89.08v62.64c0,6.13,0,6.13,5.88,7.46.31.07.63.11,1,.17.73.12,1.13-.23,1-.93-.51-3.83,1.19-7.39,1.16-11.22-.15-20.24-.07-40.47-.07-60.71q0-33.37,0-66.75c0-7-4.29-11.88-10.94-11.94-16.77-.16-33.54,0-50.31-.08-1.62,0-2.12.74-2.09,2.21,0,2.1,0,4.2,0,6.29,0,3.26,0,3.27,3.19,3.27h46.92c3.94,0,4.28.33,4.28,4.28ZM119.54,45.2c9,0,18.06-.08,27.08.06,2.5,0,3.17-.8,3.12-3.2-.14-6.6-.13-13.22,0-19.83.05-2.27-.59-3.17-3-3.07-4,.17-8.06.09-12.09,0-2.71-.06-3.6-.91-3.88-3.59a11.45,11.45,0,0,0-1.69-5A11,11,0,0,0,117.3,5.85a10.83,10.83,0,0,0-8.1,8.93c-.69,4-1.18,4.4-5.17,4.42s-7.74.08-11.6,0c-1.9-.05-2.53.62-2.51,2.52.09,6.93.11,13.87,0,20.8,0,2.15.7,2.76,2.79,2.74C101.64,45.15,110.59,45.2,119.54,45.2Zm103,160.15c0,9.92,0,19.83,0,29.75,0,2.58,1,3.86,3.53,3.91,5.88.12,11.77.11,17.65,0,2.48,0,3.63-1.38,3.64-3.88q0-29.87,0-59.73c0-2.83-1-3.72-3.83-3.74-5.56,0-11.12,0-16.68,0-3.64,0-4.3.7-4.3,4.45Q222.47,190.73,222.49,205.35ZM78.91,144.11c-5.39,0-10.79,0-16.18,0-1.58,0-2.34.4-2.33,2.16q.08,16.06,0,32.12c0,1.68.59,2.25,2.26,2.25,10-.05,20,0,29.94,0a4,4,0,0,0,4.3-4.38c0-9.9,0-19.8,0-29.7,0-2-.79-2.44-2.59-2.41C89.21,144.16,84.06,144.11,78.91,144.11ZM110.17,197h16.89a2.65,2.65,0,0,0,1.87-1q17.1-17.1,34.2-34.2c1-1,1-1.67,0-2.59a79.11,79.11,0,0,1-5.64-5.65c-1.42-1.63-2.3-1.5-3.8,0q-18.56,18.72-37.26,37.3C114.53,192.71,112.62,194.56,110.17,197Zm17.12-24.72a30.82,30.82,0,0,0-9.55.48c-4.49.8-9.25,1.22-12.72,4.65-10.25,10.14-20.38,20.4-30.63,30.54-1.64,1.63-1,2.34.63,3.13,4.15,2,8.16,1.29,12.08-.6a39.61,39.61,0,0,0,10.51-8q14.15-14,28.2-28.18C126.35,173.68,127.13,173.29,127.29,172.24Zm-26.85,51.22a8.84,8.84,0,0,1-1.08-.75,14,14,0,0,1-4.77-7.63c-.38-1.66-.76-1.69-1.87-.57q-6.87,6.93-13.81,13.79c-1,1-1,1.63,0,2.56q3.22,3.07,6.3,6.31c1,1,1.68.88,2.6,0,3.94-4,7.93-8,11.9-12A2,2,0,0,0,100.44,223.46Zm12.16,10.3h0c0,1.69-.07,3.38,0,5.07.17,3.91,3.08,7,6.59,7A6.89,6.89,0,0,0,126,239c.14-3.37,0-6.76.09-10.14,0-1.57-.68-2.14-2.19-2.11-2.82.05-5.64.14-8.45,0-2.31-.14-3,.83-2.82,3C112.7,231,112.6,232.39,112.6,233.76Zm18.84.13h.05c0,1.77-.09,3.54,0,5.3a6.9,6.9,0,0,0,6.68,6.65,7,7,0,0,0,6.59-6.76c.14-3.46,0-6.92.08-10.38,0-1.47-.66-2-2.06-2-3.05,0-6.11.06-9.17,0-1.72-.05-2.27.75-2.2,2.34S131.44,232.28,131.44,233.89Zm46.71-88.54c-.06-1.79-1.35-3.55-4.32-6-2.14-1.78-4-1.78-6,.14-2.51,2.39-4.9,4.9-7.41,7.29-1,.91-1.11,1.54-.06,2.52,2.18,2,4.27,4.16,6.32,6.32.91,1,1.57,1.11,2.56.09,2.56-2.67,5.21-5.27,7.83-7.89A3.07,3.07,0,0,0,178.15,145.35Zm-108,100.56c3.79-1.51,7-2.8,10.22-4.06,1.06-.43,1.45-.91.45-1.88-1.62-1.56-3.21-3.17-4.77-4.8-.8-.83-1.28-.76-1.71.34C73.09,238.8,71.74,242.07,70.19,245.91Z"/><path class="cls-1" d="M117.24,101.25c2.58,0,5.17-.13,7.73,0,2.14.15,3.17-.62,3.78-2.69,1.51-5.09,3.25-10.12,4.88-15.17.48-1.49.9-3.1,2.83-3.13s2.53,1.66,3,3.22c1.69,5.2,3.44,10.39,5,15.63a2.56,2.56,0,0,0,2.92,2.13c5.56-.09,11.12,0,16.68,0,1.7,0,3.36.18,3.93,2.07.52,1.73-.83,2.63-2,3.49-4.35,3.2-8.65,6.47-13.09,9.54-1.75,1.2-2.22,2.31-1.48,4.38,1.85,5.15,3.42,10.4,5.14,15.59.49,1.48.73,2.89-.71,3.93s-2.59.3-3.75-.54c-4.44-3.22-8.94-6.35-13.28-9.68-1.67-1.27-2.86-1.45-4.61-.09-4.27,3.3-8.7,6.38-13.08,9.54-1.19.86-2.42,1.82-3.94.82s-1.3-2.56-.79-4.11c1.73-5.27,3.34-10.59,5.2-15.83.65-1.82.19-2.75-1.27-3.78-4.54-3.21-9-6.53-13.48-9.82-1.17-.86-2.47-1.74-1.88-3.52s2.12-2,3.73-2C111.6,101.26,114.42,101.25,117.24,101.25Zm19.3-10c-1.49,4.48-2.82,8.26-4,12.08-.66,2.18-1.86,3.15-4.2,3.07-4.16-.13-8.32,0-13.22,0,3.34,2.43,6.1,4.45,8.88,6.45,4.4,3.17,4.41,3.17,2.75,8.24-1,3.23-2.09,6.46-3.35,10.32,2.63-1.9,4.63-3.37,6.66-4.81,7.5-5.29,5.53-5.14,12.67-.16.85.6,1.66,1.28,2.54,1.84,1.16.75,2.13,1.87,4.07,2.41-1.29-4-2.35-7.62-3.61-11.14-.89-2.5-.43-4.24,1.88-5.75,3.32-2.17,6.47-4.62,9.69-7a75.69,75.69,0,0,0-12.17-.39c-2.78.14-4.08-1-4.8-3.57C139.32,99.18,138,95.58,136.54,91.27Z"/><path class="cls-1" d="M52.33,96.14c-.48-11.57,10.5-21.08,21.27-20.66,11.25.45,20.62,9.72,20.53,21.14s-10,20.92-21.75,20.77C61.29,117.25,52.3,107.73,52.33,96.14Zm36.45.06a15.68,15.68,0,0,0-31.35-.07c-.16,7.8,5.5,16,16.31,16A15.29,15.29,0,0,0,88.78,96.2Z"/><path class="cls-1" d="M234.88,234.56a9.09,9.09,0,0,1-9.31-9.32,9.47,9.47,0,0,1,9.24-9.29,9.63,9.63,0,0,1,9.4,9.46A9.27,9.27,0,0,1,234.88,234.56Zm0-13.5a4.22,4.22,0,0,0-4.15,4.14,4.12,4.12,0,0,0,4.26,4.22,4.24,4.24,0,0,0,4.08-4.21A4.37,4.37,0,0,0,234.87,221.06Z"/></svg>