<svg id="Capa_1" data-name="Capa 1" xmlns="http://www.w3.org/2000/svg" viewBox="0 0 268.57 291.87"><defs><style>.cls-1{fill:#fff;}</style></defs><title>DESARROLLO DE BRIEF</title><path class="cls-1" d="M134.15,290.33q-54.63,0-109.26,0c-12.69,0-22.12-7.79-24.56-20.2A21.46,21.46,0,0,1,0,265.88Q0,160.63,0,55.37a23.86,23.86,0,0,1,21-23.45,61.59,61.59,0,0,1,7.18-.4H181.31c4.08,0,4.08,0,4.08-4.08,0-2.4,0-4.81,0-7.21.05-9.91,7.72-17.83,18-18.66C212.58.85,221.54,8,223.17,17.25a46.4,46.4,0,0,1,.46,8c0,6.3,0,6.23,6.42,6.32,5.69.08,11.39-.36,17.07.35a23.9,23.9,0,0,1,21.42,24c.06,21.73,0,43.45,0,65.18q0,72.26,0,144.52c0,11.16-6.3,20-16.74,23.54a27.6,27.6,0,0,1-8.95,1.24ZM260.29,161.2V107c0-17,0-34,0-51,0-8.51-5.49-15.13-13.87-15.91-7-.65-14-.2-21.09-.23-1.73,0-1.67,1.24-1.67,2.43,0,5.43,0,10.86,0,16.29a31.78,31.78,0,0,1-.51,5.84c-2.38,13.49-18.81,20-29.81,11.91-6.35-4.69-8.44-11.11-8-18.74.24-3.91,1.29-5.75,4-5.77s4.1,1.87,4.27,5.66c.06,1.51.07,3,.09,4.54a7.88,7.88,0,0,0,.7,3.1,11,11,0,0,0,12.28,6.37,11.08,11.08,0,0,0,8.65-10.55c.07-6-.09-12.11.07-18.16.06-2.42-.81-3-3.09-3q-63.58.09-127.15,0c-10.13,0-16.93,6.87-16.93,17q0,103.77,0,207.55c0,11.38,6.32,17.73,17.66,17.73,52.17,0,104.35-.13,156.53.12,9.44.05,18.16-6.26,18-18.11C260,229.76,260.29,195.48,260.29,161.2ZM8.28,161q0,52.36,0,104.72c0,8.53,5.11,14.85,13.39,16,4.1.59,8.35.22,12.53.23,1.73,0,1.09-.91.51-1.68-3.67-4.93-4.8-10.55-4.8-16.59q.06-102.59,0-205.15c0-6.25,1.1-12,4.88-17.11,1.22-1.63.25-1.7-1-1.7-2.76,0-5.52.13-8.28,0-9.6-.5-17.41,7.16-17.31,17.09C8.47,91.57,8.27,126.3,8.28,161ZM66.17,39.82c-4.87,0-9.06-.23-13.21,0-8.15.54-14.68,7.37-14.69,15.25q0,105.63,0,211.26a15.39,15.39,0,0,0,12,15.1c5.05,1.2,10.19.35,15.93.54-5.8-6.5-6.29-13.85-6.29-21.45q.08-99.88,0-199.78C59.87,53.3,60.69,46.23,66.17,39.82Zm138.38-8.3c2.84,0,5.68,0,8.52,0,1.53,0,2.31-.51,2.27-2.16-.07-3,.09-6-.06-9A10.83,10.83,0,0,0,204.07,9.84c-6,.15-10.33,4.64-10.45,10.84-.05,2.75.06,5.5,0,8.25-.07,2,.79,2.68,2.7,2.62C199,31.45,201.79,31.52,204.55,31.52Z"/><path class="cls-1" d="M164.63,171.94h67.29c.89,0,1.78,0,2.67,0a3.92,3.92,0,0,1,3.88,3.72c.24,2.14-1,3.55-3,4.13a11.19,11.19,0,0,1-3.16.35q-68.1,0-136.18,0a7.63,7.63,0,0,1-3.41-.48,3.93,3.93,0,0,1-2.37-4.34,3.59,3.59,0,0,1,3.29-3.32,15.87,15.87,0,0,1,2.93-.11Z"/><path class="cls-1" d="M164.11,210.19H95.75c-3.49,0-5.24-1.24-5.44-3.76a3.75,3.75,0,0,1,3.15-4.28,11.73,11.73,0,0,1,2.91-.24q67.95,0,135.91,0a13.08,13.08,0,0,1,2.66.15,4.06,4.06,0,0,1,3.58,4,4.2,4.2,0,0,1-3.91,4,26.18,26.18,0,0,1-2.94.06Z"/><path class="cls-1" d="M164.38,119.93H95.5c-3.53,0-5.12-1.25-5.2-3.94A3.61,3.61,0,0,1,93,112.13a12,12,0,0,1,4-.46H232a10.72,10.72,0,0,1,3.69.45,3.73,3.73,0,0,1,2.78,4.06,3.89,3.89,0,0,1-3.61,3.69,21.6,21.6,0,0,1-2.67,0Z"/><path class="cls-1" d="M164.38,240.14H95.5c-3.53,0-5.12-1.25-5.2-3.94A3.6,3.6,0,0,1,93,232.35a11.7,11.7,0,0,1,4-.47H232a10.72,10.72,0,0,1,3.69.45,3.74,3.74,0,0,1,2.78,4.06,3.89,3.89,0,0,1-3.61,3.69,19.8,19.8,0,0,1-2.67.06Z"/><path class="cls-1" d="M164.54,142h67.32c.89,0,1.78,0,2.67,0a3.91,3.91,0,1,1,.1,7.81c-.53,0-1.06,0-1.6,0H95.47c-3.66,0-5.14-1.13-5.17-3.87a3.53,3.53,0,0,1,3.46-3.94,23.75,23.75,0,0,1,2.67,0Z"/><path class="cls-1" d="M126.53,90q-15.09,0-30.17,0a12.38,12.38,0,0,1-2.66-.1,3.87,3.87,0,0,1-3.39-3.59A3.65,3.65,0,0,1,93.13,82a11.53,11.53,0,0,1,3.16-.35q30.43,0,60.87,0a15.12,15.12,0,0,1,2.13.07c2.51.34,4,2,4,4.19s-1.71,3.78-4.2,4c-.79.07-1.6,0-2.4,0Z"/></svg>