<svg id="Capa_1" data-name="Capa 1" xmlns="http://www.w3.org/2000/svg" viewBox="0 0 268.57 291.87"><defs><style>.cls-1{fill:#fff;}</style></defs><title>IDENTIDAD VISUAL CORPORATIVA</title><path class="cls-1" d="M5.25,77.42A5.12,5.12,0,0,1,.13,72.3V25.6A25.94,25.94,0,0,1,26-.32H71.19a5.12,5.12,0,1,1,0,10.24H26A15.7,15.7,0,0,0,10.36,25.6V72.3A5.11,5.11,0,0,1,5.25,77.42Z"/><path class="cls-1" d="M243.77,292H198.63a5.12,5.12,0,0,1,0-10.24h45.14a15.7,15.7,0,0,0,15.69-15.68v-46.7a5.12,5.12,0,1,1,10.23,0v46.7A26,26,0,0,1,243.77,292Z"/><path class="cls-1" d="M73,292.21H26.27A25.94,25.94,0,0,1,.35,266.3V221.15a5.12,5.12,0,0,1,10.24,0V266.3A15.7,15.7,0,0,0,26.27,282H73a5.12,5.12,0,1,1,0,10.23Z"/><path class="cls-1" d="M264.57,75.86a5.11,5.11,0,0,1-5.11-5.11V25.6A15.7,15.7,0,0,0,243.77,9.92h-46.7a5.12,5.12,0,0,1,0-10.24h46.7A26,26,0,0,1,269.69,25.6V70.75A5.11,5.11,0,0,1,264.57,75.86Z"/><path class="cls-1" d="M136.3,94.11A50.71,50.71,0,1,0,187,144.82,50.77,50.77,0,0,0,136.3,94.11Zm0,91.19a40.48,40.48,0,1,1,40.47-40.48A40.53,40.53,0,0,1,136.3,185.3Z"/><path class="cls-1" d="M247.2,142.77c-.29-.31-.58-.63-.84-1a21.64,21.64,0,0,1-1.55-3.39q-1.11-2.17-2.26-4.3-2.27-4.17-4.75-8.2a143.76,143.76,0,0,0-10.46-14.77,118.52,118.52,0,0,0-24.67-23.08,109.93,109.93,0,0,0-29.61-14.39,123.11,123.11,0,0,0-16.28-3.88c-5.81-1-11.61-1.13-17.44-1.76a2.11,2.11,0,0,0-.35,0l-1.11,0h-.75c-1.28,0-2.56-.06-3.82-.06s-2.31,0-3.47,0l-1.1,0-1.06,0a3.31,3.31,0,0,0-.33,0c-5.87.62-11.71.81-17.55,1.79a121.72,121.72,0,0,0-16.54,4A110,110,0,0,0,63.8,88.2a118.8,118.8,0,0,0-24.56,23,148.13,148.13,0,0,0-10.7,15.14q-2.41,3.9-4.6,7.94c-.83,1.53-1.4,3.12-2.34,4.61a11.85,11.85,0,0,0-2.15,4.67,7.59,7.59,0,0,0,.9,4.34c.92,1.8,2.24,3.36,3.21,5.13s1.91,3.81,3,5.66c1.8,3.23,3.66,6.41,5.66,9.52a139.32,139.32,0,0,0,13.24,17.43A114.49,114.49,0,0,0,72.6,208.1a112.55,112.55,0,0,0,32.68,12.71c8,1.77,15.88,2.2,23.94,3l.33,0h.95l1,0c1.16,0,2.34.06,3.49.06h.35c1.15,0,2.33,0,3.5-.06l1,0h1l.33,0c6-.62,11.95-.83,17.91-1.84A121.79,121.79,0,0,0,176,217.88a110.3,110.3,0,0,0,29.93-15,120.36,120.36,0,0,0,24.81-24,136.57,136.57,0,0,0,9.4-13.94c1.64-2.73,3.27-5.45,4.85-8.21,1.38-2.41,3.18-5,3.94-7.65a6.1,6.1,0,0,0-.38-4.69A8.82,8.82,0,0,0,247.2,142.77ZM139.67,214.61c-.56,0-1.13,0-1.69,0-.93,0-1.87,0-2.81,0l-2.46,0-2.05,0C84.44,213.21,51.44,190.35,29.91,145a4.49,4.49,0,0,0-.5-.82C51,100.58,83.57,78.62,128.84,77.26l1.82,0c.89,0,1.78,0,2.68,0s1.77,0,2.65,0l1.84,0c46.22,1.39,79.26,24.24,100.8,69.66a4.76,4.76,0,0,0,.5.81C217.57,191.29,185,213.25,139.67,214.61Z"/><circle class="cls-1" cx="136.3" cy="144.82" r="16.94"/><ellipse class="cls-1" cx="95.63" cy="124.54" rx="19.32" ry="10.55"/></svg>