<svg id="Capa_1" data-name="Capa 1" xmlns="http://www.w3.org/2000/svg" viewBox="0 0 268.57 291.87"><defs><style>.cls-1{fill:#fff;}</style></defs><title>MANUAL MARCA</title><path class="cls-1" d="M268.57,196.1v77.21c0,4.39-1.27,5.4-5.53,4.26A291.69,291.69,0,0,0,227.12,270a146.12,146.12,0,0,0-16.59-1.54c-2.48-.06-4.95-.37-7.43-.4-19.74-.24-39.09,2.58-58.19,7.4a8,8,0,0,0-1.31.3c-6.61,2.9-13,1.61-19.7-.17a223.92,223.92,0,0,0-46.67-7.26c-18.17-.9-36,1.17-53.69,4.9-6.11,1.28-12.14,2.87-18.16,4.51-3.82,1-5.38-.18-5.38-4.12V118.3c0-3.4.44-4.07,3.66-5,3.76-1,7.55-2,11.35-2.89a2.4,2.4,0,0,0,2.24-2.73c.05-6.46.1-6.47,6.37-8.1,2.91-.76,5.82-1.53,8.75-2.17,1.62-.35,2.18-1.17,2.17-2.81-.07-6.32,0-12.65,0-19,0-4.57,1-5.64,5.55-5.66,15.44-.09,30.8.75,45.88,4.42,1.66.4,2.16.23,1.91-1.78a93.91,93.91,0,0,1-.61-11.25c0-11.14,0-22.28,0-33.42,0-3.14.73-4.1,3.87-4.8q21-4.65,42-9.23c2.65-.58,5.05.59,7.51,1.11,12.71,2.69,25.38,5.58,38.08,8.33a3.39,3.39,0,0,1,3,3.65c-.11,13.61.54,27.24-.31,40.84a35.39,35.39,0,0,1-.38,5.62c-.33,1.55.94,1.06,1.6.89a133.44,133.44,0,0,1,15.75-2.78A205.92,205.92,0,0,1,229.91,70c3.16.1,4.3,1.38,4.31,4.54,0,6.47.09,12.94,0,19.41,0,2.17.49,3.22,2.8,3.64,3.61.67,7.15,1.73,10.71,2.69,3,.81,3.62,1.73,3.68,4.81.11,5.66-.85,4.41,4.74,5.87,2.83.74,5.68,1.46,8.5,2.25,3.57,1,4,1.55,4,5.18ZM41,153.09q0,37,0,74c0,2,.5,2.77,2.64,2.71a166.6,166.6,0,0,1,24.75,1.25,182.19,182.19,0,0,1,36.61,8.4c8.28,2.81,16.11,6.69,24.1,10.17,1.71.74,2,.32,2-1.36-.08-3.76,0-7.53,0-11.29q0-57,.05-114c0-1.71-.14-2.85-2.2-3.45q-28-8.19-38.26-35.58a3.53,3.53,0,0,0-2.78-2.52c-14.23-3.61-28.73-4.76-43.34-4.9-3.48,0-3.48,0-3.48,3.38Zm186.69.26v-5.87c0-22.73,0-45.45,0-68.18,0-2.19-.66-2.86-2.82-2.79-3.91.14-7.81.24-11.72.41a180.86,180.86,0,0,0-31.43,4.3,4,4,0,0,0-3.25,2.89c-6.84,18-19.5,29.86-37.93,35.41-2.3.69-3,1.6-3,4q.11,61.3,0,122.59c0,4.4-.64,4.58,3.93,2.45,26.32-12.3,53.79-19.44,83-18.76,3.09.07,3.1,0,3.1-3.08ZM6.46,194.87v72c0,.67,0,1.35,0,2,0,1.14.48,1.7,1.71,1.3.57-.19,1.16-.29,1.75-.45a248.37,248.37,0,0,1,55.35-8.29c5.65-.18,11.28.2,16.91.51,4.86.28,9.72.89,14.55,1.54a252.55,252.55,0,0,1,32.19,6.66c1.54.41,2.09,0,2.07-1.53,0-2.71-.11-5.42,0-8.12.1-1.83-.52-2.65-2.34-3.13-19.88-5.18-39.94-8.48-60.6-7.06a207.68,207.68,0,0,0-24.12,3,218.57,218.57,0,0,0-21.71,5.12c-3.15.93-4.93-.45-5-3.74,0-.76,0-1.51,0-2.26V120.62c0-.75,0-1.51,0-2.26,0-1.3-.51-1.77-1.82-1.4-1.88.53-3.79,1-5.68,1.46-3.23.85-3.24.86-3.24,4.22Zm255.64.1V123.42c0-.75,0-1.51,0-2.26a2.07,2.07,0,0,0-1.82-2.4c-2-.48-4.07-1.05-6.11-1.57-2.8-.72-2.81-.71-2.81,2.17v133.4a22.08,22.08,0,0,1-.06,2.7c-.3,2.51-2,3.69-4.42,3.14-1.54-.34-3-.79-4.58-1.19-16.24-4.32-32.72-7.15-49.56-7.42a162.28,162.28,0,0,0-26.06,1.85,240.79,240.79,0,0,0-27.33,5.74c-1.06.29-1.78.68-1.77,1.92,0,3.16,0,6.32,0,9.48,0,1.22.54,1.59,1.72,1.27,2.4-.64,4.8-1.22,7.21-1.81a239,239,0,0,1,49.21-6.95,179,179,0,0,1,20,.79,200.84,200.84,0,0,1,25.4,3.58c6.25,1.3,12.48,2.73,18.68,4.25,1.81.45,2.38-.06,2.27-1.78,0-.52,0-1.05,0-1.58Q262.11,230.87,262.1,195Zm-163,49.4c-2.93-.84-5.85-1.74-8.81-2.51a176.11,176.11,0,0,0-32.41-5.35,133.94,133.94,0,0,0-15.77-.39c-7,.36-7.58,0-7.58-6.89V107.56c0-.76,0-1.51,0-2.26,0-1.17-.46-1.65-1.69-1.31a47,47,0,0,1-5.9,1.44c-2.53.35-3.19,1.59-3.19,4.08q.12,69.19.06,138.39c0,.52,0,1,0,1.58,0,1.36.58,1.67,1.85,1.33a206.72,206.72,0,0,1,35-6.3c7.79-.64,15.57-1.28,23.41-.83C89,244,94,244.35,99.08,244.37Zm70.49.32a8.37,8.37,0,0,0,1.12,0,162.32,162.32,0,0,1,28.32-1,213.32,213.32,0,0,1,42.42,6.73c3.36.87,3.36.87,3.36-2.56V109.52c0-.6,0-1.2,0-1.8a1.65,1.65,0,0,0-1.36-1.81c-2.61-.67-5.24-1.33-7.85-2-.89-.23-1.3.1-1.33,1s0,1.5,0,2.26V230.8c0,4.74-.93,5.67-5.71,5.56A180.74,180.74,0,0,0,186.18,240,119.72,119.72,0,0,0,169.57,244.69Zm5.68-194.95c0-6-.07-12,0-18,0-1.87-.59-2.64-2.4-3-11.6-2.49-23.18-5.08-34.76-7.62a12.4,12.4,0,0,0-5.56-.39q-18.24,4.09-36.52,8c-1.7.37-2.3,1.09-2.29,2.87.07,10.91-.13,21.82.1,32.72.12,6.06.62,12.11,2.92,17.91,6.63,16.62,18.39,27.31,35.82,31.65a8.78,8.78,0,0,0,3.11.11,30.64,30.64,0,0,0,11.47-3.83c17.92-9.56,27.42-24.44,28-44.81C175.38,60.13,175.25,54.93,175.25,49.74Z"/><path class="cls-1" d="M64.91,133.23a121.77,121.77,0,0,1,43.9,11q3.48,1.6,6.93,3.28c2.75,1.34,3.52,2.87,2.55,4.87s-2.68,2.3-5.42,1c-5.3-2.54-10.61-5-16.14-7a109.74,109.74,0,0,0-32.33-6.6,8.92,8.92,0,0,1-2.42-.44,3.15,3.15,0,0,1,.67-6A15.46,15.46,0,0,1,64.91,133.23Z"/><path class="cls-1" d="M65.84,162.08a120.34,120.34,0,0,1,41.3,10.18c2.75,1.23,5.46,2.52,8.17,3.82,3.2,1.56,4,3.11,2.93,5.25-1,2-2.59,2.15-5.85.54a133.52,133.52,0,0,0-26.9-10.21,101.48,101.48,0,0,0-20-3,20.38,20.38,0,0,1-2.9-.38A2.9,2.9,0,0,1,60,164.89a2.85,2.85,0,0,1,3.17-2.81C63.89,162.07,64.64,162.08,65.84,162.08Z"/><path class="cls-1" d="M63.72,190.77c17,.58,32.87,5.3,48.11,12.51,1.7.8,3.39,1.63,5.06,2.51A3,3,0,0,1,118.3,210a2.81,2.81,0,0,1-4,1.53c-1.68-.65-3.29-1.47-4.91-2.26a119.71,119.71,0,0,0-39.39-11.61c-2.23-.26-4.49-.35-6.74-.52s-3.46-1.47-3.35-3.42S61.53,190.65,63.72,190.77Z"/><path class="cls-1" d="M76.67,105.64a113.59,113.59,0,0,1,20.77,5.21c2.2.76,4.35,1.64,6.49,2.56s3,2.61,2.19,4.45-2.36,2.39-4.5,1.55A122.3,122.3,0,0,0,75.49,112c-2.46-.38-3.54-1.8-3.22-3.79C72.61,106.06,74.16,105.54,76.67,105.64Z"/><path class="cls-1" d="M212,165.45a3.09,3.09,0,0,1-2.85,2.81c-2.68.3-5.37.52-8.06.77-14,1.35-27.1,5.86-39.7,11.94-1.15.56-2.3,1.12-3.47,1.62-1.93.81-3.54.28-4.4-1.38a3.11,3.11,0,0,1,1.56-4.37q4.6-2.35,9.38-4.42c13.9-6,28.32-9.93,43.55-10.34C210.65,162,212.09,163.24,212,165.45Z"/><path class="cls-1" d="M212,136.49a3.36,3.36,0,0,1-3.2,3.11c-2.31.36-4.64.3-7,.52-13.8,1.3-26.71,5.59-39.18,11.41-1.57.73-3.09,1.56-4.68,2.24-2,.88-3.76.28-4.55-1.49s-.13-3.31,1.78-4.28c11.72-5.93,23.88-10.64,36.86-13a97.86,97.86,0,0,1,16.1-1.81C210.58,133.16,212.05,134.47,212,136.49Z"/><path class="cls-1" d="M212,194c0,1.79-1.37,3-3.69,3.12a113.59,113.59,0,0,0-26.33,4.5,141.12,141.12,0,0,0-22.15,8.85,14.07,14.07,0,0,1-2.92,1.15,2.84,2.84,0,0,1-3.37-1.59,2.88,2.88,0,0,1,.67-3.68,5.61,5.61,0,0,1,1.49-1,129.29,129.29,0,0,1,46.88-14.31c1.94-.2,3.89-.29,5.84-.32A3.33,3.33,0,0,1,212,194Z"/><path class="cls-1" d="M169.11,119.87c-1.94-.18-3.19-1-3.56-2.62-.42-1.93.63-3.2,2.33-3.87a135,135,0,0,1,13.17-4.61,108.67,108.67,0,0,1,14-3.14c2.76-.37,4.29.48,4.67,2.57.34,1.94-1.09,3.55-3.7,3.92a113.75,113.75,0,0,0-22.36,6C172.08,118.69,170.49,119.34,169.11,119.87Z"/><path class="cls-1" d="M170,52.85c-.11,6,.64,13.31-.87,20.42-3.77,17.74-14.4,29.36-31.71,34.84a9.42,9.42,0,0,1-5.54.07A44.5,44.5,0,0,1,99.47,70.69a58.5,58.5,0,0,1-.4-6.75q0-13.09,0-26.19c0-3.47.79-4.48,3.81-5.15Q118,29.27,133.05,26a6.45,6.45,0,0,1,2.9,0c10.12,2.25,20.25,4.46,30.37,6.72,2.71.6,3.66,1.74,3.69,4.57C170.06,42,170,46.85,170,52.85Zm-6.53,2c0-5.16-.08-9.45,0-13.73.05-1.76-.55-2.54-2.27-2.9-8.45-1.78-16.87-3.65-25.3-5.51a5.37,5.37,0,0,0-2.43-.12q-13,2.89-26,5.68a2.23,2.23,0,0,0-2.07,2.6q.14,9.7,0,19.4a58.49,58.49,0,0,0,.63,11C108.54,84.52,116,94.06,128.08,100c4.08,2,7.95,2.31,12.25.27,11.68-5.58,19.21-14.44,22.22-27C164.08,66.88,163.31,60.38,163.49,54.81Z"/><path class="cls-1" d="M152.63,57.43a3.93,3.93,0,0,1-1.33,2.43c-6.39,6.38-12.77,12.78-19.18,19.13-2.07,2.05-3.5,2-5.61,0-3-2.88-5.89-5.82-8.79-8.77-1.54-1.57-1.63-3.46-.33-4.8s3.26-1.38,5,.26A60.66,60.66,0,0,1,127.57,71c1.44,1.8,2.3,1.35,3.66,0,5.15-5.27,10.42-10.43,15.62-15.66,1.2-1.21,2.48-1.68,4-.88A3.17,3.17,0,0,1,152.63,57.43Z"/></svg>