<svg id="_36" data-name="36" xmlns="http://www.w3.org/2000/svg" viewBox="0 0 164.17 194.65"><path d="M41.79,184.47s4.28,12.38,15.55,12.85h86a6.93,6.93,0,0,0,4-1.25c3.12-2.22,8.95-7.37,9.88-15.36V151.5s-1.36-11.3-5.47-17.5a3.26,3.26,0,0,0-4.9-.55c-6.09,5.51-23.78,18.89-48.42,14.83,0,0-22.53-8.77-14-19.65a2.77,2.77,0,0,0-.69-4.07l-15.94-9.94a3.81,3.81,0,0,0-4.44.27c-6,4.83-22.07,19.42-21.64,35.13Z" transform="translate(-17.91 -2.68)" fill="#f2f2f2"/><circle cx="82.15" cy="68.31" r="46.31" fill="#f2f2f2"/><path d="M99.51,125.37s-7.35,2.11-6.82,7.93c0,0,1.48,6.35,5.39,6.88h9.66a4.33,4.33,0,0,0,.8-.07c3.42-.63,27.46-5.31,33.35-14.74,0,0,15.66-14.29,21.38-28.68l1.16-2.86s12.28-2.22,15.61-11c0,0,4.6-12.38,0-25.4,0,0-3-7-14.44-10,0,0-16.19-39.25-52.39-44.12,0,0-46.77-7.2-68.78,25.18L35.49,46.42a2.33,2.33,0,0,1-1.65,1.25c-3.5.7-14.06,3.66-14.59,13.89,0,0-4,16.51,1.9,24.12,0,0,7.41,15.88,27.3,7.84,0,0,3.39-1.27,0-5.93,0,0-11.64-9.31-4-27.09,0,0,4.87-36,41.91-42.54,0,0,40.21-10.37,61.58,26.67,0,0,16.93,25,1.91,48.89C149.83,93.52,135.64,126.74,99.51,125.37Z" transform="translate(-17.91 -2.68)" fill="#f2f2f2"/></svg>