<svg id="Capa_3" data-name="Capa 3" xmlns="http://www.w3.org/2000/svg" viewBox="0 0 184.86 195.12"><path d="M81.4,139.92l16.24-3.86v-4.15c0-18.59-.15-37.18.1-55.77.06-4.16-1.18-5.69-5.21-6.68-16.57-4-26.78-19-25.13-36.2C68.91,17.53,82.25,4.79,98.55,3.5c15.9-1.25,30.67,9.54,34.73,25.36A33.09,33.09,0,0,1,109,69.48c-4.37,1.08-5.42,2.87-5.38,7.06q.31,28.38,0,56.75c0,3.77,1.16,5.48,4.86,6.06s7.07,1.68,11.25,2.72c0-4.36.32-8.2-.09-12-.44-4.1.71-7.3,4-9.66,6.84-5,9.43-9.47,5-18.92-7.85-16.79,1.77-35.8,19.16-42.54a33.64,33.64,0,0,1,43.28,18.61c5.17,12.56.94,29.75-9.49,38.59s-27.4,10.53-38.94,2.85c-4.51-3-7-2.25-9.86,1.45-2.27,3-6.36,5.76-6.57,8.84-.48,7.27-2.39,15.17,3.39,22.18L149.36,140c1.59-.92,3.17-1.88,4.8-2.73,7.1-3.71,14.73-1.78,18.35,4.62s1.62,13.43-5.38,17.66c-11.89,7.19-24.07,13.9-35.92,21.15-13.66,8.34-27.91,12.11-44.08,9.25-8.14-1.44-16.67-.72-25-.8-2.71,0-4.21.79-5.45,4.18-2.92,8-10.47,4.21-16.2,4.56-4.22.26-5.91-2.94-6-6.62q-.21-20.85,0-41.7c0-4.42,2.55-6.74,7-6.8,3,0,6-.14,9,.06a10.2,10.2,0,0,1,4.21,1.34c1.89,1.07,3.71,3.68,5.35,3.51,4.58-.47,9.06-2,13.55-3.19a3,3,0,0,0,1.4-1.37c1.87-3.1.14-16.4-2.42-19-.24-.24-.47-.48-.71-.71-7-6.9-7-6.9-15.74-2.73C39,128.9,18,120.78,10.91,103.27,3.64,85.18,12.7,64.64,30.68,58.53c19-6.47,38.43,3.93,43.71,23.34,2.54,9.29.9,18-4.09,26-1.54,2.47-1.63,4.27.75,6C79.91,120.14,84.61,128.28,81.4,139.92Zm-24.22,43c1.23.09,2,.17,2.82.2,13.34.51,26.67,1.2,40,1.39,4.21.06,9-.18,12.56-2.06,16.88-8.84,33.46-18.23,50.08-27.56,5.06-2.84,6.33-6.11,4.36-9.65-2.11-3.78-5.94-4.47-10.85-1.68-8.88,5-18.32,9.38-26.36,15.52-13,10-26.74,3.41-40.18,3.34-.8,0-2-2.06-2.19-3.28-.09-.65,1.56-2,2.62-2.24a14,14,0,0,1,4.48,0c7.18.45,14.35,1.27,21.53,1.23,2.12,0,4.24-2.39,6.36-3.69-1.38-1.82-2.39-4.6-4.2-5.29-5.26-2-10.85-3.24-16.32-4.72A22,22,0,0,0,85.38,146c-8,4.15-16.21,8-25.52,8.44a3.77,3.77,0,0,0-2.56,2.67C57.1,165.63,57.18,174.12,57.18,182.87ZM101,9.88a27.26,27.26,0,1,0,27.1,27.19A27.27,27.27,0,0,0,101,9.88ZM14.78,90.07c0,15.55,11.87,27.58,27.19,27.58A27.31,27.31,0,0,0,69.18,90.5a26.83,26.83,0,0,0-27.3-27.38C26.55,63.12,14.77,74.84,14.78,90.07Zm145-27A26.74,26.74,0,0,0,132.45,90a27.06,27.06,0,0,0,27.14,27.66A27.41,27.41,0,0,0,187,90.11,27.11,27.11,0,0,0,159.75,63.11ZM51.15,170.42h-.24c0-6-.14-12,.05-18,.13-4-2.42-3.67-5-3.56s-5.66-1-5.64,3.48c.07,12-.05,24,.08,36.05,0,5.37,4.49,3.2,7.17,3.65,2.9.48,3.61-1.51,3.57-4.08C51.09,182.1,51.15,176.26,51.15,170.42Z" transform="translate(-8.39 -3.4)" fill="#7d397d"/><path d="M88.85,37.16c0-4.51-.13-9,0-13.54s2.18-5.91,6.08-3.76c8,4.45,16,9.08,23.86,13.82,3.73,2.25,3.75,4.54.08,6.75q-11.82,7.09-23.86,13.81c-4,2.22-6,1-6.16-3.54S88.85,41.67,88.85,37.16Zm6.84-9.24V46.67l16.22-9.62C106.64,34,102.33,31.47,98,29,97.46,28.66,96.84,28.44,95.69,27.92Z" transform="translate(-8.39 -3.4)" fill="#803e80"/><path d="M60.28,86.58c0,7.68-9.39,19.94-16.94,21.93a5.65,5.65,0,0,1-3.8-.39c-8-4.29-13.85-10.49-15.92-19.57-2.15-9.5,5.77-16.84,15.21-14.42a12.25,12.25,0,0,0,5.77.11C53.28,72.08,60.29,77.5,60.28,86.58ZM29.71,86c.1,4.93,6.34,13.89,10.88,15.35a4.15,4.15,0,0,0,3.25-.37c4.87-3.44,9-7.67,10-13.78.3-1.89-.71-4.85-2.16-5.91a6.93,6.93,0,0,0-6.23-.19c-2.72,1.58-4.53,1.62-7.19-.08C34,78.34,29.61,81.13,29.71,86Z" transform="translate(-8.39 -3.4)" fill="#7e3b7e"/><path d="M144.05,93.58c0-2.67,0-5.34,0-8,0-2.87.51-5.25,4.26-5.56.83-.07,2-2.23,2.13-3.53.63-5.38,2.92-8,7.56-8.21,4.85-.17,7.57,2.4,8.07,8.1.22,2.51.83,3.71,3.64,4.26a13.29,13.29,0,0,1,11,14.05c-.33,7.2-5.14,12.74-12.5,13.33a148.31,148.31,0,0,1-20,0c-1.42-.09-3.59-2.42-3.86-4-.59-3.4-.19-7-.19-10.48Zm6.49,8.17h9.81c2,0,4,.07,6,0,4.6-.21,7.86-3.2,8-7.3A7.28,7.28,0,0,0,167,86.66c-6.09.32-7.68-2.37-7.11-7.76.15-1.36-.51-2.81-.8-4.21l-1.52,0a19.24,19.24,0,0,0-.77,3.45c-.18,3.71,1.06,8.1-4.88,8.64-.51,0-1.24,1.55-1.27,2.4C150.47,93.18,150.54,97.16,150.54,101.75Z" transform="translate(-8.39 -3.4)" fill="#803d80"/></svg>