<svg id="Capa_4--" data-name="Capa 4--" xmlns="http://www.w3.org/2000/svg" viewBox="0 0 192.39 162.46"><path d="M186.76,35.92,149.63,76.84,132.51,59.57c-16.86,16.5-32.94,32.23-49.35,48.27l-16.74-18L11.65,140.48l-6.27-6.69L64.91,78.53,82.43,95.42l49.11-48.2L148.84,64l32.89-36.36H149V18.48h47.74V66.25h-8.56V36.54Z" transform="translate(-4.38 -18.48)" fill="#752e75"/><path d="M188.65,84.32h8.12v96.62h-8.12Z" transform="translate(-4.38 -18.48)" fill="#752e75"/><path d="M162.43,75.86h7.62v105h-7.62Z" transform="translate(-4.38 -18.48)" fill="#752e75"/><path d="M135.83,97.66h8.11v83h-8.11Z" transform="translate(-4.38 -18.48)" fill="#752e75"/><path d="M117.65,180.83h-8V97.9h8Z" transform="translate(-4.38 -18.48)" fill="#752e75"/><path d="M83.28,180.86V124.35h8.17v56.51Z" transform="translate(-4.38 -18.48)" fill="#752e75"/><path d="M65.11,120v60.69H57V120Z" transform="translate(-4.38 -18.48)" fill="#752e75"/><path d="M38.89,180.92H30.55v-39h8.34Z" transform="translate(-4.38 -18.48)" fill="#752e75"/><path d="M12.72,180.92H4.38v-22h8.34Z" transform="translate(-4.38 -18.48)" fill="#752e75"/></svg>