<svg id="Capa_5--" data-name="Capa 5--" xmlns="http://www.w3.org/2000/svg" viewBox="0 0 190.96 190.62"><path d="M4.32,99.66C5.94,44,49,3.09,104.65,5.24c51.44,2,92.9,46.3,90.49,100.15-2.28,51.13-46.18,91.87-98.94,90.34C45.15,194.25,2.85,150,4.32,99.66Zm95.59,89.49a89.12,89.12,0,0,0,88.93-88.95c0-48.43-40-88.47-88.33-88.47-49.7,0-89.46,39.3-89.66,88.62C10.66,149.11,50.83,189.18,99.91,189.15Z" transform="translate(-4.28 -5.16)" fill="#752e75"/><path d="M63,53.27l4.49,4q30,29.81,59.8,59.58c.94.94,2.25,1.74,2.7,2.87a10.12,10.12,0,0,1,.54,3.09,1.65,1.65,0,0,1-1.62,1.75,10.31,10.31,0,0,1-3.54-.36c-1.28-.46-2.21-1.93-3.26-3Q91.37,90.38,60.64,59.56c-1.26-1.26-2.56-3.5-4.2-1.61a1.66,1.66,0,0,0,.08,2.25q24,24,47.89,48c5.74,5.75,11.5,11.47,17.23,17.23,1.74,1.75,4.18,3.68,1.76,6.25-2.7,2.86-4.79.22-6.63-1.61Q85.42,98.84,54.13,67.55l-.44-.43a1.66,1.66,0,0,0-2.79,1.1c-.2,2.57.86,4.64,3,6.75q29.54,29.53,58.84,59.28c.35.36.83.66,1,1.08a14.21,14.21,0,0,1,.62,3.18,1.66,1.66,0,0,1-1.63,1.93c-1.4,0-2.79,0-3.54-.72-6.79-6.33-13.28-13-19.82-19.56q-20.82-21-41.58-42.08c-4.89-5-4.83-16.09.1-21.13,1.63-1.66,3.61-3.06,4.87-5,4.8-7.24,12.05-6.6,19.16-6.08,1.56.11,3.26,1.49,4.49,2.7q30.57,30.24,61,60.62a8.12,8.12,0,0,1,2.17,2.66c.39,1.09.54,3,0,3.49a4.25,4.25,0,0,1-3.93.77c-1.45-.54-2.59-2-3.76-3.14C112.47,93.77,93,74.59,73.7,55.21a16,16,0,0,0-3.49-2.77C67.1,50,64.23,50.92,63,53.27Z" transform="translate(-4.28 -5.16)" fill="#752e75"/><path d="M149.16,71.57c-6.86-6.79-13.09-13-19.89-19.76-1.35,1.58-3.13,3.24-5.07,5.5,1.73,1.82,4,3.74,5.62,6.12a3.34,3.34,0,0,1,.35.74,3.24,3.24,0,0,1-4.07,4,2.25,2.25,0,0,1-.67-.35c-2.2-1.67-3.8-4.11-5.87-6.48L114.93,66c2.48,2.17,4.63,3.61,6.43,5.88a2.89,2.89,0,0,1,.37.67,3.27,3.27,0,0,1-5,3.56c-2.16-1.66-3.65-4.21-5.48-6.47-1.67,1.6-3.43,3.48-4.79,4.76-1.56-1.42-3.64-3.29-4.75-4.38,8.53-8.57,19.12-18.66,27.47-27.06,9.24,9.2,18.89,18.83,28.34,28.25-8.25,8.22-17.15,16.83-26.3,25.94l-4.08-3.88Z" transform="translate(-4.28 -5.16)" fill="#7e3b7e"/><path d="M42,129.56c8-8,16.69-16.43,25.4-25.1,1,.92,2.6,2.66,4.15,4.05-.84,1.29-2,1.39-3,3a48.11,48.11,0,0,1,6,6.39,5.77,5.77,0,0,1,.86,2.45,2.37,2.37,0,0,1-2.55,2.76,6,6,0,0,1-2.88-.86,35.75,35.75,0,0,1-6.13-6.06c-1.86,1.68-1.4,1.73-4.34,4.4,2.32,1.37,3.87,3.2,5.61,4.69s3.8,2.79,1.07,5.58c-2.94,3-4.2.64-6-1.32a43,43,0,0,1-4.61-5.17c-2.78,2.62-3.6,3.61-4.83,4.76l19.82,19.81,20.9-21c2.25,2.3,3.23,2.94,4.49,4.38-8.33,8.1-17.53,17.44-25.77,25.45Z" transform="translate(-4.28 -5.16)" fill="#752e75"/><path d="M120.13,141.09a1.13,1.13,0,0,1,1-.22c4.56,1.06,8.46,1.83,12.27,2.93,3.4,1,6.06,1.09,8.94-1.83s1.52-5.7.69-8.62c-.9-3.18-2.2-6.29-2.7-9.53a6.74,6.74,0,0,1,.91-3.48,1.58,1.58,0,0,1,2.11-.78c1.26.6,2.55,1.18,2.85,2.09,3.2,9.57,6.1,19.23,8.85,28.94.9,3.17-1,5-4.11,4.31q-15.48-3.57-30.79-7.75c-1.09-.3-2.4-2.41-2.31-3.58C117.88,142.63,119.23,141.8,120.13,141.09Z" transform="translate(-4.28 -5.16)" fill="#752e75"/><path d="M67.35,104.46" transform="translate(-4.28 -5.16)"/><path d="M98.35,134.67" transform="translate(-4.28 -5.16)"/></svg>