<svg id="Capa_2" data-name="Capa 2" xmlns="http://www.w3.org/2000/svg" viewBox="0 0 198.03 194.26"><path d="M74.55,44.65c19.22,0,38.44.11,57.66-.15a11.09,11.09,0,0,0,6.91-3.24c8.48-8.55,16.23-17.85,25.09-26,5.15-4.73,11.8-7.88,18-11.42,4.47-2.57,8.83-1.46,12.56,1.84s5.63,7.6,3.91,12.23c-2.1,5.65-4.36,11.64-8.12,16.18-7.88,9.52-16.91,18.08-25.19,27.28-1.79,2-3.41,5-3.43,7.57-.13,27.6,0,55.21.21,82.81.1,12.79-5.2,18-18.08,17.82-13.27-.2-26.56,0-39.84-.12-3.61,0-4.74,1.34-4.19,4.66.06.34,0,.69.07,1,.47,4-.33,9,1.81,11.59,1.72,2.07,7.12.78,10.69,1.72a3.06,3.06,0,0,1,.84.35,4.28,4.28,0,0,1,.56,6.8c-.32.29-.58.52-.93.79-.56.44-1.76.24-2.63.24q-28.57,0-57.14,0c-1.22,0-2.78.25-3.57-.37-1.36-1.07-2.51-2.73-2.45-4.1a4.61,4.61,0,0,1,2.91-3.66c2.66-.61,5.63.17,8.3-.41a5.79,5.79,0,0,0,3.83-3.42c.83-3.54.68-7.29,1.23-10.91.52-3.4-.94-4.3-4-4.27-14,.1-27.92-.12-41.88.16a16,16,0,0,1-16.35-16q0-46.39,0-92.78c0-10.33,5.87-16.22,16.16-16.23Q46,44.62,74.55,44.65ZM130,53H19.33c-8.23,0-9.47,1.19-9.48,9.3,0,22.19.11,44.39-.1,66.59-.05,4.42,1.35,5.65,5.65,5.64q66.32-.19,132.65,0c4.56,0,5.47-1.62,5.42-5.78-.21-17.13-.09-34.26-.1-51.39,0-1.46-.18-2.93-.32-5.21-4.44,3.52-8.43,6.3-11.91,9.63-1.5,1.44-2.17,3.92-2.81,6.06-1.34,4.46-1.62,9.42-3.72,13.45-7.81,15-31.47,19.41-46.48,12.35-1.15-.54-2.43-3.78-2-4.33,5.3-6.23,5.07-13.88,6.14-21.27,1.94-13.48,10.45-20.88,24.06-21.6a7.77,7.77,0,0,0,4.91-2.09C124.17,61.17,126.6,57.54,130,53ZM82,142.86q-31.2,0-62.39,0c-11,0-9.75-1.31-9.76,9.79,0,7.47,1.08,8.51,8.42,8.51q61.08,0,122.15,0c13.91,0,12.81.58,13-13.22.07-4.33-1.41-5.23-5.41-5.2C126.05,142.94,104,142.86,82,142.86Zm14-32.73c6-.55,12.07-.49,17.86-1.8,8.77-2,15-7.35,17-16.56a14.92,14.92,0,0,0-17.9-18c-8,1.71-13.15,7.93-14.13,16.69C98.18,96.47,97.15,102.44,96,110.13ZM162,55.46c7.5-8.1,14.57-15.32,21.11-23a47.72,47.72,0,0,0,7.64-12.37c1-2.45,1-7-.52-8.39s-6.12-1.31-8.47-.11c-14.77,7.51-24.78,20.27-36,33C153.81,44.38,158.53,48,162,55.46ZM82,188.33c11.15,0,11.15,0,10-10.65-.9-8.14-.9-8.14-11.68-8.14-8,0-8,0-8.68,7.52C70.59,188.37,70.59,188.37,82,188.33ZM133.59,59.77l-5.66,7.61,7.93,9.56L144,70.27C140.4,66.62,137.22,63.43,133.59,59.77Zm17,4.81c3.74-1.84,3.69-5.6,2.16-8.38-4.18-5.39-9.67-2.31-13.95-3.26Z" transform="translate(-1.24 -2.46)" fill="#7a357a"/><path d="M81.71,145.21a7,7,0,0,1,6.93,7,6.83,6.83,0,0,1-7.1,6.76c-4-.32-6.36-2.66-6.61-6.72A6.72,6.72,0,0,1,81.71,145.21Z" transform="translate(-1.24 -2.46)" fill="#7c387c"/></svg>