<svg xmlns="http://www.w3.org/2000/svg" viewBox="0 0 268.57 291.87"><defs><style>.cls-1{fill:#fff;}</style></defs><title>PLANIFICACION Y CRONOGRAMA</title><g id="Capa_3" data-name="Capa 3"><path class="cls-1" d="M116,72H31.08C18.61,72,9.35,66.27,3.5,55.49-6.78,36.57,7.06,12.89,28.84,11.76c.85,0,1.7,0,2.56,0q84.45,0,168.92,0c14.16,0,26.18,8.66,30,21.44A30.18,30.18,0,0,1,201.14,72C172.75,72.07,144.36,72,116,72Zm-.07-51H33a48.43,48.43,0,0,0-5.11.25A20.82,20.82,0,0,0,10.17,47.37c2.7,9.62,10.89,15.37,22,15.37q83.61,0,167.24,0a39.84,39.84,0,0,0,5.67-.41c13.52-2,21.45-18.19,14.78-30.06C215.44,24.34,208.57,21,199.66,21Q157.78,21,115.9,21Z"/><path class="cls-1" d="M268.54,220a60.14,60.14,0,0,1-60.1,60.18c-33.1,0-60.29-27.19-60.21-60.18a60.61,60.61,0,0,1,60.06-60.12C241.24,159.7,268.47,186.88,268.54,220Zm-111.06.06a50.93,50.93,0,1,0,51-50.94A51,51,0,0,0,157.48,220.05Z"/><path class="cls-1" d="M136.51,118.21q-26.07,0-52.13,0c-6.82,0-11.64-3.21-13.78-9a13.55,13.55,0,0,1,10-18.38,22.06,22.06,0,0,1,4.52-.43q51.56,0,103.11,0c5.64,0,10.59,1.64,13.5,6.85,5.41,9.68-.9,20.68-12,20.91-7.69.15-15.38,0-23.07,0Zm.55-18.48q-25.65,0-51.29,0c-4.81,0-6.85,1.36-6.93,4.53S81,109,85.85,109H187.58c4.73,0,6.77-1.36,6.85-4.56s-2-4.74-6.94-4.74Q162.28,99.72,137.06,99.73Z"/><path class="cls-1" d="M118.18,164.44c-11.39,0-22.78.05-34.16,0-6.73,0-11.45-3.35-13.54-9.27A13.59,13.59,0,0,1,81.58,137a23.28,23.28,0,0,1,3.13-.18q33.44,0,66.89,0c7.78,0,12.9,3.74,14.69,10.51,2.31,8.75-4.16,17-13.67,17.09C141.14,164.54,129.66,164.44,118.18,164.44Zm.07-9.19h15.1c6.27,0,12.54.06,18.8,0,4.15-.06,6.35-3.17,4.78-6.61-1-2.27-3.1-2.56-5.26-2.56H121.75c-12.25,0-24.5-.08-36.75.09a7.84,7.84,0,0,0-5.14,2.06,4.66,4.66,0,0,0-.16,4.56,7.31,7.31,0,0,0,4.93,2.38C95.84,155.35,107.05,155.25,118.25,155.25Z"/><path class="cls-1" d="M113,183.12c9.87,0,19.75-.05,29.62,0,4.67,0,7.1,3.66,4.54,7-1,1.27-3.37,2-5.14,2-10,.19-19.94.09-29.91.09q-13.68,0-27.35,0c-2.24,0-4.39.26-5.44,2.73a4.38,4.38,0,0,0,3,6.22,14.74,14.74,0,0,0,3.39.25h46.15c5,0,7.11,1.43,7.1,4.69s-2.12,4.59-7.16,4.59q-23.51,0-47,0c-7.52,0-12.34-3.3-14.46-9.67-3-9,3.44-17.83,13.32-18S103.23,183.12,113,183.12Z"/><path class="cls-1" d="M104.51,229.35c6.93,0,13.87-.22,20.79.07,5.94.25,10.48,3,12.68,8.89,2,5.39.93,11.35-3.57,15-2.23,1.82-5.37,3.46-8.14,3.53-14.7.33-29.43.43-44.13,0-6.23-.18-10.51-4.1-12-10.38-1.38-5.6.11-10.64,4.73-13.91a19.45,19.45,0,0,1,9.47-3.12c6.71-.46,13.48-.14,20.22-.14Zm0,9.17c-6.35,0-12.71,0-19.06,0a11.86,11.86,0,0,0-3.09.34c-3,.81-4.21,3.63-2.9,6.45,1,2.19,3,2.52,5,2.52q19.9.08,39.83,0a4.17,4.17,0,0,0,2.7-.62c1.1-1.13,2.52-2.61,2.54-4s-1.27-3-2.45-4c-.89-.72-2.5-.72-3.8-.74C117,238.48,110.75,238.52,104.49,238.52Z"/><path class="cls-1" d="M208.46,155.24c-3.14,0-6.28.08-9.41,0a13.87,13.87,0,0,1-13.74-13.3,13.23,13.23,0,0,1,12.14-14.1,134.45,134.45,0,0,1,21.89,0c7.59.62,12.52,7,12.12,14.35s-6.16,12.89-13.89,13.1C214.54,155.31,211.5,155.24,208.46,155.24Zm.16-18.47c-2.94,0-5.89-.09-8.82,0-3.35.13-5.14,1.77-5.2,4.5s2,4.69,5.27,4.75q8.67.15,17.35,0c3.11-.06,5-2,5-4.66s-1.86-4.46-5.1-4.58C214.31,136.68,211.46,136.77,208.62,136.77Z"/><path class="cls-1" d="M23.35,243.34a18.48,18.48,0,0,1,37-.21,18.48,18.48,0,1,1-37,.21Zm9.16,0a9.29,9.29,0,1,0,9.05-9.43A9.44,9.44,0,0,0,32.51,243.37Z"/><path class="cls-1" d="M41.67,178.53a18.45,18.45,0,1,1-18.32,18.54A18.49,18.49,0,0,1,41.67,178.53Zm.11,27.6a9.21,9.21,0,1,0-9.27-9.21A9.32,9.32,0,0,0,41.78,206.13Z"/><path class="cls-1" d="M41.83,122.77a18.48,18.48,0,0,1-.06-36.95,18.48,18.48,0,1,1,.06,37Zm-.09-9.16a9.27,9.27,0,1,0-9.23-9.23A9.43,9.43,0,0,0,41.74,113.61Z"/><path class="cls-1" d="M41.8,169a18.44,18.44,0,1,1,0-36.87,18.44,18.44,0,1,1,0,36.87Zm-.09-27.59a9.2,9.2,0,1,0,9.37,9.12A9.26,9.26,0,0,0,41.71,141.45Z"/><path class="cls-1" d="M109,30.35h29c2.1,0,4.26.4,4.86,2.62.4,1.45.35,3.72-.53,4.63a7.6,7.6,0,0,1-5,1.86c-16.51.13-33,.08-49.52.08-2.56,0-5.12,0-7.68,0-3.74,0-6-1.82-6-4.66s2.24-4.51,6.09-4.52Q94.67,30.34,109,30.35Z"/><path class="cls-1" d="M87.84,53.34q-12.8,0-25.6,0a13.39,13.39,0,0,1-3.1-.26A4.09,4.09,0,0,1,55.85,49a4,4,0,0,1,3-4.34,13.37,13.37,0,0,1,3.62-.46q25.6,0,51.2,0c.38,0,.76,0,1.14,0,3.51.1,5.64,1.9,5.59,4.73s-2,4.45-5.5,4.47C105.86,53.37,96.85,53.34,87.84,53.34Z"/><path class="cls-1" d="M159.67,53.34c-7.78,0-15.56,0-23.35,0a13.39,13.39,0,0,1-3.1-.26,4.09,4.09,0,0,1-3.3-4.12,4.06,4.06,0,0,1,3-4.35,10.59,10.59,0,0,1,3.06-.45c15.94,0,31.89-.07,47.83.06A7.07,7.07,0,0,1,188.56,46a4.84,4.84,0,0,1,.6,4.56,6.31,6.31,0,0,1-4.44,2.68c-6.15.31-12.33.13-18.5.13Z"/><path class="cls-1" d="M46.45,30.35c4.27,0,8.54,0,12.81,0,3.57,0,5.74,1.87,5.64,4.67s-2.17,4.48-5.55,4.49q-13,.06-25.92,0C30.07,39.5,28,37.71,28,35s2-4.56,5.4-4.6C37.71,30.31,42.08,30.35,46.45,30.35Z"/><path class="cls-1" d="M37,53.31c-1.52,0-3,.11-4.55,0a4.53,4.53,0,0,1-.2-9,74,74,0,0,1,9.65,0,4.57,4.57,0,0,1,4.36,4.72c-.09,2.48-1.87,4.18-4.72,4.37-1.51.1-3,0-4.54,0Z"/><path class="cls-1" d="M213.11,215.52h15.12c7,0,14.05-.07,21.07,0,4.37.06,6.71,3.35,4.64,6.7a6.11,6.11,0,0,1-4.41,2.38c-13.48.18-27,.15-40.44.07-3.64,0-5.17-1.79-5.18-5.7q-.06-19.78,0-39.59c0-3.55,1.64-5.42,4.46-5.47s4.7,2,4.72,5.54c0,10.83,0,21.65,0,32.47Z"/><path class="cls-1" d="M173.74,224.73c-.66,0-1.32,0-2,0-2.87-.23-4.79-2-4.84-4.55-.06-2.67,1.86-4.47,5-4.63,1.22-.06,2.45-.06,3.67,0,3,.16,4.89,1.83,5,4.36s-2,4.58-4.89,4.82C175.07,224.77,174.4,224.73,173.74,224.73Z"/><path class="cls-1" d="M203.89,254.72c0-4.58,1.51-6.79,4.61-6.74s4.61,2.27,4.61,6.81-1.7,7.06-4.81,6.93S203.89,259.36,203.89,254.72Z"/></g></svg>