<svg xmlns="http://www.w3.org/2000/svg" viewBox="0 0 268.57 291.87"><defs><style>.cls-1{fill:#fff;}</style></defs><title>DISEÑO UX UI</title><g id="Capa_3" data-name="Capa 3"><path class="cls-1" d="M0,218.29c3.37-1.91,7.08-2,10.8-1.94,2.34,0,4.68,0,7.27,0,.05-1,.12-1.83.12-2.69q0-69,0-137.92c0-12.52,2.4-24.37,9.85-34.79,5.73-8,13.11-13.51,23.08-14.92a45.64,45.64,0,0,1,6.52-.32c50.41,0,100.82.28,151.22-.16,19.86-.18,31.64,12.73,36.55,25.69,3.32,8.77,3.93,17.91,3.94,27.14q0,67.38,0,134.77v3.47c1.27,0,2.28,0,3.3,0,3.71.07,7.44,0,11.13.28,3.48.27,4.79,1.92,4.77,5.43a40.85,40.85,0,0,1-9.38,25.88c-9.58,12-22.08,18.13-37.59,18.12q-86.64-.1-173.28,0c-9.07,0-17.84-1.47-25.88-6C11.62,254.25,4.83,245,.93,233.35c-.28-.82-.62-1.63-.93-2.45Zm153.12,14.14c.19-4,.33-7.72.56-11.41.17-2.83,1.1-3.93,3.87-4.4a28.81,28.81,0,0,1,4.83-.26c25,0,50.09,0,75.14,0,2.3,0,3-.9,3-3,0-.56,0-1.13,0-1.69q0-70.06-.11-140.13a56,56,0,0,0-1-10.09C236.19,44.37,225,34.53,207.64,34c-11.78-.32-23.58.2-35.38.2q-56.1,0-112.22-.16c-10.3,0-19,3.1-25.07,12a44.19,44.19,0,0,0-7.74,24.83C27,93.89,27,116.92,27,140q0,36.5.12,73c0,1.1.17,2.21.27,3.43h78.28a25.43,25.43,0,0,1,4.09.31c3,.5,3.9,1.42,4.16,4.42s.3,6,.35,8.94c0,1.83.72,2.51,2.64,2.45,4.52-.14,9,0,13.57,0ZM8.67,225.3a21.83,21.83,0,0,0,.2,3c2.91,12.41,9.73,21.6,21.84,26.43,6.11,2.44,12.5,3.11,19,3.11q79.71,0,159.43,0c5.16,0,10.34,0,15.49-.3,13.81-.91,24.1-7.53,30.71-19.68a19.88,19.88,0,0,0,2.57-11.72H162.37a67.32,67.32,0,0,0-.45,7c.2,6.08-2,8.46-8.06,8.46-11.31,0-22.61,0-33.92-.1-2.9,0-5.8-.19-8.7-.37-2.55-.16-4.32-1.42-4.66-4-.38-2.87-.66-5.77-.76-8.67-.08-2.28-.79-3.15-3.3-3.14-30.36.1-60.73.06-91.1.06Z"/><path class="cls-1" d="M135.73,104H57.22c-3.33,0-5-1.44-5-4.18a4,4,0,0,1,3.65-4.12,15.67,15.67,0,0,1,1.94,0h155.8a15.83,15.83,0,0,1,2.18.06,4.07,4.07,0,0,1,3.57,4.44,3.94,3.94,0,0,1-3.91,3.83c-.73,0-1.46,0-2.18,0Z"/><path class="cls-1" d="M137.19,72.82q39.26,0,78.51,0c2.32,0,4.19.53,5,2.94a4,4,0,0,1-3.59,5.38c-.56,0-1.13,0-1.7,0H59.08c-3.58,0-5.21-1.17-5.36-3.82a4,4,0,0,1,4-4.49c1.37-.07,2.75,0,4.12,0Z"/><path class="cls-1" d="M192,161.81c-3.06,4.4-5.93,8.47-8.74,12.58-1.3,1.91-3,2.76-5.18,2-2.75-.92-3.63-4-1.87-6.57,3.08-4.55,6.19-9.08,9.42-13.51a2.53,2.53,0,0,0,0-3.57c-3.37-4.54-6.63-9.17-9.91-13.77-1.77-2.5-1.59-4.87.46-6.4s4.47-1.08,6.37,1.55c3.07,4.25,6.11,8.52,9.39,13.1l7-10.09c.6-.86,1.19-1.73,1.81-2.58,1.7-2.32,4-2.86,6.06-1.44s2.46,3.82.86,6.17c-3,4.4-6,8.83-9.15,13.1-1.19,1.61-1.13,2.65.05,4.19,2.94,3.85,5.7,7.84,8.49,11.8,1.75,2.47,1.49,4.86-.62,6.37s-4.33,1-6.19-1.52C197.55,169.58,194.94,165.89,192,161.81Z"/><path class="cls-1" d="M57.68,148.28c0-4,0-8.08,0-12.11,0-2.62,1.53-4.23,3.89-4.29a4,4,0,0,1,4.26,4.24c.12,4.92.1,9.85.13,14.78,0,2.66-.12,5.33,0,8,.25,5.22,4.17,8,9.17,6.62A5.49,5.49,0,0,0,79.4,161a34.53,34.53,0,0,0,.54-6c.12-6.13,0-12.28.23-18.41.12-3.45,3.51-5.3,6.13-3.42a4.68,4.68,0,0,1,1.86,3.13c.14,8.47.37,17,0,25.4-.32,6.68-5.78,11.68-12.45,12.48a17.46,17.46,0,0,1-10.81-1.68,13.12,13.12,0,0,1-7-11.65c-.18-4.19,0-8.4,0-12.59Z"/><path class="cls-1" d="M137.66,148.37c0-3.71,0-7.43,0-11.14,0-3,1.49-4.7,4-4.76s4.19,1.67,4.26,4.56c.14,5.65.11,11.3.19,16.95a47.66,47.66,0,0,0,.31,7c.45,2.77,2.51,4.24,5.52,4.5,3.85.32,6.15-.71,7.16-3.54a14.88,14.88,0,0,0,.82-4.73c.11-6.7.09-13.41.13-20.11,0-1.78.41-3.35,2.19-4.25a3.89,3.89,0,0,1,5.62,2,6.74,6.74,0,0,1,.55,2.57c-.07,8.22.33,16.5-.46,24.65s-7.29,12.58-15.66,12.11c-7.84-.45-14.26-6.57-14.59-14.13-.17-3.87,0-7.75,0-11.62Z"/><path class="cls-1" d="M113.47,184.18c-2.49,0-4.18-2.33-3.5-5.21,1.24-5.24,2.63-10.45,4-15.65,3.31-12.19,6.68-24.37,10-36.55.73-2.67,2.62-4,4.89-3.46a4.44,4.44,0,0,1,3.05,5.47c-3.29,12.11-6.38,24.28-9.59,36.42q-2,7.45-4.16,14.87C117.47,182.71,115.61,184.2,113.47,184.18Z"/><path class="cls-1" d="M104.35,154.18c0,5.8,0,11.6,0,17.4A4.15,4.15,0,0,1,100.5,176c-2.11.16-3.77-1.31-4.23-3.78a6,6,0,0,1-.14-1.19q0-17.06,0-34.1a7.24,7.24,0,0,1,.24-1.67,4.06,4.06,0,0,1,4.39-3.31,3.88,3.88,0,0,1,3.6,4.08C104.38,142.09,104.35,148.14,104.35,154.18Z"/></g></svg>