<svg id="_20" data-name="20" xmlns="http://www.w3.org/2000/svg" viewBox="0 0 196.35 149.14"><path d="M174.67,67.23A23.8,23.8,0,1,1,151.17,91,23.64,23.64,0,0,1,174.67,67.23Zm.45,36.67,9.82-8.79a10.59,10.59,0,0,0,3.44-6.06,7.15,7.15,0,0,0-1.14-5.56,6.9,6.9,0,0,0-10.49-1.07,8.37,8.37,0,0,0-1.63,2.11A6.86,6.86,0,0,0,168,80.21a3.07,3.07,0,0,0-1.34.43C152,89.31,175.12,103.9,175.12,103.9Z" transform="translate(-1.83 -25.43)" fill="#f2f2f2" opacity="0.4"/><path d="M96.63,25.43a23.8,23.8,0,1,1-23.5,23.8A23.65,23.65,0,0,1,96.63,25.43Zm.44,36.68,9.83-8.79a10.55,10.55,0,0,0,3.43-6.06,7.1,7.1,0,0,0-1.14-5.57,6.89,6.89,0,0,0-10.48-1.06,8.29,8.29,0,0,0-1.64,2.11,6.87,6.87,0,0,0-7.15-4.33,3.2,3.2,0,0,0-1.34.43C74,47.52,97.07,62.11,97.07,62.11Z" transform="translate(-1.83 -25.43)" fill="#f2f2f2" opacity="0.4"/><path d="M110.47,127A23.8,23.8,0,1,1,87,150.77,23.65,23.65,0,0,1,110.47,127Zm.44,36.68,9.82-8.79a10.61,10.61,0,0,0,3.44-6.07,7.07,7.07,0,0,0-1.14-5.56,6.9,6.9,0,0,0-10.49-1.06,8.18,8.18,0,0,0-1.63,2.11,6.87,6.87,0,0,0-7.15-4.33,3.2,3.2,0,0,0-1.35.43C87.82,149.07,110.91,163.66,110.91,163.66Z" transform="translate(-1.83 -25.43)" fill="#f2f2f2" opacity="0.4"/><path d="M25.33,89.43a23.8,23.8,0,0,1,0,47.59,23.8,23.8,0,0,1,0-47.59Zm.44,36.68,9.83-8.79A10.54,10.54,0,0,0,39,111.25a7.07,7.07,0,0,0-1.14-5.56,6.9,6.9,0,0,0-10.49-1.06,8.18,8.18,0,0,0-1.63,2.11,6.87,6.87,0,0,0-7.15-4.33,3.2,3.2,0,0,0-1.34.43C2.68,111.52,25.77,126.11,25.77,126.11Z" transform="translate(-1.83 -25.43)" fill="#f2f2f2" opacity="0.4"/></svg>