<svg xmlns="http://www.w3.org/2000/svg" viewBox="0 0 268.57 291.87"><defs><style>.cls-1{fill:#fff;}</style></defs><title>PRODUCCION DE PAUTAS</title><g id="Capa_3" data-name="Capa 3"><path class="cls-1" d="M0,145.78q0-54,0-108.08C0,24.94,8,15.05,20.4,12.36a31.62,31.62,0,0,1,6.54-.51q82,0,164,0c13.84,0,23.9,7.87,26.47,20.72a35.23,35.23,0,0,1,.43,6.82q0,71.46,0,142.91c0,1.09-.25,2.5.32,3.2,1.2,1.47,2.72,3.27,4.36,3.59,1.29.24,3.4-1.22,4.39-2.51,4.19-5.48,4.13-5.67,10.61-3.33a85.45,85.45,0,0,1,9.45,4.31c2.48,1.25,3.64,3.24,2.6,6.1a10.93,10.93,0,0,0-.44,1.86c-.77,4.65,1.7,7,6.31,6.14,5.21-1,5.85-1,8.23,3.73a90.73,90.73,0,0,1,4.59,11.7c.82,2.38-.21,4.27-2.36,5.54-.23.14-.48.26-.71.4-5.34,3.1-5.45,6.61-.32,9.87,3.67,2.33,3.9,2.42,2.41,6.62-1.54,4.37-3.54,8.59-5.43,12.83-1.16,2.61-3.26,3.26-5.9,2.39-.44-.14-.88-.25-1.32-.37-4.23-1.09-6.56.75-6.48,5.13a6.71,6.71,0,0,0,.11,1.09c1,6.26.88,6.71-4.83,9.38a108.77,108.77,0,0,1-10.23,3.9c-2.52.89-4.46,0-5.76-2.32-.27-.48-.52-1-.81-1.43-2.81-4.51-6.62-4.53-9.29.09-1.28,2.24-2.41,4.34-5.48,4.12-.44,0-1,.45-1.37.81-4.14,3.88-9.2,4.92-14.68,4.91q-49.5,0-99,0-35.23,0-70.48,0C15,280,6.61,275,2.11,264.49a29,29,0,0,1-2-11.19C0,217.46,0,181.62,0,145.78ZM200.72,271l.62-.74c-5.67-1.56-7-5-5.1-9.93a2.65,2.65,0,0,0,0-1.09c-.15-3.73-2.34-5.45-6-4.69-.53.11-1.05.31-1.57.46-3.46,1-4.62.7-6.22-2.58-2-4.17-3.67-8.53-5.41-12.83-1-2.43,0-4.23,2.07-5.59,6.83-4.38,6.8-6.88-.17-11.22-2-1.24-2.83-2.94-2-5.1,1.49-4.11,3-8.22,4.83-12.2s3.73-4.8,7.85-3.64c5,1.4,7.53-1.38,6.44-6.48-.13-.62-.35-1.23-.5-1.85-.54-2.19-.11-4,2-5.11,3-1.53,6-3.21,9.08-4.44,1.88-.73,2.37-1.67,2.37-3.57Q209,109.27,209,38.08a22.34,22.34,0,0,0-.39-4.63c-1.74-8.06-8.71-13.24-17.78-13.24q-81.74,0-163.46,0c-12.22,0-19,6.8-19,19q0,106.56,0,213.13c0,12,6.89,19,18.86,19q84.48,0,169,0C197.65,271.33,199.19,271.14,200.72,271Zm43.07-42.65a21.66,21.66,0,0,0-20.71-22.17,21.39,21.39,0,0,0-22,21.44c-.17,11.25,7.74,21.5,21.06,22.15C233.71,250.37,243.36,240.77,243.79,228.39Z"/><path class="cls-1" d="M47.55,100.85a17.84,17.84,0,0,1,17.86,18c-.12,10.29-8.25,18.56-18.13,18.44a18.35,18.35,0,0,1-17.87-18.71A17.85,17.85,0,0,1,47.55,100.85Z"/><path class="cls-1" d="M47.52,47.55a17.74,17.74,0,0,1,17.9,17.62c0,10.47-8.08,18.85-18.09,18.77s-18-8.48-17.92-18.68A17.8,17.8,0,0,1,47.52,47.55Z"/><path class="cls-1" d="M65.37,172.68a18,18,0,0,1-17.94,18,18.42,18.42,0,0,1-18-18.08,18.16,18.16,0,0,1,18.3-18C57.7,154.58,65.41,162.46,65.37,172.68Z"/><path class="cls-1" d="M65.41,226.11a17.81,17.81,0,0,1-17.5,17.82A18.37,18.37,0,0,1,29.4,225.52a17.81,17.81,0,0,1,17.65-17.64A18.26,18.26,0,0,1,65.41,226.11Z"/><path class="cls-1" d="M137.44,185.68H92.49c-3.19,0-5.4-1.65-5.51-4.15s2.21-4.42,5.54-4.42h89.9c3.46,0,5.6,1.75,5.48,4.4-.11,2.45-2.43,4.21-5.5,4.2h-45Z"/><path class="cls-1" d="M137.71,47.53h43.56a25.07,25.07,0,0,1,2.74.07,4,4,0,0,1,3.87,3.89,4.14,4.14,0,0,1-3.75,4.31,16.81,16.81,0,0,1-2.46.07H92.09c-3.21-.08-5.11-1.6-5.16-4.12s1.83-4.18,5-4.21c5.75,0,11.5,0,17.26,0Z"/><path class="cls-1" d="M137.7,70.18q22.22,0,44.43,0a6,6,0,0,1,3.39.7c1,.81,2.19,2.23,2.21,3.41a5.18,5.18,0,0,1-2.12,3.47,6.35,6.35,0,0,1-3.65.77q-44.57.06-89.12,0A6.53,6.53,0,0,1,89,77.61,4.92,4.92,0,0,1,87.18,74c.1-1.17,1.32-2.47,2.38-3.25a5.81,5.81,0,0,1,3.17-.54Q115.22,70.16,137.7,70.18Z"/><path class="cls-1" d="M137.43,154.53h45c3.39,0,5.44,1.52,5.5,4.08S185.7,163,182.32,163H92.38c-3.21,0-5.43-1.76-5.4-4.24s2.23-4.15,5.48-4.15h45Z"/><path class="cls-1" d="M126.38,239.29H93.49a16.54,16.54,0,0,1-2.73-.1c-2.25-.38-3.72-1.77-3.72-4.06s1.42-3.51,3.52-4a13,13,0,0,1,2.72-.18h67.14c3.48.05,5.77,1.73,5.73,4.21s-2.24,4.1-5.79,4.11Q143.37,239.31,126.38,239.29Z"/><path class="cls-1" d="M126.74,208.32h32.59c.82,0,1.65,0,2.46,0,2.41.21,4.39,2.09,4.39,4.13s-2,4-4.37,4.13c-.91.08-1.82,0-2.74,0H93.9c-.64,0-1.28,0-1.92,0-2.91-.08-4.91-1.68-5-4s2-4.27,5-4.28C103.56,208.3,115.15,208.32,126.74,208.32Z"/><path class="cls-1" d="M152.51,101.32q15.36,0,30.72,0c3.53,0,5.46,1.42,5.52,4s-2.12,4.32-5.57,4.32q-30.59,0-61.16,0a12.49,12.49,0,0,1-1.37,0c-2.49-.25-4.32-2-4.32-4.16a4.32,4.32,0,0,1,4.37-4.08c1.82-.1,3.65,0,5.48,0Z"/><path class="cls-1" d="M152.79,123.47q14.94,0,29.89,0c1,0,2.28-.21,2.93.31,1.24,1,2.69,2.33,3,3.75.42,1.92-1,3.45-3,4a12.65,12.65,0,0,1-3.26.27q-29.9,0-59.78,0h-.28c-3.8,0-6-1.57-6-4.16s2.24-4.18,6-4.18Q137.57,123.45,152.79,123.47Z"/><path class="cls-1" d="M84.93,122.79c6-5.49,11.62-10.56,17.13-15.76,3.15-3,5.23-3.56,7.3-1.65s1.68,4.48-1.33,7.55Q99.09,122,90.15,131.11c-3.13,3.18-5.13,3.18-8.3,0-2.84-2.85-5.72-5.66-8.47-8.6-2.32-2.48-1.89-5.43.83-6.88,2-1,3.58-.23,5,1.12C81.36,118.93,83.45,121.23,84.93,122.79Z"/></g></svg>