<svg id="_21--" data-name="21--" xmlns="http://www.w3.org/2000/svg" viewBox="0 0 195.7 146.81"><path d="M25.57,67.74A23.42,23.42,0,1,0,49,91.16,23.42,23.42,0,0,0,25.57,67.74Zm-.44,36.1-9.79-8.65a10.37,10.37,0,0,1-3.43-6A7,7,0,0,1,23.5,82.7a8.17,8.17,0,0,1,1.63,2.08,6.86,6.86,0,0,1,7.13-4.26,3.19,3.19,0,0,1,1.34.42C48.15,89.48,25.13,103.84,25.13,103.84Z" transform="translate(-2.15 -26.59)" fill="#f2f2f2" opacity="0.4"/><path d="M103.36,26.59A23.43,23.43,0,1,0,126.78,50,23.42,23.42,0,0,0,103.36,26.59Zm-.44,36.11L93.13,54a10.29,10.29,0,0,1-3.43-6,7,7,0,0,1,11.59-6.52,8.23,8.23,0,0,1,1.63,2.07,6.86,6.86,0,0,1,7.13-4.26,3.11,3.11,0,0,1,1.33.43C125.93,48.34,102.92,62.7,102.92,62.7Z" transform="translate(-2.15 -26.59)" fill="#f2f2f2" opacity="0.4"/><path d="M89.57,126.56A23.43,23.43,0,1,0,113,150,23.42,23.42,0,0,0,89.57,126.56Zm-.44,36.11L79.34,154a10.32,10.32,0,0,1-3.43-6,7,7,0,0,1,11.59-6.52,8.17,8.17,0,0,1,1.63,2.08,6.86,6.86,0,0,1,7.13-4.26,3.1,3.1,0,0,1,1.33.42C112.14,148.3,89.13,162.67,89.13,162.67Z" transform="translate(-2.15 -26.59)" fill="#f2f2f2" opacity="0.4"/><path d="M174.43,89.59A23.43,23.43,0,1,0,197.85,113,23.43,23.43,0,0,0,174.43,89.59ZM174,125.7,164.19,117a10.33,10.33,0,0,1-3.42-6,7,7,0,0,1,11.59-6.52,8,8,0,0,1,1.62,2.07,6.87,6.87,0,0,1,7.13-4.26,3.2,3.2,0,0,1,1.34.43C197,111.34,174,125.7,174,125.7Z" transform="translate(-2.15 -26.59)" fill="#f2f2f2" opacity="0.4"/></svg>