<svg xmlns="http://www.w3.org/2000/svg" viewBox="0 0 268.57 291.87"><defs><style>.cls-1{fill:#fff;}</style></defs><title>DISEÑO DE PAUTAS</title><g id="Capa_3" data-name="Capa 3"><path class="cls-1" d="M161.4,75.89c2.82-2.45,4.95-4.73,7.45-6.6a48.53,48.53,0,0,1,71.7,15.13c10,17.68,7.23,40.61-6.41,55.77-8.3,9.23-18.68,14-30.7,15.87-5.31.8-10.65,1.46-15.77,3.27a25.14,25.14,0,0,0-10.13,6.49c-2.25,2.39-4.62,4.66-6.93,7a15.28,15.28,0,0,1-8,4.67c-1.72.34-1.24,1.54-1.24,2.52q0,24.72,0,49.43,0,9.6,0,19.21c0,4.13-1.54,5.71-5.58,5.71q-75.09,0-150.17,0c-4.08,0-5.64-1.57-5.64-5.67Q0,155.33,0,62c0-3.66,1.59-5.23,5.32-5.24,5.46,0,10.93,0,16.39,0,1.39,0,2-.28,1.87-1.8-.14-2.09-.08-4.21,0-6.32.1-3,1.89-4.84,4.85-4.89q7.14-.12,14.29,0a4.53,4.53,0,0,1,4.78,4.69c.1,2.18.1,4.37,0,6.55,0,1.28.28,1.79,1.67,1.77q9-.1,18,0c1.28,0,1.59-.46,1.55-1.64-.07-2.1-.08-4.22,0-6.32.11-3.28,1.88-5,5.16-5.06q6.8-.07,13.59,0,4.94,0,5.18,5c.1,2.11.07,4.22,0,6.33,0,1.14.22,1.67,1.52,1.66,6.09-.06,12.18-.05,18.28,0,1.13,0,1.48-.38,1.44-1.49-.07-2.18-.06-4.37,0-6.56.08-3.09,1.88-4.91,5-5,4.6-.07,9.21-.06,13.82,0,3.22,0,5,1.84,5.12,5.12.07,2,.11,4.07,0,6.09-.09,1.5.48,1.83,1.87,1.81,5.39-.07,10.78,0,16.17,0,3.94,0,5.49,1.56,5.51,5.54C161.42,66.63,161.4,71,161.4,75.89Zm-9,110.07a3.64,3.64,0,0,0-2,1.38q-10.18,10.18-20.35,20.4a8.3,8.3,0,0,1-4.15,2.42c-10.47,2.46-20.92,5-31.39,7.47-4.82,1.14-7.36-1.51-6.21-6.37,2.17-9.18,4.42-18.34,6.43-27.54a18.68,18.68,0,0,1,5.5-10c8.33-8,16.35-16.33,24.57-24.45,1.93-1.91,3.48-3.78,3.79-6.66a10.55,10.55,0,0,1,3.05-5.7,65.46,65.46,0,0,1,5.42-5.5c7-6,10.52-13.75,11.84-22.71.29-2,.08-2.7-2.21-2.7q-67.82.11-135.64,0c-1.74,0-2.2.43-2.2,2.2q.08,67.58,0,135.15c0,1.71.53,2,2.1,2q69.59-.06,139.16,0c1.91,0,2.28-.59,2.28-2.37-.07-18.34,0-36.69,0-55Zm48-117.51c-9.62-.06-16.39,1.82-22.59,5.57-11.67,7-17.47,17.78-19.39,31-1.09,7.48-2.19,15-5.9,21.77-.83,1.52-2.92,2.88-2.32,4.55s2.53,2.67,3.74,4.09c1,1.14,1.61.93,2.58-.07q6.87-7,13.89-13.92c1.11-1.08,1-1.65,0-2.76-3.3-3.55-3.07-9.24.35-13a9.9,9.9,0,0,1,15,12.9c-.45.61-1.85,1.15-.63,2.24s1.58-.42,2.18-.86a9.89,9.89,0,0,1,15.79,5.79,9.8,9.8,0,0,1-16,9.62c-1.13-.94-1.75-1-2.8.11-3.57,3.72-7.26,7.31-10.88,11-1.36,1.38-3.83,3-3.69,4.21.19,1.61,2.55,2.93,3.85,4.47.89,1,1.56.87,2.51.11a29.18,29.18,0,0,1,10-4.89c5.39-1.66,11-2.36,16.5-3.28,9-1.51,17-5,23.51-11.55a39.77,39.77,0,0,0,8.41-42.71C228.65,78.15,214.14,68.47,200.48,68.45ZM79.76,97.12h68.17c.62,0,1.25,0,1.87,0a1.19,1.19,0,0,0,1.37-1c.4-1.66,1.17-3.31,1.19-5,.13-8,0-15.92.09-23.89,0-1.26-.43-1.59-1.63-1.57-3.74.06-7.49.07-11.24,0-1.37,0-1.76.48-1.72,1.78.08,2.1.09,4.22,0,6.32-.13,3-1.67,4.73-4.63,4.81-4.91.13-9.84.13-14.75,0-3-.09-4.47-1.87-4.54-4.85-.06-2.11-.09-4.22,0-6.32.06-1.38-.47-1.72-1.76-1.71-5.93,0-11.87.06-17.8,0-1.39,0-1.73.54-1.7,1.8.06,2.19.09,4.38-.05,6.56-.2,2.91-1.69,4.46-4.61,4.54-4.84.13-9.69.12-14.53,0-3.1-.08-4.62-1.76-4.73-4.93-.08-2.11-.07-4.22,0-6.33,0-1.19-.36-1.66-1.6-1.65q-9,.07-18,0c-1.22,0-1.66.4-1.62,1.62q.12,3.28,0,6.56c-.11,2.88-1.61,4.61-4.45,4.7q-7.48.23-15,0c-2.9-.09-4.41-1.92-4.48-4.92,0-2-.09-4.07,0-6.09.07-1.43-.38-1.91-1.84-1.87-3.59.09-7.19.13-10.77,0-1.72-.07-2,.54-2,2.11.07,9,.09,18,0,26.94,0,1.94.47,2.45,2.42,2.44C34.16,97.09,57,97.12,79.76,97.12ZM137,146.76a5.5,5.5,0,0,0,1.44,4.32c5.41,5.5,10.81,11,16.41,16.32,2.55,2.42,6.06,2.12,8.7-.25,1.1-1,2-2.16,3.18-3.09,1.39-1.15,1.43-1.94.07-3.27-6.51-6.39-12.92-12.88-19.34-19.36-3.91-3.94-3.88-3.94-7.85,0C138.16,143,137,144.55,137,146.76Zm-8.86,12.12c-7,7-13.66,13.59-20.31,20.15-.83.82-1,1.37,0,2.24,1.46,1.29,2.82,2.68,4.15,4.1.83.88,1.43.88,2.3,0,4.81-4.87,9.68-9.69,14.52-14.54.42-.42,1-.81.64-1.56C127.74,166.13,127.75,162.74,128.16,158.88Zm18.63,19.64c-3.53-.21-6.74-.49-9.74-2-1-.47-1.44.06-2,.62-4.82,4.86-9.64,9.74-14.5,14.57-.85.84-.93,1.42,0,2.25,1.43,1.31,2.81,2.69,4.14,4.11.78.83,1.33,1,2.26.1Q136.82,188.33,146.79,178.52ZM103.47,189l-.71.53q-2,8.06-3.9,16.1c-.28,1.12-.38,1.86,1.23,1.46,5.13-1.26,10.29-2.46,15.45-3.65.89-.21,1.35-.48.53-1.33ZM38.59,61.26V56.82c0-4.11,0-4-4-4.09-1.61,0-2.17.4-2.11,2.07.12,3.58,0,7.17,0,10.75.08,4.67-1.06,4,4.48,4.14,1.23,0,1.65-.47,1.62-1.65C38.55,65.78,38.59,63.52,38.59,61.26ZM129,61.08V56.87c0-4.21,0-4.13-4.22-4.14-1.6,0-2,.54-1.91,2,.1,3.58,0,7.16,0,10.75,0,4.42,0,4.36,4.41,4.21,1.4,0,1.72-.62,1.69-1.85C128.91,65.6,129,63.34,129,61.08Zm-45.23.24c0-1.4,0-2.81,0-4.21,0-4.53,0-4.47-4.46-4.36-1.26,0-1.57.43-1.55,1.62.07,3.75,0,7.49,0,11.24,0,4.26,0,4.2,4.29,4.08,1.37,0,1.75-.55,1.71-1.81C83.68,65.7,83.72,63.51,83.72,61.32Zm79.39,82.8a3.29,3.29,0,0,0,.54-.35q7.59-7.62,15.19-15.23c.63-.63.37-1.07-.14-1.56s-.93-.25-1.36.19c-1.41,1.45-2.85,2.87-4.28,4.31q-5.2,5.22-10.39,10.44c-.34.35-1,.62-.64,1.32A1.49,1.49,0,0,0,163.11,144.12Zm-20.86,24.7L137,163.15C137.26,166.57,139.41,168.63,142.25,168.82Zm51.27-41.88c-.47.11-.93.3-1,.81-.11.71.57.91,1,1,.64.14,1-.39.92-1A.89.89,0,0,0,193.52,126.94Zm-15.46-15.46c-.48.13-.85.42-.79.94s.27,1.11.91,1a1,1,0,0,0,.81-1.18A.84.84,0,0,0,178.06,111.48Z"/><path class="cls-1" d="M240.82,69.7a4.89,4.89,0,0,1-3.91-2.48,4,4,0,0,1,.35-4.6,29.29,29.29,0,0,1,4.92-5,4.09,4.09,0,0,1,5.54.34,4.19,4.19,0,0,1,.76,5.5A28,28,0,0,1,243.1,69,3.89,3.89,0,0,1,240.82,69.7Z"/><path class="cls-1" d="M261.28,112.36c-1.22-.08-2.39-.08-3.54-.27a4.15,4.15,0,0,1-3.59-4.44,4.42,4.42,0,0,1,3.49-4.11,24.11,24.11,0,0,1,7.44,0,4.54,4.54,0,0,1,3.49,4.35,4.26,4.26,0,0,1-3.62,4.2C263.73,112.28,262.47,112.28,261.28,112.36Z"/><path class="cls-1" d="M249.18,154.48a4.44,4.44,0,0,1-2.49,3.91,3.87,3.87,0,0,1-4.4-.2,23.37,23.37,0,0,1-4.89-5c-1.48-2.15-1.25-4,.5-5.67a4.31,4.31,0,0,1,5.95-.14c1.48,1.25,2.8,2.69,4.17,4.07A4.9,4.9,0,0,1,249.18,154.48Z"/><path class="cls-1" d="M202.57,44.61c0,.94,0,1.87,0,2.8a4.43,4.43,0,0,1-4.28,4.36,4.35,4.35,0,0,1-4.58-4,41.61,41.61,0,0,1,0-6.51,4.27,4.27,0,0,1,4.58-3.71,4.31,4.31,0,0,1,4.26,4.06c.06,1,0,2,0,3Z"/><path class="cls-1" d="M80.72,133.73q-21.78,0-43.56,0c-3.87,0-5.62-1.32-5.78-4.25A4.36,4.36,0,0,1,34.71,125a12.1,12.1,0,0,1,2.55-.23h86.89c1.9,0,3.72.11,5,1.87a4.28,4.28,0,0,1-2.79,6.94,18.63,18.63,0,0,1-2.8.14Z"/><path class="cls-1" d="M66.43,161.76c-10.15,0-20.29,0-30.44,0a4.17,4.17,0,0,1-4.4-3.1,4.33,4.33,0,0,1,1.69-5,4.84,4.84,0,0,1,3.09-.88q29.84,0,59.69,0c3.1,0,5.09,1.9,5.1,4.6s-1.94,4.32-5.24,4.33q-14.74,0-29.49,0Z"/><path class="cls-1" d="M58.36,189.87c-7.41,0-14.82,0-22.24,0-2.2,0-3.84-.93-4.51-3a4.39,4.39,0,0,1,1.74-5.16,4.5,4.5,0,0,1,2.87-.81q22.13,0,44.24,0a4.6,4.6,0,0,1,4.89,4.55c0,2.63-1.92,4.38-5,4.39C73,189.89,65.7,189.87,58.36,189.87Z"/><path class="cls-1" d="M55.32,218c-6.25,0-12.5,0-18.74,0-3.16,0-4.89-1.4-5.15-3.93-.3-2.89,1.64-5,4.78-5q16.27,0,32.56,0c2,0,4.06,0,6.09,0a4.56,4.56,0,0,1,4.77,4.4c0,2.67-1.81,4.48-4.88,4.51C68.27,218,61.8,218,55.32,218Z"/></g></svg>