<svg id="Capa_1" data-name="Capa 1" xmlns="http://www.w3.org/2000/svg" viewBox="0 0 268.57 291.87"><defs><style>.cls-1{fill:#fff;}</style></defs><title>SEO</title><path class="cls-1" d="M268.57,153.8c-.57-.61-.71,0-.83.34C262.83,170,253,182.55,241.39,193.88a156.59,156.59,0,0,1-68.69,39.86c-36.37,10.07-71.36,5.88-105-10.83a154.36,154.36,0,0,1-49-37.85C11,176.06,4.47,166.32.87,154.85c-.13-.43-.1-1.09-.87-.61v-.89l.33,0L0,152.91V136.57l.33-.41-.33,0v-.89c.63.56.7-.07.82-.42C5.91,118.93,16,106.33,27.69,95a158,158,0,0,1,73.81-40.8A133.41,133.41,0,0,1,142,50.52c34.36,2.25,64.45,15.18,90.74,37.2,12.43,10.4,23.09,22.34,30.64,36.84a65,65,0,0,1,4.24,10.33c.13.4-.12,1.38.91.8V137c-.1,0-.28,0-.29.07-.06.23,0,.38.29.37V152c-.27,0-.36.14-.3.37,0,0,.2,0,.3.07ZM137.36,59.25c-14.35,0-25.39,1.39-36.23,4.19A149.55,149.55,0,0,0,34,101.17c-9.1,8.75-16.89,18.51-22.41,30-4.28,8.9-4.46,17.65-.22,26.64a97.24,97.24,0,0,0,16.12,23.72A150.57,150.57,0,0,0,77.2,217.59a139.19,139.19,0,0,0,45.48,12.11,119.8,119.8,0,0,0,20,.17,138.1,138.1,0,0,0,22.74-3.43,148.77,148.77,0,0,0,77-46.83c6.54-7.38,12.11-15.45,15.63-24.77a25.84,25.84,0,0,0,1.74-13.92,48.27,48.27,0,0,0-6.61-16.34c-8.73-14.52-20.5-26.23-34-36.21C194,69.74,165.77,59.59,137.36,59.25Z"/><path class="cls-1" d="M249.06,217.65a188.21,188.21,0,0,1-33.89,23.56c-1.1.61-1.75.69-2.33-.66a40.33,40.33,0,0,0-2.63-5.05c-.74-1.2-.41-1.63.76-2.26A169.19,169.19,0,0,0,241.86,212c1.06-.91,1.55-.87,2.4.18C245.77,214.07,247.44,215.83,249.06,217.65Z"/><path class="cls-1" d="M134.34,77.38a67.37,67.37,0,1,1-67.62,67.1C66.77,107.44,97.31,77.07,134.34,77.38Zm22.48,121.13a58.43,58.43,0,1,0-81.15-55.83c-1.15,25.16,15,47.93,36.09,55.74q0-21.81,0-43.5c0-1.07-.46-1.16-1.32-1.15-2.57,0-5.15.1-7.72,0a8.88,8.88,0,0,1-8.17-5.29,8.24,8.24,0,0,1,1.3-9.45q15.48-17.84,31.11-35.53c4.41-5,10.4-4.8,14.77.25q8.67,10,17.41,19.94c4.45,5.1,9,10.1,13.34,15.3s1.92,12.62-4.68,14.4c-3,.8-6,.32-9,.35-1.56,0-2.12.26-2.08,2,.13,6,0,12.07,0,18.11Zm-54-53.91c4.53,0,8.72,0,12.9,0,4.84-.07,4.84-.11,4.84,4.71q0,25.15,0,50.32c0,1.47.24,2.08,1.92,2.41A59.41,59.41,0,0,0,146,202c1.59-.32,1.62-1,1.62-2.2q0-14.56,0-29.13c0-8.1,0-16.19,0-24.28,0-1.45.39-1.92,1.86-1.85,2.49.12,5,0,7.5,0h8.68c-10.73-12.21-21.09-24-31.49-35.87Z"/></svg>