<svg id="Capa_1" data-name="Capa 1" xmlns="http://www.w3.org/2000/svg" viewBox="0 0 268.57 291.87"><defs><style>.cls-1{fill:#fff;}</style></defs><title>DOMINIO Y HOSTING</title><path class="cls-1" d="M209.6,33.44c3.87,1.87,5.63,4.94,5.6,9.24-.07,9.64,0,19.27,0,28.9,0,6.21-3.57,9.72-9.82,9.74-5.25,0-10.51.07-15.77,0a7.48,7.48,0,0,0-4.69,1.47q-14.39,10-28.85,19.9a3.68,3.68,0,0,1-2.11,1L164.5,81.32c-3.06,0-5.85,0-8.64,0-6,0-9.56-3.62-9.57-9.52,0-9.71.06-19.42,0-29.12,0-4.32,1.74-7.37,5.61-9.24,2.81,0,5.62-.1,8.43-.1q23.1,0,46.19,0C207.53,33.34,208.56,33.4,209.6,33.44ZM162,94.88c7.63-5.2,15.27-10.38,22.87-15.62a5,5,0,0,1,3.07-.93c5.7,0,11.4,0,17.1,0,5.24,0,7.13-1.87,7.14-7q0-14.22,0-28.44c0-5.08-1.9-7-7-7H156.36c-5.23,0-7.13,1.86-7.14,7.05q0,13.89,0,27.78c0,5.87,1.71,7.6,7.49,7.6h12.35l-7.52,16.14c-.12.22-.32.47,0,.63C161.66,95.17,161.86,95,162,94.88Z"/><path class="cls-1" d="M268.46,192.37c-2.07,4.06-5.35,5.67-9.92,5.62-13-.15-26.07-.05-39.11-.06-6.21,0-10-3.4-9.57-9.55.29-4.58-1.15-7.49-4.9-10.08-5.35-3.68-10.3-8-15.41-12-.84-.65-1.81-1.06-1.11-2.62s1.8-1,2.75-.81c5.52,1,11.05,2,16.52,3.25,1.87.43,2.14-.08,2.06-1.73a24.85,24.85,0,0,1,.18-5.32,8.67,8.67,0,0,1,8.4-6.94c14-.06,28-.08,42,0,3.84,0,6.41,2.32,8.12,5.64Zm-73-25.7-.17.45c3.93,3.11,7.65,6.54,11.85,9.24s6.06,6.08,5.55,11.27c-.52,5.38,1.94,7.45,7.43,7.45h38.45a18.91,18.91,0,0,0,2-.07,5.67,5.67,0,0,0,5.38-5.92q.06-14,0-28c0-3.55-2.23-5.91-5.81-5.93q-20.77-.12-41.55,0c-3.65,0-5.88,2.39-6,6.05-.07,2.29-.11,4.6,0,6.89.09,1.61-.3,2-1.95,1.62C205.61,168.58,200.53,167.66,195.46,166.67Z"/><path class="cls-1" d="M.12,107.38c2-3.84,5.12-5.58,9.52-5.55,13.91.1,27.82,0,41.74,0,6.2,0,10,3.55,9.67,9.75a14.09,14.09,0,0,0,4.32,11.64c4,4,7.47,8.54,11.44,13.15a8.89,8.89,0,0,1-4.1-.52q-4.74-1.08-9.44-2.35c-1.58-.42-2.28-.2-2.17,1.68.14,2.13.3,4.31-.61,6.35A8.7,8.7,0,0,1,52.06,147q-21.64.08-43.29,0c-4,0-6.84-2-8.65-5.52ZM68.44,131.8l.22-.39a56.64,56.64,0,0,0-4.74-5.48c-4.47-4-6.51-8.72-5.74-14.86.47-3.75-2.31-6.24-6.14-6.25q-21.64,0-43.31,0c-3.79,0-6.12,2.27-6.14,6.06q-.1,13.56,0,27.11c0,3.8,2.37,6.08,6.13,6.09q21.66,0,43.31,0c3.78,0,6.2-2.49,6.25-6.28,0-2.73,0-5.46,0-8.39Z"/><path class="cls-1" d="M134.5,185h62c3.68,0,4.4.73,4.41,4.41,0,2.66,0,5.33,0,8s-1.1,3.55-3.68,3.65c-1.62.07-3.85-.72-4.66.35s-.12,3.13,0,4.75c1,16.57,1.87,33.15,2.28,49.75,0,2.19-.52,2.82-2.64,2.6a36.42,36.42,0,0,0-6,0c-1.45.1-1.68-.47-1.69-1.77-.11-17.65-1.34-35.25-2.21-52.87-.11-2.25-.77-2.87-3.07-2.87q-44.9.14-89.79,0c-1.71,0-2.38.26-2.47,2.16-.42,9-1.11,17.9-1.52,26.86s-.66,17.92-.89,26.89c0,1.31-.46,1.62-1.67,1.57-2.37-.08-4.74-.07-7.11,0-1.13,0-1.56-.23-1.51-1.45.39-10.15.65-20.3,1.09-30.45.36-8.14.91-16.28,1.42-24.41.06-.93-.2-1.17-1-1.14-1.33,0-2.67,0-4,0-2.41-.06-3.54-1.16-3.57-3.54-.05-2.89,0-5.78,0-8.67s1-3.83,3.9-3.83q22.89,0,45.79,0Z"/><path class="cls-1" d="M113,132.63c9.55,0,19.11.05,28.67,0,1.72,0,2,.49,2,2.1-.07,11.72-.09,23.43,0,35.14,0,1.82-.61,2-2.13,2-5.34-.08-10.67.05-16-.07-1.73,0-2.28.5-2,2.12a8.36,8.36,0,0,1,0,2c-.19,1.92,0,3.45,2.57,2.89.86-.19,1.07.28,1.13,1.12.28,3.63.31,3.62-3.37,3.62H101.17c-2.85,0-2.75,0-2.86-2.85-.06-1.6.47-2.16,2-1.91s1.73-.36,1.75-1.71c.06-5.24.11-5.24-5.14-5.24-4.3,0-8.59-.07-12.89,0-1.61,0-2.14-.32-2.12-2q.12-17.46,0-34.92c0-2,.65-2.27,2.4-2.26C93.84,132.68,103.4,132.63,113,132.63ZM108,145.93a4.73,4.73,0,0,0,4.82,4.75,4.79,4.79,0,0,0,4.66-4.7,4.74,4.74,0,1,0-9.48,0Z"/><path class="cls-1" d="M145.22,202.46c7.85,0,15.7.06,23.56,0,1.74,0,2.42.62,3,2.16,2.27,6.08,2.27,12.34,1.49,18.63-1.26,10.26-4.34,20-7.9,29.7a8.31,8.31,0,0,1-9,5.48,8.65,8.65,0,0,1-7.34-7.28c-.38-2.15.47-4.08,1.15-6a129,129,0,0,0,6.05-22.43,36.17,36.17,0,0,0,.28-9.75c-.23-2-.85-3.11-3.3-3-5.69.22-11.4.12-17.11,0a2,2,0,0,0-2.27,1.78c-1.2,4.9-.27,9.73.65,14.52a136.74,136.74,0,0,0,5.88,20.19c1.84,5.1-.23,9.86-5,11.58s-9.54-1.62-11-5.94c-3.26-9.75-6.47-19.5-7.62-29.77-.69-6.14-.6-12.26,1.81-18.14a2.38,2.38,0,0,1,2.63-1.71C129.21,202.5,137.21,202.46,145.22,202.46Z"/><path class="cls-1" d="M164.9,162.87c0,1.56-.09,2.93,0,4.29a2.31,2.31,0,0,1-1.71,2.65c-3.33,1.39-6.87,1.69-10.37,2.24-5,.8-7.73,4.92-6.08,9.7.58,1.66.13,1.79-1.32,1.77-4.81-.07-9.63-.06-14.44,0-1.21,0-1.81-.25-1.64-1.58.09-.8-.06-1.64,0-2.44.22-2,.07-3.55-2.62-3-1,.2-.92-.6-1-1.28-.09-1,.41-1.23,1.32-1.22,5.55,0,11.11-.06,16.66.06,1.71,0,2.08-.48,2.06-2.11-.1-7.19,0-14.38-.07-21.57,0-1.41.29-1.93,1.8-1.85,5.39.28,10.83-.58,16.17.48,9.11,1.8,16.4,11.28,15.46,20-.71,6.67-5.17,10.34-10.84,12.91a16.36,16.36,0,0,1-7.72,1.59c-2.89-.15-5.78,0-8.67,0-3.13,0-4.74-2-4.12-5.14.57-2.9,2.47-4.53,5.51-4.9,3.37-.4,6.76-.75,9.93-2.11.41-.17.84-.3,1.23-.5C168.48,168.85,168.71,165.92,164.9,162.87Z"/><path class="cls-1" d="M137.28,130.48c-2.07,0-4.15-.13-6.21,0-1.75.15-2.27-.53-2.44-2.16-1.06-10.58,9.22-19.79,19.6-17.49,7.34,1.63,12.71,7.55,13.21,14.54.56,8-3.52,14.38-10.9,17.19-.21.08-.42.14-.63.2-4,1.31-4.11,1.23-4.11-3,0-2.52-.1-5,0-7.55.09-1.54-.49-1.9-1.89-1.84C141.72,130.55,139.5,130.48,137.28,130.48Z"/><path class="cls-1" d="M110.08,112.09,114,125.71l-.49.34c-2.72-1.86-5.45-3.72-8.16-5.59-3.53-2.44-7.06-4.88-10.55-7.37a5.23,5.23,0,0,0-3.29-1c-4.89.06-9.78.05-14.67,0-5.21,0-8.89-3.47-9-8.7q-.18-13.78,0-27.58c.08-5.17,3.85-8.64,9-8.65q23.56,0,47.12,0c5.23,0,9.08,3.37,9.18,8.52q.27,14,0,28c-.1,5.06-3.92,8.35-9.06,8.38C119.56,112.11,115,112.09,110.08,112.09Zm-.9,7.47c-1-3.36-1.65-6.15-2.56-8.86-.44-1.32-.05-1.46,1.11-1.45,5.18,0,10.36,0,15.55,0,4.9,0,7.07-2.19,7.07-7q0-12.66,0-25.33c0-4.57-2.21-6.87-6.74-6.88q-23.1,0-46.2,0c-4.41,0-6.69,2.34-6.7,6.71q0,12.78,0,25.55c0,4.68,2.22,6.92,6.94,7,4.88,0,9.77,0,14.66,0A5.9,5.9,0,0,1,96,110.4C100.21,113.39,104.47,116.3,109.18,119.56Z"/><path class="cls-1" d="M31.39,201.62c-6.22,0-12.45,0-18.67,0-5.9,0-9.5-3.66-9.51-9.58q0-12.92,0-25.81c0-6,3.68-9.66,9.7-9.67q18.56,0,37.12,0c6.09,0,9.6,3.54,9.64,9.66,0,5.09,0,5.11,4.83,3.47,2.86-1,5.74-1.94,8.55-3a1.35,1.35,0,0,1,2,.64,1.52,1.52,0,0,1-.09,2.28c-4.69,5.14-9.31,10.36-14,15.5a4.14,4.14,0,0,0-1.29,3.35,44,44,0,0,1,0,4.45A8.56,8.56,0,0,1,51,201.59C44.43,201.68,37.91,201.61,31.39,201.62Zm38-30.29a3.75,3.75,0,0,0-.77-.07c-3.13,1.12-6.25,2.24-9.36,3.39-2.41.89-2.4.91-2.4-1.57s0-4.75,0-7.12c0-4-2.31-6.39-6.33-6.4q-19.11-.06-38.22,0c-3.79,0-6.11,2.34-6.12,6.08q-.06,13.47,0,26.92c0,3.79,2.47,6.21,6.29,6.22q19,0,38,0a6.05,6.05,0,0,0,6.37-6.21c0-1.85.07-3.71,0-5.56a3.79,3.79,0,0,1,1.1-3C61.75,179.89,65.48,175.69,69.4,171.33Z"/><path class="cls-1" d="M168,129.25l10-11.73a3.11,3.11,0,0,1,.31-.32c4.31-3.9,6.59-8.39,5.91-14.56-.51-4.64,3.7-8.36,8.46-8.37q22.09-.06,44.2,0a8.27,8.27,0,0,1,8.6,8.3q.2,14.12,0,28.22a8.35,8.35,0,0,1-8.73,8.43q-22,.06-44,0a8.57,8.57,0,0,1-8.71-8.73c0-1.62.53-3.89-.31-4.7s-3,.47-4.51.81C175.69,127.38,172.14,128.26,168,129.25Zm8.58-5.23a3.28,3.28,0,0,0,.62,0c2.73-.65,5.49-1.2,8.18-2,1.45-.43,1.64.05,1.61,1.3-.07,2.22-.06,4.45,0,6.67.09,4,2.45,6.36,6.41,6.36q21.45,0,42.89,0c4.08,0,6.45-2.42,6.47-6.53q0-13.12,0-26.24c0-4.23-2.24-6.52-6.44-6.53q-21.45-.06-42.89,0c-4.17,0-6.83,2.39-6.34,6.52a15.5,15.5,0,0,1-5.67,14.45,6.36,6.36,0,0,0-.88,1C179.26,120.75,177.58,122.07,176.54,124Z"/><path class="cls-1" d="M151.84,258.33H138.36a12,12,0,0,0,4.26-7.08c.31-1.86-.32-3.66-.3-5.52.05-8.07,0-16.14.06-24.22,0-1.68-.41-2.27-2.08-2-1,.12-1.94-.11-2.88,0-2.29.37-2.7-.76-2.68-2.76.06-5.51.1-5.63,5.58-5.63,4.14,0,8.29.11,12.43-.05,1.72-.06,2.2.7,2.34,2.12l.06.66c.51,5.62.51,5.7-5.09,5.59-1.91,0-2.28.58-2.29,2.37,0,9.32.31,18.65-.19,28C147.39,253.2,149,255.86,151.84,258.33Z"/><path class="cls-1" d="M181.19,45.16c5,0,9.93,0,14.89,0,1.31,0,1.79.27,1.77,1.7q-.12,11.12,0,22.24c0,1.36-.33,1.76-1.72,1.75q-15.1-.09-30.23,0c-1.11,0-1.53-.23-1.52-1.45.05-7.56.06-15.13,0-22.69,0-1.38.56-1.54,1.71-1.53C171.12,45.18,176.15,45.16,181.19,45.16Zm-12.3,2.39-.35.5c3.59,3.5,7.16,7,10.78,10.49a2.28,2.28,0,0,0,3.21.15c3.76-3.49,7.39-7.12,11.07-10.7l-.35-.44Zm-.32,20.36.29.49H194c-3.08-3-5.76-5.59-8.42-8.2-.61-.61-1-.23-1.46.19a4.68,4.68,0,0,1-6.09,0c-.79-.66-1.22-.44-1.83.15C173.66,63,171.11,65.45,168.57,67.91Zm26.28-1.24.46-.48V48.94c-3,3.07-5.52,5.72-8.09,8.35-.41.42-.62.74-.1,1.27C189.72,61.25,192.28,64,194.85,66.67Zm-28.16.12,8.44-8.46-8.44-8.62Z"/><path class="cls-1" d="M252.19,187.26c-1.77.43-2.23-.32-2.34-2-.66-9.84-9.19-18.19-19.12-18.91-.59,0-1.57.36-1.69-.53a9.73,9.73,0,0,1,.13-3.69c.13-.54,1.21-.25,1.83-.18,9.59,1.15,16.66,6,21,14.65a28.08,28.08,0,0,1,2.35,8.49C254.6,186.79,254.22,187.82,252.19,187.26Z"/><path class="cls-1" d="M244.19,187.31c-1.41.35-1.84-.34-2.08-1.92a13.13,13.13,0,0,0-11.65-11.32c-2.72-.36-1.29-2.14-1.47-3.28-.29-1.79,1.19-1,1.95-1a17.51,17.51,0,0,1,15.47,15.23C246.66,187.32,246.66,187.32,244.19,187.31Z"/><path class="cls-1" d="M233.3,187.3A4.37,4.37,0,0,1,229,183a4.33,4.33,0,1,1,4.35,4.35Z"/><path class="cls-1" d="M20.85,135.92a8,8,0,0,0-2.12,3.91c-.44,1.71-1.33,2.07-3,2-3.73-.14-3.71,0-2.46-3.55a22.08,22.08,0,0,1,7.15-10.48,6,6,0,0,1,3.9-1.32c3,0,6.07,0,9.11,0,1.16,0,2-.07,2.57-1.42s1-3.15,3.36-1.83c.73.4,1.37-.91,1-1.6-1.39-2.39-1.15-4.05,1.68-4.92a.79.79,0,0,0,.57-.86c-.06-.45-.51-.43-.84-.57-1.27-.54-1.77-3.61-.74-4.43.74-.59,3.18.73,3.53,1.94a2.06,2.06,0,0,1,.09,1.09c-.88,2.84.47,4.88,2.18,7a17.8,17.8,0,0,1,4,7.58,4.62,4.62,0,0,1-4.38,5.86,12.23,12.23,0,0,1-5-.68c-1.53-.54-1.85.06-1.68,1.4a2.26,2.26,0,0,1,0,.45c-.16,2,.91,4.76-.45,5.94-1.16,1-3.8.34-5.78.36-3.48,0-7-.12-10.44,0-1.94.1-2.47-.58-2.24-2.36A31.24,31.24,0,0,0,20.85,135.92Zm18.77-8.86A12.5,12.5,0,0,0,45,128.55a20,20,0,0,0-3.1-4.77Z"/><path class="cls-1" d="M30.22,108.39a7.82,7.82,0,0,1,8,7.78,7.91,7.91,0,0,1-15.82.07A7.81,7.81,0,0,1,30.22,108.39Z"/><path class="cls-1" d="M85.92,90.1c1.33-1.23,2.62-2.52,4-3.68a4.08,4.08,0,0,0,1.61-3.85c-.14-1.32,0-2.67,0-4,0-1,.08-1.63,1.39-1.62s1.5.52,1.43,1.6,0,1.88,0,3.43l5.78-5.77c.57-.58,1-1.21,1.9-.28,4.72,4.79,9.5,9.51,14.74,14.73-1.77,0-3,.08-4.15,0-1.34-.11-1.82.32-1.78,1.72.1,3,0,6.07.06,9.1,0,1.23-.13,1.82-1.63,1.81-4,0-4,.07-4-3.88,0-2.93,0-3-2.93-2.92-1.68,0-3.84-.72-4.91.32s-.37,3.24-.32,4.91c0,1.33-.47,1.55-1.66,1.56-3.94,0-3.94.07-3.94-3.89,0-2.37-.06-4.74,0-7.1,0-1.26-.37-1.73-1.64-1.63s-2.44,0-3.66,0Z"/><path class="cls-1" d="M43.41,183.78a4.07,4.07,0,0,1-4.29-4.11,4.22,4.22,0,1,1,8.44-.15A4.1,4.1,0,0,1,43.41,183.78Z"/><path class="cls-1" d="M15.55,179.65a4.25,4.25,0,0,1,4.15-4.31A4.29,4.29,0,0,1,24,179.55a4.09,4.09,0,0,1-4.18,4.23A4,4,0,0,1,15.55,179.65Z"/><path class="cls-1" d="M31.65,183.78a4.19,4.19,0,0,1-4.38-4.08,4.45,4.45,0,0,1,4.18-4.36,4.35,4.35,0,0,1,4.35,4.17A4.12,4.12,0,0,1,31.65,183.78Z"/><path class="cls-1" d="M215.51,129.85a13.25,13.25,0,0,1-13.16-13.35,13.3,13.3,0,1,1,26.6.29A13.22,13.22,0,0,1,215.51,129.85Zm-3.37-19.91v13.3l9.6-6.64Z"/></svg>