<svg id="_7--" data-name="7--" xmlns="http://www.w3.org/2000/svg" viewBox="0 0 196.44 124.58"><path d="M114.27,51.56a18,18,0,0,0,1,5.9L90,72H5.58a3.38,3.38,0,1,0,0,6.75H90.43a3.1,3.1,0,0,0,.81-.11,3.31,3.31,0,0,0,1.54-.43L118.65,63.3a18,18,0,1,0-4.38-11.74Zm18,10.64a10.64,10.64,0,1,1,10.64-10.64A10.64,10.64,0,0,1,132.24,62.2Z" transform="translate(-1.78 -33.59)" fill="#f2f2f2" opacity="0.4"/><path d="M131.82,123a18.1,18.1,0,0,0-13.59,6.1L92.36,114.47a8.4,8.4,0,0,0-2.28-.53h-85a3.31,3.31,0,0,0,0,6.61H89.61l25.25,14.26a17,17,0,0,0-1,5.77,18,18,0,1,0,18-17.59Zm0,28a10.41,10.41,0,1,1,10.64-10.41A10.52,10.52,0,0,1,131.82,151Z" transform="translate(-1.78 -33.59)" fill="#f2f2f2" opacity="0.4"/><path d="M180.25,108.85a18,18,0,0,0-14.64,7.41l-25.4-16.08a3.48,3.48,0,0,0-2-.51H23.85a3.38,3.38,0,1,0,0,6.75H137.43l25.33,16a17,17,0,0,0-.49,4,18,18,0,1,0,18-17.58Zm0,28a10.41,10.41,0,1,1,10.64-10.41A10.52,10.52,0,0,1,180.25,136.84Z" transform="translate(-1.78 -33.59)" fill="#f2f2f2" opacity="0.4"/><path d="M180.25,48.42a17.78,17.78,0,0,0-18,17.58,17.11,17.11,0,0,0,.85,5.34L137.26,86.27H23.85a3.38,3.38,0,1,0,0,6.75h114a3.35,3.35,0,0,0,2-.44l26.59-15.35a18.09,18.09,0,0,0,13.84,6.36,17.59,17.59,0,1,0,0-35.17Zm0,28A10.42,10.42,0,1,1,190.89,66,10.53,10.53,0,0,1,180.25,76.42Z" transform="translate(-1.78 -33.59)" fill="#f2f2f2" opacity="0.4"/></svg>