<svg id="Capa_1" data-name="Capa 1" xmlns="http://www.w3.org/2000/svg" viewBox="0 0 268.57 291.87"><defs><style>.cls-1{fill:#fff;}</style></defs><title>DISEÑOS UX UI</title><path class="cls-1" d="M109,232.79c19.26,0,38.1,0,56.94,0,2.24,0,2.43.49,1.52,2.58s-2.15,2.91-4.59,2.89q-23.85-.21-47.7,0c-2,0-3.38-.43-4.23-2.32A29.59,29.59,0,0,0,109,232.79Z"/><path class="cls-1" d="M49.84,238.2h-14c-1.57,0-4-3-3.65-4.43.31-1.2,1.37-1,2.23-1,5.72,0,11.44,0,17.16,0,4.81,0,9.63,0,14.45,0,1.29,0,1.72.09,1.11,1.59-1.55,3.8-1.46,3.84-5.56,3.84Z"/><path class="cls-1" d="M.05,141.75c2.87-.76,5.84-.61,8.76-.79,19.42-1.18,38.85-2.22,58.28-3.36q21-1.22,42-2.59c1.58-.1,2.3.26,2.83,1.86q14.72,44.3,29.62,88.55c.68,2,.81,3.51-.92,5a11.8,11.8,0,0,0-2.1,2.36c-.53.8-2.47,1.26-.49,2.86.66.53.44,2.67,0,3.88-.33,1-1.74.4-2.66.42-2.34.07-4.68,0-7,.05-1.14,0-1.55-.26-1.57-1.49-.07-3.48-.11-3.71,3.34-3.41a6.89,6.89,0,0,0,6.71-3c1.06-1.44,2.32-2.75,3.5-4.13-.68-.63-1.39-.36-2-.37-7-.08-13.89-.18-20.83-.12-1.48,0-2-.38-2.34-1.8q-4.77-22.27-9.64-44.51c-.94-4.34-1.91-8.66-2.77-13-.31-1.55-1-2-2.59-1.92-16,.93-31.93,1.78-47.9,2.64a13.73,13.73,0,0,1-2.71.11c-5.26-.79-9,1.68-12.38,5.36-.94,1-.26,1.65.1,2.36,3.79,7.34,7.62,14.66,11.43,22q6.82,13.08,13.62,26.18c.29.57.85,1.09.68,1.74-6.88,0-13.74-.31-20.55.12-4.23.26-6-1.24-7.65-5.06-11-25.73-22.25-51.35-33.47-77-.23-.52,0-1.81-1.29-1.47Z"/><path class="cls-1" d="M268.52,239.09c-8.78,4.78-18.37,3.44-27.71,3.39-12.9-.07-25.76-1.1-38.62-2.06-5.48-.41-11-1-16.44-1.37a2.34,2.34,0,0,1-2.18-1.64,1.44,1.44,0,0,0-1.18-1.1c-5.51-1.17-11-2.41-16.5-3.64-.75-.17-1.57-.39-2.08.34a1.79,1.79,0,0,0,.16,2.25c.84,1.2.29,2.64.35,4,0,.75-.65.69-1.17.69-3,0-6,0-9.05,0-.87,0-1.13-.3-1.22-1.16-.33-3.32-.08-3.74,2.85-3.9a4,4,0,0,0-1.44-2.71,18,18,0,0,1-3.32-4.69c-.71-1.44,0-2.94,1-4.18a16.69,16.69,0,0,1,4.89-4c.93-.53,1.31-1,.88-2.12-.7-1.81-1.22-3.69-1.91-5.81-3,3.76-5.86,7.3-8.73,10.81a1.11,1.11,0,0,0-.19,1.23c.93,2.23-1,2.59-2.22,3.17s-1-.74-1.17-1.32q-4.16-12.27-8.25-24.54-10.86-32.44-21.7-64.87c-.07-.21-.13-.42-.26-.85,4.58-.21,9,.23,13.51.33,1.14,0,1.2,1,1.37,1.75Q132.7,158,137.23,179c.73,3.37,1.47,6.74,2.32,10.62l6.19-11c.88-1.57,1.8-3.13,2.6-4.74,4.59-9.27,12.22-14.3,22.17-16.41,3.06-.65,6.2-.26,9.21-1.23,2.79-.9,3.89-2,4.05-4.69,0-.77.08-1.39-1-1.14-6.62,1.53-11.29-1.87-15.48-6.26a40.74,40.74,0,0,1-7.22-11.36,83.63,83.63,0,0,1-6.13,6.76c-3,3.32-3.28,6.13-1.09,10.08.4.73,1.41,1.55.29,2.31-.87.59-1.49-.38-2.07-.9a11.18,11.18,0,0,1-2.34-13.8,29.79,29.79,0,0,1,3.06-4.45,40.51,40.51,0,0,0,3.41-4.76,8,8,0,0,0,.85-6.84,72.53,72.53,0,0,1-2.92-19.6,2.89,2.89,0,0,0-1.1-2.46c-6-5.2-6.24-11.05-.36-16.34,5.25-4.7,10.34-9.69,17.48-12.46-3.31-1.19-6.22-2.34-8.64-4.49-5.19-4.62-4.37-12.57,1.66-14.87a12.35,12.35,0,0,1,8.64-.12c1.22.43,1.75.33,2.41-.91a4.61,4.61,0,0,1,6.64-1.7c1.21.7,1.76.33,2.68-.31,5.63-3.88,13.6-2.83,16.91,2.38a22.85,22.85,0,0,1,3.28,7.12c.24,1.06.34,1.38,1.66,1.14,5.94-1.1,12.66.72,15.22,7.12a1.4,1.4,0,0,0,.85.91c3.64,1.55,4.83,4.6,3.36,8.42a8.57,8.57,0,0,1-5.21,5c-.53.2-1.44,0-.93,1.22,2,4.76,1.45,9.65.09,14.39-1.08,3.76-.77,7.39-.31,11.16a29.27,29.27,0,0,1-2.37,16.67,2,2,0,0,0,0,2.26c6,9.75,2.09,17.35-5.05,23.39a13.1,13.1,0,0,1-1.53.95c-.48.31-.85.09-1.2-.24s-.16-.85.11-1.19c.51-.65,1.1-1.24,1.63-1.88,3.36-4.07,6-10.43,2.43-16.27-.68-1.11-1.07-1.75-2.16-.42a10.46,10.46,0,0,1-2.21,1.93c-3.29,2.29-4.55,5.58-4.66,9.41-.06,2.19-.09,4.38,0,6.57a5.39,5.39,0,0,0,5.56,5.54,13.53,13.53,0,0,1,4.6,1,85.41,85.41,0,0,1,20.17,10.87,32.4,32.4,0,0,1,7.17,8.09c8.88,13,15.43,27.3,21.34,41.86a112.41,112.41,0,0,1,6.38,19.43c.09.41,0,1.17.85.66ZM198.23,135.3c-.26.36-.54.71-.76,1.09-2.73,4.63-5.67,9.1-10.31,12.08a2.87,2.87,0,0,0-1.6,2.64c-.09,2.37-.47,4.75-3,5.91a23,23,0,0,1-4.05,1.36c-4.17,1-4.32,1.19-3.87,5.6,0,.45.07.9.14,1.35.52,3.49,2.75,6.16,5.82,6.66a13.32,13.32,0,0,0,6.05-.26c8.47-2.55,14.14-8.53,19-15.51.9-1.29-.27-1.42-.87-1.69-3.15-1.46-4.33-4-4.23-7.3.05-1.83,0-3.66,0-5.86a46.63,46.63,0,0,1-6.63,6.21c-.51.38-1.15,1.3-1.9.43s.17-1.35.63-1.88c2.68-3.11,4.95-6.43,5.89-10.51.17-.34.35-.67,0-1Zm-52,85.34c1.9-2.41,3.4-4.56,5.15-6.47,2.62-2.84,3.85-5.72,3.23-9.86-.87-5.78,1.19-11.29,3.61-16.53.4-.85.31-2.81,1.93-2.08,1.34.61.12,1.88-.26,2.71a34.92,34.92,0,0,0-3.63,15.67c.11,4.55,2.06,8.59,3.3,12.83.31,1.05,1.1.41,1.67.19a12.79,12.79,0,0,1,9.46.27,36,36,0,0,1,7.15,3.8,28,28,0,0,0,6.87,3.33c.48.16,1.12.71,1.61,0,1-1.51,2.58-1.3,4.07-1.3,8.83,0,17.66,0,26.48.08,1.47,0,2.23-.16,2.49-1.92a45.14,45.14,0,0,1,2-7.15c2.82-8.57,2.74-16.85-2.12-24.75-.41-.65-.85-1.42.16-1.89s1.19.45,1.48,1c1.13,2.11,1.94,4.42,3.31,6.36,6.23,8.86,12.41,17.76,18.26,26.89.73,1.14,2.43,2.4,1.72,3.62s-2.78.49-4.2.39c-16.28-1.09-32.57-.68-48.86-.77-.88,0-1.37.06-1.28,1.19a21.42,21.42,0,0,1-2.34,11.15c4.72.41,9.29.85,13.85,1.2,12.78,1,25.57,1.78,38.39,2.15,7.09.2,14.2.37,21.22-.76,6.77-1.1,6-1.18,4.55-6.75-3.77-14.38-9.95-27.81-16.63-41-3.67-7.25-7.52-14.43-12.71-20.72-7-8.46-16.89-12.25-26.73-16-1.13-.43-1.45.49-1.86,1.16a46.66,46.66,0,0,1-8.77,10.28,27.31,27.31,0,0,1-12.52,6.82c-7.59,1.61-12.65-1.95-13.35-9.61-.16-1.7,0-3.42,0-5.27-5.73,1.46-11.38,2.74-15.9,6.74-4.15,3.67-6.6,8.53-9.27,13.24-2.37,4.17-4.39,8.54-7.29,12.4-.48.64-.2,1.1-.09,1.66.8,3.82,1.57,7.65,2.39,11.47C143.82,209.62,145,214.88,146.22,220.64Zm50-121.19c0-.83,0-1.66,0-2.49a5.43,5.43,0,0,0-4.75-5.46,16.58,16.58,0,0,0-10.38,1,22.43,22.43,0,0,1-15.64,1A26.3,26.3,0,0,0,157,92.39c-1.09,0-1.54.36-1.68,1.55a77.35,77.35,0,0,0-.39,9.26c0,1.37.28,2.08,1.89,1.9,2.54-.29,4.89.6,7.21,1.5.69.27,1.58.59,1.28,1.56s-1.14,1-2,.67a29.16,29.16,0,0,0-6.36-1.42c-1.39-.14-1.7.32-1.5,1.61a91.58,91.58,0,0,0,2.69,13c2.53,8.25,5.62,16.22,12,22.43s13.29,6,19.39-.22c4.38-4.5,7.2-10,9.92-15.53a2.91,2.91,0,0,0,.26-1.52,75.89,75.89,0,0,0-1.11-11.46C197.39,110.36,196.12,105,196.23,99.45ZM158.28,234.18c.93-5.8,2.39-7.51,7.14-8.25,1-.16,2.51-1,2.74.43.26,1.59-1.52,1.21-2.51,1.36-3.43.53-5.52,2.77-5.33,5.85,0,.58-.11,1.34.78,1.35s.51-.74.6-1.19c.53-2.64,1.63-3.35,4.26-2.91,5.26.88,10.32,2.76,15.63,3.32,1.74.19,3.83,2.12,5.23-.07,1-1.59,1.12-3.71,1.19-5.69,0-.84-.22-1.24-1.06-1.38-4.25-.68-7.87-2.78-11.41-5.12a20.36,20.36,0,0,0-8.17-3.61c-6.05-.86-10.23,2.64-14.2,6.43-.68.66-.56.82-.21,2.48,1.71-3.39,4.6-5.2,7.88-6.47.72-.27,1.82-1.21,2.33.06s-.86,1.3-1.6,1.57a12.32,12.32,0,0,0-5.87,4c-.87,1.15-1.9,2.45-.68,4.07,2.47-4.65,5.28-7,9.46-7.88.86-.19,2-.68,2.36.46.38,1.33-1,1.2-1.81,1.37a11.3,11.3,0,0,0-7.19,4.67C156.5,231,156.73,232.8,158.28,234.18Zm66.83-34.38c.54,5.45-.81,10.58-2.31,15.69-.57,1.94-1,3.92-1.64,5.85-.52,1.63,0,2.13,1.63,2a32.44,32.44,0,0,1,4.29.15c4.75.3,9.51,0,14.71.63C236.32,215.55,230.91,207.62,225.11,199.8ZM158.9,58.74a7.4,7.4,0,0,0,3.59,6.42c4.12,2.7,8.35,5,13.64,3.36,2.39-.72,3.05-2,1.45-4.1-.23-.29-.49-.57-.74-.85-2.27-2.69-4.05-5.61-4.32-9.22a1.52,1.52,0,0,0-1.17-1.43,11.6,11.6,0,0,0-8.16-.36A6,6,0,0,0,158.9,58.74Zm54.4,64c1.64-2.67,2.14-4.59,1.82-6.91a4.45,4.45,0,0,0-6.92-3.27c-1.47,1.06-1.88,2.23-.5,3.75C209.57,118.38,211.35,120.51,213.3,122.76ZM196.75,50c-4.12-3.23-10.16-3.19-13.52-.39-1.38,1.14-.1,1.83.2,2.65.48,1.27,1.08.18,1.5-.09A14.49,14.49,0,0,1,196.75,50Zm19.19,28.73c4.39-1.06,6.33-2.91,6.5-6,.09-1.7.14-3.5-2.22-4.2C220.19,72.43,218.46,75.55,215.94,78.75Zm-10.88,52.33c5.08-3.74,5.76-3.19.43-8.05C205.35,125.67,205.22,128.21,205.06,131.08ZM177.47,49.37c-1.66.12-3.27,1-2.93,2.42.26,1.09,2.09,1.82,3.23,2.7.65-1.27,1.66-2.5,1.86-3.85C179.79,49.58,178.29,49.61,177.47,49.37Zm-3,5.37a12,12,0,0,0,4,7.56C177.92,59.3,178.5,55.9,174.47,54.74ZM181,52c-.68,1.73-1.7,3.12-.79,5C181.81,55.55,183,54.21,181,52Z"/><path class="cls-1" d="M106.3,227.68c2.85,2.29,5.72,4.57,8.56,6.9a2.72,2.72,0,0,0,1.93.38c2.26,0,4.52.07,6.78,0s1.61,1.65,1.72,2.85.2,2.24-1.62,2.15c-2.71-.13-5.43-.09-8.14,0-1.23,0-1.94-.26-1.68-1.6.34-1.82-.57-2.9-1.95-3.9a44.81,44.81,0,0,1-5.64-4.49c-2.3-2.33-5-2.95-8.11-2.94-10.32,0-20.65-.13-31-.14a2.4,2.4,0,0,1-2.5-1.56q-12.3-23.79-24.75-47.51c-.93-1.76-.31-1.93,1.27-2q17.5-.74,35-1.56c4.51-.21,9-.4,13.53-.72,1.56-.12,2.31.14,2.84,1.86q7.64,24.94,15.53,49.82C108.67,227,108.18,227.55,106.3,227.68Z"/><path class="cls-1" d="M110.05,246.26H67.76c1.27-3.57,2.49-7,3.72-10.47.27-.77.58-1.54.85-2.31,1.82-5.14,1.82-5.16,7.17-5.1,5.88.06,11.76.17,17.63.25.75,0,1.5-.1,2,.68C102.73,234.91,106.34,240.5,110.05,246.26Z"/><path class="cls-1" d="M113.63,227.11c-2.19.66-3.11-.07-3.8-2.3-5.06-16.66-10.28-33.26-15.52-49.86-.48-1.54-.28-2.42,1.19-3.18,1.79-.93,3.45-2.08,5.38-3.27C105.16,188.19,109.4,207.65,113.63,227.11Z"/><path class="cls-1" d="M97.49,168.11c-2.91,2.84-6.32,3.61-10.23,3.75-15.06.53-30.12,1.35-45.17,2-.38,0-.75,0-1.43,0C42,172.36,43,171.09,45.15,171c12.65-.63,25.29-1.38,37.93-2.08Z"/><path class="cls-1" d="M145.62,239.92a28.81,28.81,0,0,1-2.94,0c-.9-.09-2.26.59-2.62-.46a9.34,9.34,0,0,1,0-3.8c.08-.76.88-.68,1.48-.68,2.71,0,5.42,0,8.13,0s1.4,1.94,1.62,3.12,0,2.05-1.59,1.88A36.62,36.62,0,0,0,145.62,239.92Z"/><path class="cls-1" d="M41.44,239.92c-1,0-1.95,0-2.92,0s-2.29.45-2.51-.22a10.4,10.4,0,0,1-.09-4c.06-.75.82-.75,1.43-.75,2.78,0,5.56-.08,8.34,0s1.17,2.23,1.48,3.44c.36,1.38-.52,1.59-1.67,1.52C44.15,239.86,42.79,239.92,41.44,239.92Z"/><path class="cls-1" d="M54.42,239.92c-.9,0-1.81,0-2.71,0-3.15-.08-2.71.67-2.84-2.89-.06-1.52.32-2.18,2-2.1,2.55.13,5.12,0,7.69,0s1.45,2,1.72,3.3c.31,1.47-.45,1.79-1.77,1.68S55.78,239.92,54.42,239.92Z"/><path class="cls-1" d="M69.77,235l-.38.94c-1.5,4.21-1.5,4.14-6.08,4.05-1.39,0-1.75-.59-1.53-1.74s-.87-3.14,1.55-3.24C65.42,234.9,67.53,235,69.77,235Z"/><path class="cls-1" d="M105,235h4c3.25,0,4,1,3.3,4.19-.13.53-.31.86-.85.76-1.25-.24-2.76.69-3.74-.7S106.07,236.61,105,235Z"/><path class="cls-1" d="M180.42,132.69c2.07.18,4,.08,5.68-1.48.49-.46,1.21-.83,1.74-.08s-.05,1.21-.59,1.5c-2.18,1.17-3.27,3.23-4.46,5.24a8.76,8.76,0,0,1-3.57,3.62,5.12,5.12,0,0,1-5.71-.43c-1.15-.8-2.1-1.89-3.61-2.2-.77-.16-1.21-1.18-.42-1.46,2.14-.75,2.89-3.14,5.32-3.77C176.69,133.14,178.44,132.47,180.42,132.69Zm-7.8,6.07a4.32,4.32,0,0,0,4.13,1.6c2.67-.4,4.49-1.92,5.9-4.72C179.29,137.14,176.34,138.51,172.62,138.76Zm9.08-4.53a7.6,7.6,0,0,0-3.74-.3c-1.29.12-1.83,1.26-2.8,1.7s-2.46-.21-2.89,1.55C175.7,137.41,178.53,135.92,181.7,134.23Z"/><path class="cls-1" d="M189.43,106.65c-.14.67-.56.58-1,.5a20.68,20.68,0,0,0-11.31.91c-.79.3-1.8.44-2.17-.53s.55-1.35,1.33-1.69a16,16,0,0,1,11.2-.78C188.59,105.41,189.47,106.18,189.43,106.65Z"/><path class="cls-1" d="M170.73,115.87a18.45,18.45,0,0,1,.63,7.69c-.3,1.9.34,2.63,2.22,2.35a4.67,4.67,0,0,1,1,.11c-.58,1.18-1.71,1.36-2.57,1.76-1.65.79-2.77.08-2.6-1.71C169.73,122.66,170.28,119.27,170.73,115.87Z"/><path class="cls-1" d="M159.52,111.58a26.69,26.69,0,0,1,3.41-.58c1.46,0,1.87,1.06,1.94,2.26.08,1.41.27,3-1.42,3.65-.85.33-1.47-.32-1.69-1.06C161.3,114.31,161.53,112.44,159.52,111.58Z"/><path class="cls-1" d="M178.33,113.43c0-1.19,0-2.42,1.06-2.71a8.82,8.82,0,0,1,3.76,0c.65.12.27.81-.21,1.16s-1.3.49-1.12,1.6.15,3-1.48,3C178.46,116.49,178.49,114.65,178.33,113.43Z"/></svg>