<svg xmlns="http://www.w3.org/2000/svg" viewBox="0 0 268.57 291.87"><defs><style>.cls-1{fill:#fff;}</style></defs><title>DESARROLLO WEB</title><g id="Capa_3" data-name="Capa 3"><path class="cls-1" d="M242.27,148c0,2.1,0,2.1-2.08,2.1H109.45c-.56,0,0,1-.59,1,0,0-.22.47-.23.47.18.68-.6-.15-.56.43a1.66,1.66,0,0,0,1.69,1.57h0q25.36,0,50.73,0h80.91c3.46,0,4.5-1,4.5-4.53v-19.1c-1.2-.17-2.42-.42-3.66-.72Z"/><path class="cls-1" d="M255.7,65.76A2.73,2.73,0,0,0,253,63q-85.53,0-171,0a2.72,2.72,0,0,0-2.73,2.73q0,36.06,0,72.11a1.65,1.65,0,0,0,.22.84c1.2,2,2.67,2.49,4.89,1.68a20.13,20.13,0,0,1,4.81-1.23,3.44,3.44,0,0,0,3.41-3.45c0-.55,0-1.11,0-1.67q0-28.32,0-56.64c0-1.93,0-1.93,1.87-1.93h146c1.8,0,1.8,0,1.8,1.86v3c1.22-.15,2.44-.29,3.66-.4V76.47c0-3.38-1.12-4.5-4.44-4.5H93.41c-3.35,0-4.49,1.13-4.49,4.44q0,28.71,0,57.41c0,1.33-.3,1.91-1.68,2.05a17,17,0,0,0-3.47.89c-.7.22-1,0-1-.68,0-.34,0-.68,0-1q0-33.21,0-66.4c0-2,0-2,2-2H250.09c1.94,0,1.94,0,1.94,2V79.86a22.13,22.13,0,0,1,3.67.61Z"/><path class="cls-1" d="M252,130.38v26.41c0,2.06,0,2.07-2,2.07H102.88c-2.95,1.27-6.71,2-10.07,3.14.24.16.5.31.78.46q79.69,0,159.38,0a2.72,2.72,0,0,0,2.73-2.73q0-14.66,0-29.33C254.45,130.42,253.23,130.41,252,130.38Z"/><path class="cls-1" d="M136,64.57a2.09,2.09,0,0,1-.69-.12A2,2,0,0,1,134,62.57V13a6.55,6.55,0,0,1,6.54-6.53h43.59A6.55,6.55,0,0,1,190.69,13v27.7a6.56,6.56,0,0,1-6.54,6.54H151.6l-14,16.66A2,2,0,0,1,136,64.57Zm4.53-55.06A3.46,3.46,0,0,0,137.1,13V59.61l13.07-15.5h34a3.46,3.46,0,0,0,3.45-3.45V13a3.46,3.46,0,0,0-3.45-3.45Z"/><path class="cls-1" d="M68.26,75.17a2,2,0,0,1-1.52-.71l-14-16.66H20.14a6.56,6.56,0,0,1-6.54-6.54V23.57A6.55,6.55,0,0,1,20.14,17H63.73a6.54,6.54,0,0,1,6.53,6.54v49.6A2,2,0,0,1,69,75.05,2.09,2.09,0,0,1,68.26,75.17ZM20.14,20.11a3.46,3.46,0,0,0-3.46,3.46V51.26a3.46,3.46,0,0,0,3.46,3.46h34L67.18,70.21V23.57a3.46,3.46,0,0,0-3.45-3.46Z"/><path class="cls-1" d="M197.57,154.5a2.19,2.19,0,0,1-.75-.13,2.12,2.12,0,0,1-1.4-2V87.48a8.08,8.08,0,0,1,8.07-8.07h57a8.08,8.08,0,0,1,8.07,8.07V123.7a8.08,8.08,0,0,1-8.07,8.08H217.71l-18.52,22A2.09,2.09,0,0,1,197.57,154.5Zm5.92-72a5,5,0,0,0-5,5v62.3l17.78-21.08H260.5a5,5,0,0,0,5-5V87.48a5,5,0,0,0-5-5Z"/><path class="cls-1" d="M27.32,43.16l1.73-1.27-.15-.28H26.57V32.68h2.55l-1.7-1.79,6.39-6.36,1.36,1.67.27-.13V23.78h9v2.27l.23.15L46,24.4,52.62,31l-1.79,1.38.15.25h2.33v8.9H50.76l1.71,1.82-6.34,6.22L44.47,48v2.42h-9V48l-1.75,1.68ZM41.46,47.5v-.85c0-2.27,0-2.28,2.21-3a.91.91,0,0,1,.8.16C45,44.37,45.54,45,46,45.6l2.2-2.26-.43-.46c-1.61-1.65-1.62-1.66-.62-3.76a1.09,1.09,0,0,1,.75-.49c.8-.07,1.6,0,2.38,0V35.53c-1.92.42-3.48.22-3.84-2.06,0,0,0,0,0-.08.05-.27,0-.64.18-.81.58-.56,1.22-1.06,1.87-1.6-.38-.42-.56-.61-.72-.8l-1.32-1.57c-.38.34-.58.5-.76.68-1.58,1.57-1.58,1.56-3.63.69a.79.79,0,0,1-.61-.89c0-.77,0-1.55,0-2.32h-3c0,.82,0,1.58,0,2.33a1,1,0,0,1-.31.71,12.25,12.25,0,0,1-2.09.86,1,1,0,0,1-.72-.29c-.56-.54-1.07-1.13-1.62-1.73L31.59,30.8c.18.2.34.39.52.57,1.6,1.62,1.58,1.61.68,3.7a.83.83,0,0,1-.93.56c-.75,0-1.5,0-2.31,0v2.93c.28,0,.51,0,.73,0,2.34,0,2.35,0,3.14,2.19a1,1,0,0,1-.17.87c-.56.58-1.2,1.08-1.72,1.55l2.15,2.24c.19-.18.39-.35.57-.53,1.57-1.56,1.57-1.56,3.63-.63l.08,0c.17.26.46.51.48.79.07.77,0,1.55,0,2.38Z"/><path class="cls-1" d="M40,41.57a4.46,4.46,0,0,1-.07-8.91A4.46,4.46,0,1,1,40,41.57Zm-.06-3a1.51,1.51,0,0,0,1.52-1.37A1.54,1.54,0,0,0,40,35.64a1.52,1.52,0,0,0-1.51,1.47A1.48,1.48,0,0,0,39.9,38.58Z"/><path class="cls-1" d="M150.77,31.79l1.72-1.27-.15-.28H150V21.31h2.55l-1.7-1.79,6.39-6.36,1.36,1.67.27-.13V12.41h9v2.27l.23.15,1.35-1.8,6.62,6.62L174.27,21l.15.25h2.33v8.9H174.2L175.91,32l-6.34,6.22-1.66-1.56v2.42h-9V36.59l-1.75,1.67Zm14.13,4.34v-.85c0-2.27,0-2.28,2.21-3a.94.94,0,0,1,.8.16c.57.58,1.07,1.22,1.56,1.8l2.2-2.25-.43-.47c-1.61-1.65-1.62-1.65-.62-3.75a1.07,1.07,0,0,1,.75-.5c.8-.07,1.6,0,2.38,0V24.16c-1.92.43-3.48.22-3.84-2.05,0,0,0-.06,0-.09.05-.27,0-.64.18-.8.58-.57,1.22-1.07,1.87-1.61-.38-.42-.56-.61-.72-.8l-1.32-1.57c-.38.34-.58.51-.76.69-1.58,1.56-1.58,1.55-3.63.68a.79.79,0,0,1-.61-.89c0-.77,0-1.55,0-2.32h-3c0,.83,0,1.58,0,2.33a1,1,0,0,1-.31.72,13.08,13.08,0,0,1-2.09.85.91.91,0,0,1-.72-.29c-.56-.54-1.07-1.13-1.62-1.72L155,19.43c.18.2.34.4.52.58,1.6,1.61,1.58,1.6.68,3.69a.84.84,0,0,1-.93.57c-.75,0-1.5,0-2.31,0v2.93c.28,0,.51,0,.74,0,2.33,0,2.34,0,3.13,2.19a1,1,0,0,1-.17.87c-.56.58-1.2,1.09-1.72,1.55l2.15,2.24c.19-.18.39-.35.57-.53,1.58-1.56,1.57-1.56,3.63-.63l.08,0c.17.26.46.51.48.79.07.77,0,1.55,0,2.38Z"/><path class="cls-1" d="M163.4,30.2A4.4,4.4,0,0,1,159,25.79a4.45,4.45,0,0,1,4.38-4.5,4.52,4.52,0,0,1,4.53,4.47A4.47,4.47,0,0,1,163.4,30.2Zm-.06-3a1.54,1.54,0,0,0,1.53-1.38,1.56,1.56,0,0,0-1.43-1.57,1.52,1.52,0,0,0-1.51,1.48A1.49,1.49,0,0,0,163.34,27.22Z"/><path class="cls-1" d="M101.89,121.6h0v0Z"/><path class="cls-1" d="M102,121.35h0s0,0,0,0S102,121.34,102,121.35Z"/><path class="cls-1" d="M101.94,121.35v0h0s0,0,0,0Z"/><path class="cls-1" d="M78.22,127.89a34,34,0,0,0-.41,5.25,5.42,5.42,0,0,0,1.7.19h0c-.11-.33-.22-.66-.32-1A12.46,12.46,0,0,1,78.22,127.89Z"/><path class="cls-1" d="M101.88,121.52h0v0h0v0h0Z"/><path class="cls-1" d="M101.93,121.36c-.06,0,0,0,0,0Z"/><path class="cls-1" d="M100.3,122.62a2.14,2.14,0,0,1,0-2.2,2,2,0,0,1,.82-.77,5.89,5.89,0,0,1,1.08-.34c.59-.17,1.14-.46,1.74-.57a2.61,2.61,0,0,1,2.18.49,3.35,3.35,0,0,1,.87,3.16,3.25,3.25,0,0,1-.72,1.59,1.72,1.72,0,0,1-2.06.45,2.06,2.06,0,0,1-1.06-1.72,3.84,3.84,0,0,1,.08-1.07,2,2,0,0,0,0-.24.91.91,0,0,1-.2-.39l-.17.06c-.24.08-.5.13-.75.2l-.08,0-.1,0,0,0h0l0,0a.29.29,0,0,1,0,.09v0a.2.2,0,0,1,0,.07v0h0l0,0a.95.95,0,1,1-1.63,1Z"/><path class="cls-1" d="M78.33,127.3h0Z"/><path class="cls-1" d="M13.73,120c-1.26,3-1.53,7.9,2.28,9.14a11.16,11.16,0,0,0,7,0,15.72,15.72,0,0,1,.28-15.35,16.72,16.72,0,0,0,1.57-3.35A33.75,33.75,0,0,1,21,112.9C18,114.68,15.15,116.6,13.73,120Z"/><path class="cls-1" d="M27.62,134.09h0a13.68,13.68,0,0,0,.32,2.73,4.23,4.23,0,0,0,2.36,2.72A12.84,12.84,0,0,0,33.64,141,8.88,8.88,0,0,0,42,138.75c-.81-1.06-1.6-2.14-2.35-3.24A13.64,13.64,0,0,1,27.62,134.09Z"/><path class="cls-1" d="M101.89,121.58v0h0v0Z"/><path class="cls-1" d="M105,110.26c-.63.87-1.27,1.73-1.92,2.59h0C103.76,112,104.4,111.13,105,110.26Z"/><path class="cls-1" d="M19.2,209.86,8.32,222.64C5.49,226,2.49,229.37.92,233.51s-.95,8.55.89,12.62a54.58,54.58,0,0,0,3.38,6.19,11.42,11.42,0,0,0,4.33,4.39c1.08.55,2-1.08,1-1.63a10.46,10.46,0,0,1-4-4.34,55.23,55.23,0,0,1-3-5.56,14.11,14.11,0,0,1,0-12.81c2-3.83,5-7,7.78-10.29l9.26-10.89C21.32,210.27,20,208.93,19.2,209.86Z"/><path class="cls-1" d="M101.59,123a1,1,0,0,0,.34-1.3l0,0h0v0h0v0h0v0h0v0a.29.29,0,0,0,0-.09l0,0h0v0h0s0,0,0,0,0,0,0,0l.1,0,.08,0c.25-.07.51-.12.75-.2l.17-.06a.91.91,0,0,0,.2.39,2,2,0,0,1,0,.24,3.84,3.84,0,0,0-.08,1.07,2.06,2.06,0,0,0,1.06,1.72,1.72,1.72,0,0,0,2.06-.45,3.25,3.25,0,0,0,.72-1.59,3.35,3.35,0,0,0-.87-3.16,2.61,2.61,0,0,0-2.18-.49c-.6.11-1.15.4-1.74.57a5.89,5.89,0,0,0-1.08.34,2,2,0,0,0-.82.77,2.14,2.14,0,0,0,0,2.2A1,1,0,0,0,101.59,123Zm.3-1.36h0v0Zm0-.24h0S101.87,121.39,101.93,121.36Z"/><path class="cls-1" d="M101.9,121.59a.2.2,0,0,0,0-.07v.07Z"/><path class="cls-1" d="M101.94,121.37l0,0h0S102,121.36,101.94,121.37Z"/><path class="cls-1" d="M58.51,255.2c-2.09-1.69-3.14-3.32-3-6.14.17-2.58.7-5.1.82-7.69a55,55,0,0,0-.33-8.7c-1.31-11.49-5.59-22.35-9.88-33-.45-1.12-2.28-.63-1.82.5,2.34,5.82,4.72,11.74,6.58,17.78-8,8.23-16.57,16.89-28.27,19.1-1.2.23-.69,2,.5,1.83a34.28,34.28,0,0,0,9.54-3.39c1.38,4.42,4.38,7.73,8,10.56a29.3,29.3,0,0,0,12,5.83.94.94,0,0,0-.35.92c.51,2.73-.58,5.39-1.44,7.94l-2.69,7.95q-2.62,7.8-5.27,15.6c-.39,1.16,1.44,1.65,1.83.5L50.48,268c.92-2.74,1.86-5.48,2.77-8.22a16.12,16.12,0,0,0,1.09-6.51A7.31,7.31,0,0,0,56,255.51c1.43,1.35,3.49,2.37,4.07,4.37a1,1,0,0,0,1.83-.5C61.31,257.53,60,256.38,58.51,255.2Zm-4.1-12.66c-.17,2.5-.82,5-.78,7.52v.08a27.12,27.12,0,0,1-11.47-5.35c-3.56-2.71-6.54-5.87-7.78-10.24,6.44-3.75,12-9.17,17.16-14.52a75.41,75.41,0,0,1,2.73,13.8A52.78,52.78,0,0,1,54.41,242.54Z"/><path class="cls-1" d="M133.36,209.24c-1.26-7-1.94-14.22-3.82-21.14-1.45-5.37-3.83-10.94-8.45-14.33-4.25-3.12-10.41-3.83-14.78-.73-3.56.72-6.72,0-11.44-.61A8.3,8.3,0,0,1,93,162.65l.23-.38c1.79-.06,3.59-.12,5.38-.23,2.12-.13,4.47-.53,6-2.21s1.45-4,3-5.47c.72-.72,1.67-1.2,2-2.26a2.25,2.25,0,0,0-.32-1.89,9,9,0,0,0,1.94-1.76,3,3,0,0,0,.76-1.5,2.48,2.48,0,0,0-.6-1.64,4.19,4.19,0,0,1-.34-3.2c.28-1.32.73-2.6,1.12-3.89a.83.83,0,0,0-.11-.75,11.65,11.65,0,0,0,3.83-2.82c1-1.14,1.84-2.45,1.13-4s-2.61-2.73-3.79-4.11c-4.88-5.66-.5-13.64-3.36-20.09.13-.21.26-.42.38-.63,3.45-6.22,5.18-13.93,1.67-20.5-3.37-6.32-10.21-9.8-17-11-5.3-.93-13.11-1.58-17.23,2.65a.88.88,0,0,0-.66-.07,33.54,33.54,0,0,0-3.38,1A26.17,26.17,0,0,0,52,81.27a24.25,24.25,0,0,0-4.21,3.49c-1.33,1.38-2.31,3.16-3.81,4.36-1.79,1.43-4.31.35-6.42.52a14.14,14.14,0,0,0-5.51,1.6,13.72,13.72,0,0,0-6.89,9.12,20.9,20.9,0,0,0,0,6.65,8.42,8.42,0,0,1,0,1,25.08,25.08,0,0,1-5.58,3.88c-2.66,1.56-5.11,3.33-6.67,6.06a11.25,11.25,0,0,0-1.3,8.74c1,3.09,3.63,4.19,6.66,4.45a11.86,11.86,0,0,0,5.49-.68,14.06,14.06,0,0,0,2.24,2.47c0,.05,0,.1,0,.16a14.11,14.11,0,0,0,.49,4.71,5.54,5.54,0,0,0,2.54,2.86,14.5,14.5,0,0,0,4.12,1.88A10.54,10.54,0,0,0,43,140a68,68,0,0,0,5.3,5.95c3.13,3.09,6.81,6.77,11.25,7.77l.23,0a6.56,6.56,0,0,1-1.5,3.55,21.6,21.6,0,0,0-2.18,2.31,2.45,2.45,0,0,0,.15,2.91c.66.77,1.77-.35,1.11-1.12s.67-1.64,1.07-2a9.56,9.56,0,0,0,1.91-2.34c.1-.19.2-.38.29-.57l0,.16a.79.79,0,0,0,.55,1,.8.8,0,0,0,1-.55,9.08,9.08,0,0,0,.22-2.26,18.25,18.25,0,0,1,1.11,15.67,72.1,72.1,0,0,1-14.34,5.75,23.11,23.11,0,0,0-5.88,2.49,19.33,19.33,0,0,0-4.69,4.6c-5.63,7.33-8.71,16.49-15.65,22.82-.9.82.44,2.15,1.34,1.33,6.69-6.1,9.86-14.76,15.05-22a19.11,19.11,0,0,1,4.9-5.12,25.66,25.66,0,0,1,6.93-2.75A65.07,65.07,0,0,0,62,173.36a16.4,16.4,0,0,1-1.9,2.51c-.82.89.52,2.23,1.34,1.33a19,19,0,0,0,3.51-5.46.87.87,0,0,0,.2-.31.88.88,0,0,0,.48-.11c9-5,19.54-2.63,27.84,2.54a1.31,1.31,0,0,0,.34.13,21.3,21.3,0,0,0,3.22.73c.37.09.75.17,1.13.24.77.14,1.55.24,2.33.31a22.29,22.29,0,0,0,4.69-.13c.09,0,3.68-1.43,3.93-1.54a8.92,8.92,0,0,1,1.74-.52,10.35,10.35,0,0,1,3.64,0,13.25,13.25,0,0,1,6.62,3.17l.48.45c4.34,4.31,6,10.63,7.2,16.44s1.9,12.08,3.05,18.07l1.54-1.88ZM23.29,113.79A15.72,15.72,0,0,0,23,129.14a11.16,11.16,0,0,1-7,0c-3.81-1.24-3.54-6.14-2.28-9.14,1.42-3.39,4.24-5.31,7.3-7.09a33.75,33.75,0,0,0,3.83-2.46A16.72,16.72,0,0,1,23.29,113.79ZM33.64,141a12.84,12.84,0,0,1-3.35-1.47,4.23,4.23,0,0,1-2.36-2.72,13.68,13.68,0,0,1-.32-2.73h0a13.64,13.64,0,0,0,12,1.42c.75,1.1,1.54,2.18,2.35,3.24A8.88,8.88,0,0,1,33.64,141ZM107,152.39a2.13,2.13,0,0,1-.42.19s0,0,0,0a0,0,0,0,0,0,0,2.88,2.88,0,0,1-2.57-1,2.31,2.31,0,0,1-.38-.69l-.06-.16c0-.06,0-.12,0-.18a8.76,8.76,0,0,0,3.6.26c.57-.06.56.21.65.44C107.93,151.67,107.43,152.13,107,152.39Zm1.43-4-.1,0a3.68,3.68,0,0,1-1.92.45,8.42,8.42,0,0,1,1.14-.93,4.11,4.11,0,0,1,1.42-.74l.13,0h.32l.12,0,.11.05a1.84,1.84,0,0,1-.55.66A4.48,4.48,0,0,1,108.39,148.43ZM105,110.26c-.63.87-1.27,1.73-1.92,2.59h0C103.76,112,104.4,111.13,105,110.26Zm-18.18,41a1,1,0,0,0,.44-.19.74.74,0,0,0,.27-.94c-.21-.36-.71-.38-1.12-.4a6,6,0,0,1-4.35-2.18l5.75-2.94a.87.87,0,0,1,.41-.14,1,1,0,0,1,.53.2,19,19,0,0,0,7.9,2.63c.51,0,1,.08,1.52.09a6.56,6.56,0,0,0,1.47,0,1,1,0,0,0,.19-1.74C92.22,142,93.93,131.56,97,125.42a60.22,60.22,0,0,1,6.21-9.51,20.5,20.5,0,0,1,2.62,1,.81.81,0,0,0,1.08-.28.72.72,0,0,0,.08-.41.77.77,0,0,0,.13-.91,4.31,4.31,0,0,0-2-1.88c1.2-1.6,2.39-3.22,3.48-4.89,1.57,5-.93,10.81,1,15.82a12.34,12.34,0,0,0,2.44,3.77c.85,1,3.65,2.69,3.25,4.11s-2.57,2.86-3.9,3.52a10.44,10.44,0,0,1-5.42,1c-1.21-.09-1.21,1.8,0,1.89a12.44,12.44,0,0,0,4.21-.44c-.65,2.07-1.48,4.25-1.09,6.43a5,5,0,0,0,.19.74,4.84,4.84,0,0,0-2.76,1.12c-.27.2-.52.41-.78.62a5.93,5.93,0,0,1-1.67,1,1.79,1.79,0,0,1-.86.13,2,2,0,0,0-.92,0,1.5,1.5,0,0,0-.69,1.56,5.19,5.19,0,0,0,3.69,4.57c-.74,1.29-1,2.88-1.94,4-1.32,1.53-3.6,1.77-5.61,1.61a30.89,30.89,0,0,1-8.34-2c-4.59-1.71-9.18-4.24-11.71-8.44l3-1.29c1.5,1.64,3.48,3,5.7,3.08A2.4,2.4,0,0,0,86.85,151.29Zm-7.34-18a5.42,5.42,0,0,1-1.7-.19,34,34,0,0,1,.41-5.25,12.46,12.46,0,0,0,1,4.45c.1.33.21.66.32,1Zm-1.18-6Zm-4.39-9.58a4.28,4.28,0,0,1,2-.75,3.27,3.27,0,0,1,3.1,1.69h.32a35.27,35.27,0,0,0-3.09,13.79,7,7,0,0,1-1.13-.81,12.9,12.9,0,0,1-2.89-4.07A10.73,10.73,0,0,1,71,123.79,6.7,6.7,0,0,1,73.94,117.72Zm17.24,52.7c-7.9-4-17.17-5.26-25.33-1.32A20,20,0,0,0,64,153.9c3.39-.36,6.78-1.72,9.86-2.87.83-.31,1.12-.43,1.94-.76a3.89,3.89,0,0,1,.51.76c2.73,4.15,7,6.63,11.57,8.42.86.34,1.76.69,2.69,1a1.84,1.84,0,0,1,.78,1.87A9.77,9.77,0,0,0,91.18,170.42Z"/><path class="cls-1" d="M160.4,232.31c-1.48.87-3,1.74-4.42,2.63-1.76,1.08-3.52,2.19-5.17,3.44a23.79,23.79,0,0,1-7.95-6.07h-2.45a26.63,26.63,0,0,0,8.78,7.39A21.75,21.75,0,0,0,146.1,243c-2.91,3.88-3.63,8.82-6.09,12.94a.94.94,0,0,0,1.63,1c2.33-3.9,3.05-8.57,5.65-12.32a20.18,20.18,0,0,1,4-4.13c.28-.08,4.67-3.23,6.7-4.46s4.13-2.45,6.22-3.64Z"/><path class="cls-1" d="M164.18,232.31c3-1.74,6.09-3.45,9.19-5.09h-4c-3,1.64-6,3.35-8.95,5.09Z"/><path class="cls-1" d="M139.3,227.22h-2.2c.26.48.51.95.79,1.42a33.1,33.1,0,0,0,2.52,3.67h2.45A31.35,31.35,0,0,1,139.3,227.22Z"/><path class="cls-1" d="M210.54,202.2a10.92,10.92,0,0,0-2.63.46h4A2.31,2.31,0,0,0,210.54,202.2Z"/><path class="cls-1" d="M133.37,209.3l-1.54,1.88a55.55,55.55,0,0,0,5.27,16h2.2C136.21,221.76,134.45,215.34,133.37,209.3Z"/><path class="cls-1" d="M101.93,121.36c-.06,0,0,0,0,0Z"/><path class="cls-1" d="M78.33,127.3h0Z"/><path class="cls-1" d="M101.89,121.6h0v0Z"/><path class="cls-1" d="M101.88,121.52h0v0h0v0h0Z"/><path class="cls-1" d="M102,121.35h0s0,0,0,0S102,121.34,102,121.35Z"/><path class="cls-1" d="M101.94,121.35v0h0s0,0,0,0Z"/><path class="cls-1" d="M105,110.26c-.63.87-1.27,1.73-1.92,2.59h0C103.76,112,104.4,111.13,105,110.26Z"/><path class="cls-1" d="M187.23,210.8a4.92,4.92,0,0,1,0,1.95c0,.25-.07.51-.08.76a27.12,27.12,0,0,1,1.95-2.67l.64-.79a1,1,0,0,1-.14-.43,2.73,2.73,0,0,0-1.63-2.16,4.5,4.5,0,0,0-1.82-.22.89.89,0,0,0-.47.12.55.55,0,0,0-.08.36,2.92,2.92,0,0,0,.63,1.34A6,6,0,0,1,187.23,210.8Z"/><path class="cls-1" d="M27.62,134.09h0a13.68,13.68,0,0,0,.32,2.73,4.23,4.23,0,0,0,2.36,2.72A12.84,12.84,0,0,0,33.64,141,8.88,8.88,0,0,0,42,138.75c-.81-1.06-1.6-2.14-2.35-3.24A13.64,13.64,0,0,1,27.62,134.09Z"/><path class="cls-1" d="M13.73,120c-1.26,3-1.53,7.9,2.28,9.14a11.16,11.16,0,0,0,7,0,15.72,15.72,0,0,1,.28-15.35,16.72,16.72,0,0,0,1.57-3.35A33.75,33.75,0,0,1,21,112.9C18,114.68,15.15,116.6,13.73,120Z"/><path class="cls-1" d="M101.89,121.58v0h0v0Z"/><path class="cls-1" d="M19.2,209.86,8.32,222.64C5.49,226,2.49,229.37.92,233.51s-.95,8.55.89,12.62a54.58,54.58,0,0,0,3.38,6.19,11.42,11.42,0,0,0,4.33,4.39c1.08.55,2-1.08,1-1.63a10.46,10.46,0,0,1-4-4.34,55.23,55.23,0,0,1-3-5.56,14.11,14.11,0,0,1,0-12.81c2-3.83,5-7,7.78-10.29l9.26-10.89C21.32,210.27,20,208.93,19.2,209.86Z"/><path class="cls-1" d="M101.59,123a1,1,0,0,0,.34-1.3l0,0h0v0h0v0h0v0h0v0a.29.29,0,0,0,0-.09l0,0h0v0h0s0,0,0,0,0,0,0,0l.1,0,.08,0c.25-.07.51-.12.75-.2l.17-.06a.91.91,0,0,0,.2.39,2,2,0,0,1,0,.24,3.84,3.84,0,0,0-.08,1.07,2.06,2.06,0,0,0,1.06,1.72,1.72,1.72,0,0,0,2.06-.45,3.25,3.25,0,0,0,.72-1.59,3.35,3.35,0,0,0-.87-3.16,2.61,2.61,0,0,0-2.18-.49c-.6.11-1.15.4-1.74.57a5.89,5.89,0,0,0-1.08.34,2,2,0,0,0-.82.77,2.14,2.14,0,0,0,0,2.2A1,1,0,0,0,101.59,123Zm.3-1.36h0v0Zm0-.24h0S101.87,121.39,101.93,121.36Z"/><path class="cls-1" d="M101.9,121.59a.2.2,0,0,0,0-.07v.07Z"/><path class="cls-1" d="M101.94,121.37l0,0h0S102,121.36,101.94,121.37Z"/><path class="cls-1" d="M58.51,255.2c-2.09-1.69-3.14-3.32-3-6.14.17-2.58.7-5.1.82-7.69a55,55,0,0,0-.33-8.7c-1.31-11.49-5.59-22.35-9.88-33-.45-1.12-2.28-.63-1.82.5,2.34,5.82,4.72,11.74,6.58,17.78-8,8.23-16.57,16.89-28.27,19.1-1.2.23-.69,2,.5,1.83a34.28,34.28,0,0,0,9.54-3.39c1.38,4.42,4.38,7.73,8,10.56a29.3,29.3,0,0,0,12,5.83.94.94,0,0,0-.35.92c.51,2.73-.58,5.39-1.44,7.94l-2.69,7.95q-2.62,7.8-5.27,15.6c-.39,1.16,1.44,1.65,1.83.5L50.48,268c.92-2.74,1.86-5.48,2.77-8.22a16.12,16.12,0,0,0,1.09-6.51A7.31,7.31,0,0,0,56,255.51c1.43,1.35,3.49,2.37,4.07,4.37a1,1,0,0,0,1.83-.5C61.31,257.53,60,256.38,58.51,255.2Zm-4.1-12.66c-.17,2.5-.82,5-.78,7.52v.08a27.12,27.12,0,0,1-11.47-5.35c-3.56-2.71-6.54-5.87-7.78-10.24,6.44-3.75,12-9.17,17.16-14.52a75.41,75.41,0,0,1,2.73,13.8A52.78,52.78,0,0,1,54.41,242.54Z"/><path class="cls-1" d="M210.54,202.2a10.92,10.92,0,0,0-2.63.46h4A2.31,2.31,0,0,0,210.54,202.2Z"/><path class="cls-1" d="M216.21,211.63h0v0h0s0-.06,0,0h0Z"/><path class="cls-1" d="M206.91,227.22c.48-.72.93-1.45,1.39-2.17C207.84,225.77,207.39,226.5,206.91,227.22Z"/><path class="cls-1" d="M209.9,220c.31-.29.62-.58,1-.84C210.52,219.38,210.21,219.67,209.9,220Z"/><path class="cls-1" d="M189,227.19l0,0h0Z"/><path class="cls-1" d="M208.74,221.24c-.23.29-.46.59-.68.89C208.28,221.83,208.51,221.53,208.74,221.24Z"/><path class="cls-1" d="M207.88,222.39c-.22.3-.43.61-.64.93C207.45,223,207.66,222.69,207.88,222.39Z"/><path class="cls-1" d="M212.2,218.21a12.11,12.11,0,0,0-1.15.77A12.11,12.11,0,0,1,212.2,218.21Z"/><path class="cls-1" d="M209.71,220.15q-.44.45-.84.93Q209.27,220.6,209.71,220.15Z"/><polygon class="cls-1" points="204.67 227.22 204.67 227.22 204.67 227.22 204.67 227.22"/><path class="cls-1" d="M184.94,221.34q-3,1.42-5.91,2.93C181,223.28,183,222.29,184.94,221.34Z"/><path class="cls-1" d="M185.53,223.91c-.09-.34-.18-.69-.25-1C185.34,223.22,185.44,223.56,185.53,223.91Z"/><path class="cls-1" d="M186.86,227.22c-.25-.45-.47-.91-.68-1.38A14.7,14.7,0,0,0,186.86,227.22Z"/><path class="cls-1" d="M186.14,225.74c-.18-.44-.34-.89-.48-1.34C185.8,224.85,186,225.3,186.14,225.74Z"/><path class="cls-1" d="M205.11,229.71c-.23.28-.48.54-.72.8C204.63,230.25,204.88,230,205.11,229.71Z"/><path class="cls-1" d="M206.09,228.44c-.27.37-.54.73-.83,1.09C205.55,229.17,205.82,228.81,206.09,228.44Z"/><path class="cls-1" d="M204.14,230.77a11.75,11.75,0,0,1-1,.88A11.75,11.75,0,0,0,204.14,230.77Z"/><path class="cls-1" d="M206.91,227.22c-.26.4-.53.8-.8,1.19C206.38,228,206.65,227.62,206.91,227.22Z"/><path class="cls-1" d="M190.13,228.66h0Z"/><path class="cls-1" d="M194.56,231.6a7.63,7.63,0,0,1-.84-.31A7.63,7.63,0,0,0,194.56,231.6Z"/><path class="cls-1" d="M193.32,231.1l-.41-.19Z"/><path class="cls-1" d="M189.56,228h0Z"/><path class="cls-1" d="M190.79,229.34l0,0Z"/><path class="cls-1" d="M191.55,230l-.12-.1Z"/><path class="cls-1" d="M192.37,230.58l-.23-.14Z"/><polygon class="cls-1" points="204.67 227.22 204.67 227.22 204.67 227.22 204.67 227.22"/><polygon class="cls-1" points="189.03 227.22 189.04 227.23 189.03 227.22 189.03 227.22"/><path class="cls-1" d="M193.61,233.16c-4.06,8.18-10.48,14.79-17.56,20.47-3.73,3-7.65,5.77-11.6,8.47-4.19,2.86-8.6,5.71-13.6,6.88-9.76,2.28-18.23-4-24.19-11.06-6.42-7.66-11.33-16.91-15.13-26.13a118.63,118.63,0,0,1-8.38-33.73c-.11-1.2-2-1.21-1.89,0a120.23,120.23,0,0,0,7.44,31.68,109.36,109.36,0,0,0,15.15,27.69c5.52,7.12,13.3,14,22.84,13.94,5.19,0,10-2.18,14.4-4.83s8.57-5.69,12.66-8.76c8.72-6.54,17-14.17,21.74-24.12a9.57,9.57,0,0,0,6.73-1.35H191.78A11.66,11.66,0,0,0,193.61,233.16Z"/><path class="cls-1" d="M206.11,228.41l0,0Z"/><path class="cls-1" d="M204.39,230.51l-.25.26Z"/><path class="cls-1" d="M192.91,230.91l-.54-.33Z"/><path class="cls-1" d="M204.67,227.22a18.7,18.7,0,0,1-1.32,1.65A18.7,18.7,0,0,0,204.67,227.22Z"/><path class="cls-1" d="M205.26,229.53l-.15.18Z"/><path class="cls-1" d="M193.72,231.29a2.93,2.93,0,0,1-.4-.19A2.93,2.93,0,0,0,193.72,231.29Z"/><polygon class="cls-1" points="206.91 227.22 206.91 227.22 206.91 227.22 206.91 227.22"/><path class="cls-1" d="M189.55,228c-.18-.24-.35-.48-.51-.73C189.2,227.48,189.37,227.72,189.55,228Z"/><path class="cls-1" d="M192.14,230.44l-.59-.44Z"/><path class="cls-1" d="M190.13,228.65q-.3-.33-.57-.69Q189.83,228.32,190.13,228.65Z"/><path class="cls-1" d="M187.25,228c-.14-.23-.26-.49-.39-.73h0C187,227.46,187.11,227.72,187.25,228Z"/><path class="cls-1" d="M191.43,229.9c-.23-.18-.44-.37-.64-.56C191,229.53,191.2,229.72,191.43,229.9Z"/><path class="cls-1" d="M190.75,229.31c-.21-.21-.42-.43-.62-.65C190.33,228.88,190.54,229.1,190.75,229.31Z"/><path class="cls-1" d="M204.14,230.77l.25-.26c.24-.26.49-.52.72-.8l.15-.18c.29-.36.56-.72.83-1.09l0,0c.27-.39.54-.79.8-1.19h-2.24a18.7,18.7,0,0,1-1.32,1.65,8.6,8.6,0,0,1-7.58,3l-.1,0c-.85-.17-.62,0-1.11-.24a7.63,7.63,0,0,1-.84-.31,2.93,2.93,0,0,1-.4-.19l-.41-.19-.54-.33-.23-.14-.59-.44-.12-.1c-.23-.18-.44-.37-.64-.56l0,0c-.21-.21-.42-.43-.62-.65h0q-.3-.33-.57-.69h0c-.18-.24-.35-.48-.51-.73h-2.18c.13.24.25.5.39.73a12.84,12.84,0,0,0,4.53,4.36h10.44q.47-.3.93-.66A11.75,11.75,0,0,0,204.14,230.77Z"/><path class="cls-1" d="M207.91,202.66l-.24.05.24-.05Z"/><polygon class="cls-1" points="206.91 227.22 206.91 227.22 206.91 227.22 206.91 227.22"/><path class="cls-1" d="M209.71,220.15l.19-.19Z"/><path class="cls-1" d="M207.24,223.32c-.86,1.29-1.66,2.64-2.57,3.9C205.58,226,206.39,224.61,207.24,223.32Z"/><path class="cls-1" d="M211.89,202.66h0l.1.07Z"/><path class="cls-1" d="M173.37,227.22h0q2.82-1.5,5.66-2.95C177.13,225.23,175.25,226.22,173.37,227.22Z"/><path class="cls-1" d="M186.18,225.84a.3.3,0,0,0,0-.1A.3.3,0,0,1,186.18,225.84Z"/><path class="cls-1" d="M185.66,224.4c0-.16-.08-.33-.13-.49C185.58,224.07,185.61,224.24,185.66,224.4Z"/><path class="cls-1" d="M185.28,222.87a12.75,12.75,0,0,1-.21-1.63A12.75,12.75,0,0,0,185.28,222.87Z"/><polygon class="cls-1" points="186.86 227.22 186.86 227.22 186.86 227.22 186.86 227.22"/><path class="cls-1" d="M208.06,222.13l-.18.26Z"/><path class="cls-1" d="M211.05,219l-.19.14Z"/><path class="cls-1" d="M208.87,221.08c0,.06-.09.11-.13.16S208.83,221.14,208.87,221.08Z"/><path class="cls-1" d="M188,207.46a4.5,4.5,0,0,0-1.82-.22.89.89,0,0,0-.47.12.55.55,0,0,0-.08.36,2.92,2.92,0,0,0,.63,1.34,6,6,0,0,1,1,1.74,4.92,4.92,0,0,1,0,1.95c0,.25-.07.51-.08.76a27.12,27.12,0,0,1,1.95-2.67l.64-.79a1,1,0,0,1-.14-.43A2.73,2.73,0,0,0,188,207.46Z"/><path class="cls-1" d="M216.52,213.86c-.12,0,.36-.23.41-.26a1.59,1.59,0,0,0,.66-.55,2.08,2.08,0,0,0-.42-3.05,3.11,3.11,0,0,0-2-.35c1.22-.71,2.34-2,1.55-3.44a3,3,0,0,0-2.07-1.29,12.07,12.07,0,0,0-2.24-.3c.13,0,.07-.79.06-.89a1.67,1.67,0,0,0-.51-1l-.1-.07h-4l-.24.05c-1,.21-2,.43-3.07.66-2.4.54-4.8,1.12-7.17,1.79a15,15,0,0,0-4.67,1.91,11.23,11.23,0,0,0-1.51,1.33,4.4,4.4,0,0,0-1.39-2,5.4,5.4,0,0,0-3.74-1.06,2.47,2.47,0,0,0-1.88.84,2.41,2.41,0,0,0-.46,1.82,3.94,3.94,0,0,0,.66,1.72,4.53,4.53,0,0,1,1,2.21,20.34,20.34,0,0,1-.13,2.81c-.06,1.16-.2,2.32-.27,3.48a2.13,2.13,0,0,1-.23,1,1.84,1.84,0,0,1-.83.51q-7.43,3.57-14.64,7.51h4q2.82-1.5,5.66-2.95c2-1,3.93-2,5.91-2.93.06,0,.08-.07.13-.1a12.75,12.75,0,0,0,.21,1.63c.06.35.16.69.25,1,.05.16.08.33.13.49.14.45.3.9.48,1.34a.3.3,0,0,1,0,.1,14.7,14.7,0,0,0,.68,1.38H189l0,0a12.45,12.45,0,0,1-2.06-7.58,11.26,11.26,0,0,1,2-5.4,25.77,25.77,0,0,1,3.9-4.74,10.11,10.11,0,0,1,3.91-2.1q4.26-1.34,8.57-2.52c1.43-.39,3.4-1.19,4.9-.91a.52.52,0,0,1,.3.13c.18.21,0,.52-.22.71a9.86,9.86,0,0,1-3.7,1.89l-3.31,1.13a10.08,10.08,0,0,0-1.48.57c-.24.13-1.09.53-1.09.86a.7.7,0,0,0-.16.62c.14.35.64.32,1,.22a109.64,109.64,0,0,0,10.77-3.74,2.84,2.84,0,0,1,2-.05,1,1,0,0,1,.63,1.13c-.12.39-.54.6-.91.76l-11.76,5.1c-.45.2-1,.47-1,.95s.45.92.95,1a3,3,0,0,0,1.43-.42,70,70,0,0,1,8.35-3.47c1.2-.39,3.17-1.33,4.09.06a1.2,1.2,0,0,1,.08,1.25,1.74,1.74,0,0,1-.53.48,24.6,24.6,0,0,1-4.35,2c-1.6.66-3.2,1.31-4.75,2.1a1,1,0,0,0-.7,1.17c.18.8.91.83,1.51.54,2.3-1.11,4.67-2.11,6.94-3.26.39-.2,1.53-.83,2.18-.09a.48.48,0,0,1,.09.52.65.65,0,0,1-.34.24l0,0a19.21,19.21,0,0,0-4,1.86,12.11,12.11,0,0,0-1.15.77l-.19.14c-.34.26-.65.55-1,.84l-.19.19q-.44.45-.84.93c0,.06-.09.11-.13.16-.23.29-.46.59-.68.89l-.18.26c-.22.3-.43.61-.64.93-.85,1.29-1.66,2.64-2.57,3.9h2.24c.48-.72.93-1.45,1.39-2.17a21.46,21.46,0,0,1,2.71-3.58c1.62-1.61,3.73-2.21,5.66-3.31a3.27,3.27,0,0,0,1.78-2.37A1.94,1.94,0,0,0,216.52,213.86Zm-27.38-3a27.12,27.12,0,0,0-1.95,2.67c0-.25.05-.51.08-.76a4.92,4.92,0,0,0,0-1.95,6,6,0,0,0-1-1.74,2.92,2.92,0,0,1-.63-1.34.55.55,0,0,1,.08-.36.89.89,0,0,1,.47-.12,4.5,4.5,0,0,1,1.82.22,2.73,2.73,0,0,1,1.63,2.16,1,1,0,0,0,.14.43Z"/><path class="cls-1" d="M185.07,221.24a12.75,12.75,0,0,0,.21,1.63A12.75,12.75,0,0,1,185.07,221.24Z"/><path class="cls-1" d="M216.21,211.63h0v0h0s0-.06,0,0h0Z"/><rect class="cls-1" x="141.44" y="231.28" width="20.75" height="2.05"/><path class="cls-1" d="M263.9,203.58a2.07,2.07,0,0,0-2.07-2H210.57l-.2,0-.31,0a2.71,2.71,0,0,0-.9.13,1,1,0,0,0-.53-.17H142.52a7.33,7.33,0,0,0-5.67,2.68L132.23,210a1,1,0,0,0,.14,1.45,1.05,1.05,0,0,0,.65.23,1,1,0,0,0,.8-.38l4.62-5.63a5.27,5.27,0,0,1,4.08-1.94h66.11a1,1,0,0,0,1-.94h0l.11,1,.39,0,.45,0,51.25,0,.22,3.71-19.59,23.87H200.89a1,1,0,1,0,0,2.06h41.59a2.08,2.08,0,0,0,1.6-.76l19.58-23.87a2.05,2.05,0,0,0,.46-1.43Z"/><path class="cls-1" d="M216.41,114.59H213v-7h-6.34v7h-3.45V97.33h3.45v6.89H213V97.33h3.46Z"/><path class="cls-1" d="M230.67,100.5h-4.36v14.09h-3.46V100.5H218.5V97.33h12.17Z"/><path class="cls-1" d="M250.19,114.59h-3.41V104.26c0-1.11.05-2.34.13-3.69h-.08a18.08,18.08,0,0,1-.49,2.28l-3.58,11.74h-2.82L236.28,103c-.1-.32-.26-1.12-.48-2.41h-.09c.09,1.7.13,3.19.13,4.48v9.54h-3.1V97.33h5l3.13,10.23a15.37,15.37,0,0,1,.54,2.47h.07a24,24,0,0,1,.61-2.49l3.13-10.21h4.92Z"/><path class="cls-1" d="M262.79,114.59h-9.12V97.33h3.45v14.11h5.67Z"/></g></svg>