<svg id="_8" data-name="8" xmlns="http://www.w3.org/2000/svg" viewBox="0 0 197.77 124.58"><g opacity="0.4"><path d="M85.63,55.69a17.73,17.73,0,0,1-1,5.89L110,76.16h85a3.38,3.38,0,1,1,0,6.75H109.63a3.6,3.6,0,0,1-.81-.11,3.35,3.35,0,0,1-1.55-.43l-26-14.94a17.94,17.94,0,1,1,4.41-11.74ZM67.54,66.32A10.64,10.64,0,1,0,56.83,55.69,10.67,10.67,0,0,0,67.54,66.32Z" transform="translate(-1.11 -37.71)" fill="#f2f2f2" opacity="0.4"/><path d="M68,127.12a18.29,18.29,0,0,1,13.68,6.09L107.7,118.6a3.27,3.27,0,0,1,1.48-.42,3.09,3.09,0,0,1,.8-.11h85.58a3.3,3.3,0,1,1,0,6.6h-85.1L85,138.93a17,17,0,0,1,1,5.77A18.1,18.1,0,1,1,68,127.12Zm0,28A10.41,10.41,0,1,0,57.25,144.7,10.57,10.57,0,0,0,68,155.11Z" transform="translate(-1.11 -37.71)" fill="#f2f2f2" opacity="0.4"/><path d="M19.21,113A18.24,18.24,0,0,1,34,120.38l25.57-16.07a3.34,3.34,0,0,1,2-.51H176.67a3.38,3.38,0,1,1,0,6.75H62.32l-25.5,16a17.43,17.43,0,0,1,.48,4,17.85,17.85,0,0,1-18.09,17.59,17.6,17.6,0,1,1,0-35.18Zm0,28a10.41,10.41,0,1,0,0-20.82,10.41,10.41,0,1,0,0,20.82Z" transform="translate(-1.11 -37.71)" fill="#f2f2f2" opacity="0.4"/><path d="M19.21,52.55A17.84,17.84,0,0,1,37.3,70.13a17.1,17.1,0,0,1-.85,5.33l26,14.94H176.67a3.38,3.38,0,1,1,0,6.75H61.88a3.4,3.4,0,0,1-2-.44L33.13,81.36a18.26,18.26,0,0,1-13.92,6.36,17.59,17.59,0,1,1,0-35.17Zm0,28a10.41,10.41,0,1,0,0-20.82,10.41,10.41,0,1,0,0,20.82Z" transform="translate(-1.11 -37.71)" fill="#f2f2f2" opacity="0.4"/></g></svg>