<svg id="Capa_1" data-name="Capa 1" xmlns="http://www.w3.org/2000/svg" viewBox="0 0 268.57 291.87"><defs><style>.cls-1{fill:#fff;}</style></defs><title>MONITOREO Y REPORTING</title><path class="cls-1" d="M190.75,254.36v17.18h25.61v8.61H104.09v-8.38h25.63V254.36h-63c-9.48,0-14.66-5.21-14.67-14.77V141.73H48.76c-6,0-12,.05-18,0a2.88,2.88,0,0,0-3.11,1.9c-1.2,2.7-2.56,5.33-3.9,8-2.92,5.76-8.24,8.5-13.89,7.18C3.6,157.27,0,152.61,0,145.83q0-53.48,0-107c0-6.32,3.38-9.72,9.7-9.72q63.89,0,127.76,0c6.34,0,9.71,3.36,9.74,9.7,0,7.27,0,14.53,0,21.8v2.93h30.16c1.9-5.59,3.82-11.26,5.8-17.08h16V29.31h8.67v17h8.67V20.62h8.55V46.25h8.72V38h8.67v8.22h8.73V11.75c2.71,0,5.14-.12,7.53.11.46,0,1.11,1.46,1.12,2.25.08,9.72.05,19.43.05,29.15v3.19h8.52V55.1h-3.16c-24.34,0-48.67,0-73-.05-2.23,0-3.39.56-3.84,2.83a50.7,50.7,0,0,1-1.9,5.88h68.4c7.71,0,13.11,5,13.66,12.71,0,.42,0,.85,0,1.27q0,81.38,0,162.75c0,7.12-4.1,12.22-10.86,13.62a16.16,16.16,0,0,1-3.27.23H190.75Zm69.17-34.85V78.5c0-4.81-1.34-6.1-6.23-6.1H183.64c-.69,2-1.35,3.9-2,5.81s-1.22,3.79-1.83,5.67a65.52,65.52,0,0,1,43.6,77.38c-7.21,29.4-34,50.25-63.95,49.64-15.48-.31-29.33-5.24-41.15-15.36C101.89,181.48,94.66,163.37,95.38,142H60.82v77.56ZM8.72,37.93c0,.71-.07,1.12-.07,1.54q0,53.22,0,106.44c0,2.2.72,3.92,2.95,4.4s3.5-.76,4.42-2.61c2-3.93,4.05-7.79,5.85-11.79,1-2.12,2.15-2.89,4.56-2.88q54.36.14,108.72.06h3.3V37.93ZM61,228.44a3.31,3.31,0,0,0-.29.83q0,4.81-.05,9.63c0,5.73,1.07,6.82,6.76,6.82H253.16a19.77,19.77,0,0,0,2.78-.09c2-.3,3.68-1.44,3.78-3.51.2-4.51.06-9,.06-13.68Zm152.34-63.51a16.36,16.36,0,0,0-1.69-.68c-16.21-4.32-32.42-8.65-48.66-12.86a3.77,3.77,0,0,0-2.92,1.08c-10.62,10.51-21.16,21.1-31.75,31.64-1.49,1.48-3.16,2.77-4.75,4.15,11.4,11,31.36,18.11,52.68,11.71C194.28,194.57,206.42,182.59,213.34,164.93Zm2.28-8.59c2.52-15.26-.17-29.09-8.57-41.62A54.38,54.38,0,0,0,177,92.38l-4,11.67-8.07-2.68c1.23-3.82,2.35-7.32,3.51-10.94a46.11,46.11,0,0,0-18.19.28,3.19,3.19,0,0,0-.09.76c4.39,16.47,8.76,32.94,13.24,49.39a3.51,3.51,0,0,0,2.09,2c4.77,1.42,9.6,2.63,14.41,3.91Zm-98.15,26.11c.51-.37.73-.49.91-.66q17.9-17.92,35.75-35.91a3.77,3.77,0,0,0,.74-3c-2.08-8.26-4.31-16.48-6.52-24.7a15.49,15.49,0,0,0-.79-1.87,3.79,3.79,0,0,0-.31.81c0,4.89,0,9.79,0,14.69,0,6.58-3.43,9.95-10,10-10.13,0-20.27.06-30.4,0-2,0-2.8.53-2.81,2.65a59,59,0,0,0,2.63,18.72A52.35,52.35,0,0,0,117.47,182.45Zm21.2,89.08h43.15v-17H138.67Zm35.77-199H147.38v9.33c.31.12.47.26.61.24a69.62,69.62,0,0,1,22.13-.36,2.07,2.07,0,0,0,1.56-1.12C172.66,78.06,173.49,75.42,174.44,72.56Z"/><path class="cls-1" d="M208.05,202.43h8.31v8.36h-8.31Z"/><path class="cls-1" d="M225.37,202.44h8.3v8.29h-8.3Z"/><path class="cls-1" d="M251,210.81h-8.29v-8.37H251Z"/><path class="cls-1" d="M37,102.94l5-3.7-.44-.8H34.78v-26h7.4l-4.94-5.19,18.57-18.5,3.94,4.86.8-.38V46.62H86.64v6.6l.66.44,3.91-5.24,19.24,19.22-5.18,4,.44.73h6.76V98.22h-7.41l5,5.3L91.59,121.6l-4.81-4.53v7H60.69v-7.24l-5.1,4.87ZM78,115.54c0-1,0-1.72,0-2.46,0-6.59,0-6.63,6.43-8.76a2.73,2.73,0,0,1,2.33.47c1.66,1.67,3.1,3.55,4.52,5.23l6.39-6.55c-.33-.36-.77-.86-1.24-1.35-4.67-4.79-4.71-4.81-1.8-10.91a3.1,3.1,0,0,1,2.18-1.45c2.31-.19,4.65-.07,6.91-.07V80.76c-5.59,1.23-10.12.65-11.15-6,0-.09-.1-.17-.09-.24.15-.8,0-1.87.53-2.35,1.67-1.65,3.55-3.09,5.41-4.67-1.09-1.21-1.6-1.76-2.08-2.32-1.25-1.48-2.49-3-3.82-4.56-1.12,1-1.69,1.47-2.22,2-4.6,4.54-4.58,4.51-10.56,2A2.34,2.34,0,0,1,78,62c.13-2.24,0-4.5,0-6.73H69.34c0,2.39.07,4.59,0,6.77a2.75,2.75,0,0,1-.9,2.07,37.86,37.86,0,0,1-6.08,2.49,2.75,2.75,0,0,1-2.09-.84c-1.62-1.57-3.1-3.28-4.7-5L49.35,67c.53.58,1,1.15,1.52,1.67,4.65,4.7,4.6,4.68,2,10.74a2.38,2.38,0,0,1-2.69,1.64C48,81,45.78,81,43.43,81v8.52c.81,0,1.47.12,2.13.13,6.78.08,6.82.06,9.11,6.36a3,3,0,0,1-.49,2.53c-1.62,1.69-3.48,3.15-5,4.49l6.24,6.52c.58-.53,1.14-1,1.67-1.55,4.58-4.52,4.58-4.52,10.55-1.82.08,0,.19,0,.23.11.5.76,1.34,1.49,1.41,2.29.19,2.24.07,4.51.07,6.92Z"/><path class="cls-1" d="M73.69,98.3a12.8,12.8,0,0,1-13-12.81A12.94,12.94,0,0,1,73.48,72.42a13.11,13.11,0,0,1,13.15,13A13,13,0,0,1,73.69,98.3Zm-.18-8.66a4.42,4.42,0,0,0,4.42-4,4.49,4.49,0,0,0-4.14-4.56,4.41,4.41,0,0,0-4.39,4.28A4.32,4.32,0,0,0,73.51,89.64Z"/></svg>