<svg id="Capa_1" data-name="Capa 1" xmlns="http://www.w3.org/2000/svg" viewBox="0 0 268.57 291.87"><defs><style>.cls-1{fill:#fff;}</style></defs><title>PUBLICIDAD DIGITAL</title><path class="cls-1" d="M42,141.14q0,49.65,0,99.3c0,2.36.62,2.87,2.91,2.86q70.05-.11,140.11,0c2.41,0,2.83-.68,2.82-2.91-.09-17.91,0-35.82,0-53.73a7.64,7.64,0,0,1,.86-4.31,4.77,4.77,0,0,1,8.1.06,8.47,8.47,0,0,1,.88,4.58q0,41.75,0,83.49c0,13.13-8,21.19-21.19,21.19h-123c-13,0-21.06-8-21.07-21q0-85.08,0-170.15c0-1.81.14-3.53-2.3-3.83a1.68,1.68,0,0,1-.67-.4C26,93.67,27,84.7,31,83.2c1.76-.65,1.3-1.81,1.32-2.92s.46-2.41-1.47-2.77A4,4,0,0,1,27.72,74a18.66,18.66,0,0,1,0-6.54c.28-1.52,1.05-3,2.54-3.45,1.79-.52,2.14-1.41,2.15-3.13s-.5-2.51-2.14-3a3.18,3.18,0,0,1-2.18-2.15,15.53,15.53,0,0,1-.14-8.55,3.41,3.41,0,0,1,2.36-2.65c2-.41,2.08-1.57,2.06-3.21-.07-6.94-.06-13.87,0-20.81C32.4,8.53,40.74.21,52.79.21q62,0,124.05,0c12.33,0,20.71,8.36,20.73,20.65,0,18.44,0,36.88,0,55.31a8.4,8.4,0,0,1-.68,3.85,4.54,4.54,0,0,1-4.41,2.76,4.6,4.6,0,0,1-4.27-3,8.55,8.55,0,0,1-.49-3.62c0-11.59,0-23.18,0-34.77,0-1.78-.36-2.37-2.27-2.36q-70.57.07-141.16,0C41.86,39,42,40.15,42,41.85Q42,91.5,42,141.14ZM114.64,29.41h29.75c13.69,0,27.38,0,41.07,0,1.84,0,2.44-.5,2.33-2.35-.15-2.63,0-5.27-.07-7.9a9.09,9.09,0,0,0-5-8.09,13.3,13.3,0,0,0-6.64-1.24q-61.21,0-122.42,0c-.7,0-1.4,0-2.1,0-5.5.4-9.09,3.9-9.49,9.4-.16,2.27.1,4.57-.12,6.83-.25,2.55.41,3.38,3.2,3.36C68.31,29.35,91.47,29.41,114.64,29.41Zm13.49,252.4a3.6,3.6,0,0,0,.72.22c16.41,0,32.81.06,49.21,0,5.75,0,9.61-4.08,9.66-9.91.06-5.61-.1-11.23.08-16.84.07-2.12-.71-2.38-2.54-2.37-18.24.06-36.49,0-54.73.05-.72,0-1.55-.34-2.19.35C136.34,262.35,136.27,272.66,128.13,281.81Zm-26.39-28.88c-19.62,0-38.83,0-58,0-1.44,0-1.73.51-1.72,1.82.06,5.61,0,11.23,0,16.84.1,6.75,4,10.47,10.79,10.48q23.3,0,46.58,0c.72,0,1.56.39,2.18-.37C94.64,274.44,92.47,263.41,101.74,252.93Zm3.49,14.58a9.7,9.7,0,1,0,19.4-.15,9.7,9.7,0,1,0-19.4.15Z"/><path class="cls-1" d="M173.11,131.34q0,18.56,0,37.12c0,2.45-.06,4.8-2.61,6.12s-4.54-.06-6.53-1.39c-8-5.37-16.06-10.7-24-16.13a7.58,7.58,0,0,0-4.88-1.47c-2.71.12-5.44.14-8.15,0-1.83-.1-2.38.45-2.36,2.31.1,8.34.05,16.68,0,25,0,5.19-1.6,6.81-6.7,6.81-5.35,0-10.71,0-16.06,0-4.56,0-6.32-1.79-6.33-6.42,0-8.43-.07-16.85,0-25.28,0-2-.54-2.64-2.5-2.44a9.86,9.86,0,0,1-3.91-.22,4.28,4.28,0,0,1-3.23-4.29c0-13.08-.05-26.15,0-39.23,0-3,2-4.64,5.5-4.67,6.4,0,12.81,0,19.21,0,8.16,0,16.33,0,24.49,0a8.1,8.1,0,0,0,4.86-1.51q12.31-8.33,24.72-16.52c3.14-2.07,5.55-1.84,7.46.52,1,1.29.92,2.79.93,4.27Q173.13,112.64,173.11,131.34ZM114.83,146c5.79,0,11.58-.06,17.37,0,1.66,0,2.27-.35,2.24-2.15q-.13-12.51,0-25c0-1.88-.68-2.14-2.28-2.13q-17.23.06-34.48,0c-1.62,0-2.3.31-2.27,2.16q.17,12.51,0,25c0,1.85.68,2.14,2.3,2.12C103.42,146,109.12,146,114.83,146Zm48.54-44a3.88,3.88,0,0,0-.84.23c-5.85,3.86-11.67,7.76-17.56,11.56-1.14.75-1,1.73-1,2.76,0,9.91,0,19.82,0,29.73a3.25,3.25,0,0,0,1.78,3.14c3.47,2.21,6.88,4.53,10.31,6.81l7.34,4.89Zm-48.44,66c0-1.58.07-3.16,0-4.73-.14-2.5,1.16-5.91-.54-7.25s-4.85-.31-7.37-.44c-1.31-.07-1.88.28-1.87,1.72q.09,10.5,0,21c0,1.39.48,1.86,1.84,1.79a53.07,53.07,0,0,1,5.78,0c1.64.11,2.31-.3,2.22-2.13C114.81,174.67,114.93,171.34,114.93,168Z"/><path class="cls-1" d="M241.27,130.81c-.62,18.31-4.3,35.51-15.13,50.54a69.19,69.19,0,0,1-5.25,6.23c-2.23,2.43-4.86,2.73-7,1s-2.36-4.84-.23-7.27a60.76,60.76,0,0,0,9-12.59c8.46-16.73,10.51-34.37,7.52-52.71C228.47,105.46,225,95.61,218.48,87c-1.48-2-3.28-3.66-4.83-5.56-2.1-2.59-1.92-5.32.36-7.19,2.1-1.72,4.84-1.32,7,1,11.53,12,17.06,26.7,19.27,42.91C240.9,122.42,240.93,126.72,241.27,130.81Z"/><path class="cls-1" d="M217,131.81c-.23,10.75-3,21.7-10.44,31.15-1.36,1.72-3,2.67-5.23,2.22a4.53,4.53,0,0,1-3.56-3.47c-.57-1.8.22-3.26,1.23-4.63,7.73-10.35,9.52-22,7.58-34.47a33.91,33.91,0,0,0-7.6-16.82,4.92,4.92,0,0,1-.66-6.08c1.18-2,3.09-2.43,5.24-2a5,5,0,0,1,2.92,2.09C213.91,108.78,216.88,119.29,217,131.81Z"/><path class="cls-1" d="M197.52,130.63a31,31,0,0,1-4.93,16.92c-2.05,3.1-4.77,4-7.28,2.43-2.71-1.71-3-4.41-.82-7.76a19.27,19.27,0,0,0,1.63-19,30.8,30.8,0,0,0-2.19-3.57c-1.51-2.55-1-5.21,1.24-6.69s4.84-1,6.65,1.35A26.24,26.24,0,0,1,197.52,130.63Z"/><path class="cls-1" d="M122.27,24.48c-3.76,0-7.53.05-11.29,0s-5.68-1.89-5.64-4.87,2.12-4.7,5.75-4.72q11,0,22.07,0c3.8,0,6,1.81,5.93,4.83s-2.25,4.74-6.05,4.77C129.45,24.51,125.86,24.48,122.27,24.48Z"/><path class="cls-1" d="M92.89,24.56c-4.81-.08-7-1.62-7-4.93s2.16-4.76,7.06-4.75a23.2,23.2,0,0,1,2.89.07,4.73,4.73,0,0,1,4.36,4.49,4.6,4.6,0,0,1-3.92,4.85A29.59,29.59,0,0,1,92.89,24.56Z"/></svg>