<svg id="_22" data-name="22" xmlns="http://www.w3.org/2000/svg" viewBox="0 0 196.55 188.55"><g opacity="0.4"><path d="M195.46,24.1,179.83,8.92a46.52,46.52,0,0,1,18.41-3.17s.54,10-2.51,17.45Z" transform="translate(-1.72 -5.73)" fill="#f2f2f2"/><path d="M149,63.37l-10-9.71s-9.29,4.78-10.79,10.69c0,0,2.39.06,5.92-3.59,0,0-6.33,5.8-7.65,12.12,0,0,3.11,1.33,10-3,0,0-2.33,2.26-2.33,3.71,0,0,5.91-.75,8.72-5,0,0-1.14,3.13-.66,3.13C142.15,71.77,148.07,68.18,149,63.37Z" transform="translate(-1.72 -5.73)" fill="#f2f2f2"/><path d="M136.78,34.79l12-.26s10.87-18.11,28.91-24.37l17,17.15A54.88,54.88,0,0,1,169,54.09l-.48,13.22-14.21,9s-4.9.58-4.9-4.87l5.38-11.36-3,2.32-11.23-10.6,1.67-3.66L131.7,53.75s-5.62.63-5.62-4.52ZM174,37.92a8.06,8.06,0,1,0-8.3-8.06A8.19,8.19,0,0,0,174,37.92Z" transform="translate(-1.72 -5.73)" fill="#f2f2f2"/></g><g opacity="0.4"><path d="M141.35,142l-15.64-15.17a46.62,46.62,0,0,1,18.41-3.18s.54,10-2.51,17.45Z" transform="translate(-1.72 -5.73)" fill="#f2f2f2"/><path d="M94.84,181.27l-10-9.71s-9.29,4.78-10.78,10.7c0,0,2.39.05,5.91-3.6,0,0-6.33,5.8-7.64,12.12,0,0,3.1,1.33,10-3,0,0-2.33,2.26-2.33,3.71,0,0,5.92-.75,8.72-5,0,0-1.13,3.13-.65,3.13C88,189.68,94,186.08,94.84,181.27Z" transform="translate(-1.72 -5.73)" fill="#f2f2f2"/><path d="M82.66,152.69l12-.26s10.87-18.11,28.91-24.37l17,17.16A54.92,54.92,0,0,1,114.85,172l-.47,13.21-14.22,9s-4.9.58-4.9-4.87L100.64,178l-3,2.31L86.42,169.75l1.68-3.67-10.52,5.57s-5.61.64-5.61-4.52Zm37.18,3.13a8.06,8.06,0,1,0-8.3-8A8.17,8.17,0,0,0,119.84,155.82Z" transform="translate(-1.72 -5.73)" fill="#f2f2f2"/></g><g opacity="0.4"><path d="M71.1,56.29,55.47,41.12A46.52,46.52,0,0,1,73.88,38s.54,10-2.51,17.44Z" transform="translate(-1.72 -5.73)" fill="#f2f2f2"/><path d="M24.6,95.56l-10-9.71S5.31,90.64,3.81,96.55c0,0,2.39.06,5.92-3.59,0,0-6.33,5.79-7.65,12.11,0,0,3.11,1.33,10-3,0,0-2.33,2.27-2.33,3.71,0,0,5.91-.75,8.72-5,0,0-1.14,3.13-.66,3.13C17.79,104,23.7,100.38,24.6,95.56Z" transform="translate(-1.72 -5.73)" fill="#f2f2f2"/><path d="M12.42,67l12-.26S35.29,48.61,53.33,42.35l17,17.16A54.92,54.92,0,0,1,44.61,86.29l-.48,13.22-14.21,9s-4.9.58-4.9-4.87l5.37-11.36-3,2.32L16.18,84l1.67-3.66L7.34,85.94s-5.62.64-5.62-4.52ZM49.6,70.12a8.06,8.06,0,1,0-8.3-8.06A8.19,8.19,0,0,0,49.6,70.12Z" transform="translate(-1.72 -5.73)" fill="#f2f2f2"/></g></svg>