<svg id="Capa_1" data-name="Capa 1" xmlns="http://www.w3.org/2000/svg" viewBox="0 0 268.57 291.87"><defs><style>.cls-1{fill:#fff;}</style></defs><title>PLANIFICACION ESTATEGICA</title><path class="cls-1" d="M152.43,100.48c4.47-4.56,8.89-9.15,13.4-13.67q34.11-34.2,68.27-68.35c6.77-6.78,15.64-8.62,23.13-4.88,12.6,6.31,15.12,21.89,5.08,32Q223.19,84.75,184,123.89c-6,6-12.2,11.93-18,18.14-3.29,3.49-6.88,6.16-11.6,7.09-2.11.41-2.7,1.42-2.66,3.57.15,7.91,0,15.83.07,23.75a3.89,3.89,0,0,0,.35,2.43l13.37-8.19c2.85-1.75,5.77-3.41,8.54-5.28,1.84-1.25,3.46-1,5.34-.15,11.22,5.22,22.49,10.35,33.71,15.6a2.65,2.65,0,0,0,3.39-.48c13.11-11.36,26.28-22.66,39.66-34.16-1.77-.5-3.33-.21-4.86-.28-2.42-.1-4-1.35-4-3.2s1.63-3.32,4.09-3.34c4.34,0,8.68,0,13,0,3.08,0,4.31,1.44,4,4.43-.36,3.86-.7,7.73-1.08,11.59a9,9,0,0,1-.42,2,3.15,3.15,0,0,1-6-.87c-.08-1.81,0-3.63,0-5.57-.78-.12-1.23.72-1.8,1.21q-20.27,17.4-40.46,34.89a4.75,4.75,0,0,1-5.92.81c-11-5.19-22.08-10.18-33.07-15.39a4.87,4.87,0,0,0-5.41.29c-6.77,4.36-13.65,8.56-20.56,12.71a3.45,3.45,0,0,0-2,3.41q.09,43.07.05,86.12c0,4.28-.9,5.16-5.24,5.17-6.09,0-12.18,0-18.28,0-2.14,0-4-.4-4.5-2.87-.16-.73-.71-.92-1.38-.9H12.27c-2.13,0-4.28.12-6.25-.93a10.53,10.53,0,0,1-5.95-9.32c0-.76,0-1.52,0-2.29q0-76.29,0-152.59a7.81,7.81,0,0,1,2.51-6q19.88-19.68,39.6-39.52a6.41,6.41,0,0,1,4.88-2q46.61.06,93.2,0c7.31,0,11.57,4.33,11.59,11.68q0,12.3,0,24.6ZM6.54,189.81v74.46c0,4.52,1.11,5.63,5.68,5.63q54.47,0,109,0c2,0,2.55-.4,2.53-2.47-.12-10.81-.07-21.62,0-32.43,0-3.64,1-4.59,4.61-4.6,4.94,0,9.9-.1,14.84.05,1.89,0,2.26-.6,2.25-2.32-.08-9.67,0-19.34,0-29,0-2.29,0-4.57,0-6.85,0-1.28-.37-1.5-1.44-.79-1.32.89-2.67,1.76-4.07,2.53-2.16,1.18-3.95.82-4.94-.86s-.43-3.4,1.69-4.74c2.45-1.54,4.89-3.09,7.39-4.54a2.55,2.55,0,0,0,1.39-2.56q-.08-13.59,0-27.18c0-1.58-.29-2-1.92-1.42-5.37,1.89-10.8,3.61-16.2,5.42-1.77.6-3.48,1.22-5.06-.45s-.7-3.09-.17-4.68c3.41-10.23,6.84-20.45,10.2-30.7a11.87,11.87,0,0,1,3.18-5.15c2.92-2.78,5.7-5.71,8.6-8.51a4,4,0,0,0,1.36-3.17c-.05-10,0-20,0-29.92,0-4-1.32-5.29-5.38-5.3q-44.53,0-89.07,0c-1.69,0-2.22.47-2.2,2.19.08,7.84-.19,15.69.09,23.53.36,10.18-7.52,16.66-16.61,16.57-7.77-.08-15.53,0-23.3-.06-1.94,0-2.34.55-2.33,2.41Q6.59,152.35,6.54,189.81ZM204.27,73a7.82,7.82,0,0,1,1.17.38c2.26,1.06,2.38,3.68.22,5.84l-47.82,47.74c-1.83,1.83-3.62,3.69-5.43,5.54,1.82,1.92,3.7,3.78,5.43,5.77,1,1.2,1.67,1,2.69-.06Q201.75,96.9,243.05,55.7c1-1,1.14-1.61,0-2.7-5.18-5-10.33-10.13-15.32-15.35-1.53-1.59-2.31-1.34-3.72.08q-21.24,21.38-42.6,42.63Q161.74,100,142,119.72c-.94,1-1.35,1.56-.09,2.62a39.79,39.79,0,0,1,4.38,4.33c1.05,1.2,1.72,1,2.7-.07,2.64-2.74,5.37-5.39,8.06-8.08Q179,96.67,200.83,74.81A5.14,5.14,0,0,1,204.27,73ZM262,31.12a12.49,12.49,0,0,0-7.19-11.52,12.17,12.17,0,0,0-14.08,1.58c-3.31,2.78-6.17,6.09-9.28,9.12-.8.78-.7,1.28.06,2q8.18,8.1,16.3,16.29c.78.8,1.33,1,2.21.07,2.94-3.08,6-6.06,8.92-9.14C261,37.36,261.9,34.64,262,31.12ZM145.31,255.37c0-5.55,0-11.11,0-16.66,0-1.14-.09-1.86-1.55-1.83-4,.09-8.07.06-12.1,0-1.24,0-1.54.51-1.54,1.64q0,16.78,0,33.56c0,1.25.45,1.55,1.59,1.54,4-.05,7.91-.08,11.87,0,1.44,0,1.77-.47,1.76-1.83C145.26,266.33,145.31,260.85,145.31,255.37ZM42.09,75.73l-.64-.48c-1.15,1.3-2.23,2.66-3.45,3.88Q25.45,91.75,12.83,104.3c-.36.36-1,.64-.92,1.21s.69.47,1.11.47c6.84,0,13.69.14,20.53-.08,4.68-.15,8.37-3.36,8.48-7.4C42.23,90.92,42.09,83.32,42.09,75.73Zm88.52,74.5.44-.1q10.45-3.52,20.91-7c1.07-.36.72-.91.14-1.49q-6.78-6.75-13.54-13.54c-.8-.8-1.17-.69-1.52.38-2.28,6.91-4.61,13.82-6.93,20.72C129.94,149.68,129.69,150.22,130.61,150.23Z"/><path class="cls-1" d="M240.37,225.72q0-24.43,0-48.86c0-4.08.89-5,4.94-5q9.24,0,18.49,0c3.73,0,4.76,1,4.76,4.74v98.64c0,3.81-1.1,4.93-4.85,4.93q-9.36,0-18.72,0c-3.48,0-4.62-1.15-4.62-4.69Q240.37,250.6,240.37,225.72Zm6.47.23c0,15.15,0,30.29,0,45.44,0,1.82.49,2.32,2.27,2.25,3.65-.13,7.31-.12,11,0,1.61.06,2-.41,2-2-.09-7.23,0-14.47,0-21.7,0-22.91,0-45.82.05-68.72,0-2.17-.31-3.12-2.79-2.93a84.07,84.07,0,0,1-10,0c-1.91-.09-2.42.52-2.41,2.42C246.87,195.81,246.84,210.88,246.84,226Z"/><path class="cls-1" d="M162.58,238.52q0-18.51,0-37c0-3.72,1-4.73,4.72-4.73q9.36,0,18.73,0c3.54,0,4.6,1.08,4.6,4.64q0,37,0,74c0,3.7-1.05,4.74-4.75,4.74q-9.36,0-18.73,0c-3.53,0-4.58-1.07-4.58-4.65Q162.58,257,162.58,238.52Zm21.6.11c0-11,0-22.08,0-33.11,0-1.82-.51-2.36-2.32-2.29-3.58.14-7.16.1-10.73,0-1.51,0-2.15.28-2.14,2q.08,33.33,0,66.67c0,1.49.51,1.77,1.84,1.74,3.72-.07,7.46-.11,11.18,0,1.69.05,2.19-.39,2.18-2.14C184.14,260.55,184.18,249.59,184.18,238.63Z"/><path class="cls-1" d="M201.45,247.3V219.45c0-3.78,1-4.78,4.68-4.79h18.71c3.58,0,4.73,1.08,4.74,4.57q0,28.19,0,56.38c0,3.38-1.19,4.56-4.51,4.57q-9.58,0-19.18,0c-3.37,0-4.43-1.12-4.44-4.58Q201.44,261.46,201.45,247.3Zm6.49.11c0,8.14,0,16.28,0,24.42,0,1.36.28,1.85,1.74,1.81,3.88-.11,7.76-.09,11.64,0,1.36,0,1.82-.33,1.81-1.78q-.07-24.41,0-48.83c0-1.42-.4-1.84-1.79-1.81-3.8.09-7.61.12-11.41,0-1.62,0-2,.44-2,2C208,231.29,207.94,239.35,207.94,247.41Z"/><path class="cls-1" d="M53.51,119.09a14.44,14.44,0,0,1,14.22,11.48,14.16,14.16,0,0,1-8.94,16.11c-1.64.59-2,1.41-2,3,.1,4.55-.33,9.17,1.66,13.47,3.56,7.71,9.84,11.27,18.12,11.66,14.44.68,24.79,11.45,24.89,26,0,5.71.05,11.42,0,17.12a2,2,0,0,0,1.6,2.24c6.37,2.22,10.07,8.3,9.41,15.25a14.56,14.56,0,0,1-12.1,12.53A14.39,14.39,0,0,1,89.6,222.15a8.07,8.07,0,0,1,2.78-1.55c2.33-.52,2.78-1.87,2.67-4.08-.28-6.23.37-12.49-.34-18.71a18.84,18.84,0,0,0-16.3-16.33c-3-.4-6.07-.29-9-1.11a25.72,25.72,0,0,1-19-23.61c-.13-2.58-.09-5.18,0-7.76a1.84,1.84,0,0,0-1.52-2.09,14.3,14.3,0,0,1,4.65-27.82ZM98.28,241.52a7.82,7.82,0,0,0,7.78-8.07,7.87,7.87,0,0,0-15.73.14A7.84,7.84,0,0,0,98.28,241.52ZM53.6,125.59a7.68,7.68,0,0,0-7.81,7.8,7.91,7.91,0,0,0,8,7.88,8,8,0,0,0,7.74-8A7.79,7.79,0,0,0,53.6,125.59Z"/><path class="cls-1" d="M67.91,211.3a4.46,4.46,0,0,1-1.56,3.16c-2.24,2.18-4.39,4.44-6.69,6.54-1.16,1.06-1.29,1.73-.08,2.85,2.29,2.12,4.43,4.39,6.63,6.61,2,2,2.27,4,.81,5.35-1.64,1.56-3.31,1.35-5.35-.69s-4.34-4.27-6.41-6.5c-1.13-1.22-1.9-1.5-3.17-.06-2.11,2.39-4.44,4.59-6.73,6.82-1.8,1.77-3.56,1.91-5,.52s-1.33-3.3.5-5.17c2.13-2.17,4.18-4.45,6.47-6.43,1.69-1.46,1.38-2.38-.07-3.7-2.2-2-4.25-4.14-6.35-6.24-1.82-1.84-2-3.77-.65-5.2s3.27-1.32,5.19.55c2.34,2.28,4.7,4.55,7,6.92,1,1,1.56,1,2.54,0,2.42-2.53,4.93-5,7.46-7.38a3,3,0,0,1,3.73-.7A3.23,3.23,0,0,1,67.91,211.3Z"/><path class="cls-1" d="M84,155.73a4,4,0,0,1,1.53-3c2.31-2.32,4.59-4.68,7-6.94.93-.89,1-1.48,0-2.38-2.42-2.32-4.76-4.71-7.1-7.11-1.81-1.86-2-3.79-.51-5.2s3.12-1.3,5,.54c2.46,2.38,4.89,4.81,7.25,7.28.84.89,1.36.85,2.18,0,2.31-2.43,4.69-4.79,7.08-7.13,2.08-2,3.87-2.16,5.36-.54,1.32,1.43,1,3.29-.84,5.19-2.3,2.33-4.58,4.68-6.94,7-.94.9-.93,1.51,0,2.4,2.47,2.38,4.87,4.82,7.27,7.26,1.57,1.59,1.75,3.52.52,4.86s-3.08,1.45-4.84-.18c-2.35-2.17-4.66-4.39-6.83-6.73-1.33-1.44-2.23-1.74-3.69-.08-2.11,2.39-4.47,4.56-6.78,6.77a3.16,3.16,0,0,1-3.75.83A2.82,2.82,0,0,1,84,155.73Z"/></svg>