<svg id="_23" data-name="23" xmlns="http://www.w3.org/2000/svg" viewBox="0 0 194.09 191.85"><g opacity="0.4"><path d="M5.73,22.77,21.17,7.33A44.65,44.65,0,0,0,3,4.1S2.46,14.24,5.47,21.85Z" transform="translate(-2.96 -4.07)" fill="#f2f2f2"/><path d="M51.65,62.73l9.88-9.88s9.17,4.86,10.65,10.88c0,0-2.36.06-5.84-3.66,0,0,6.25,5.9,7.55,12.33,0,0-3.07,1.36-9.85-3,0,0,2.3,2.3,2.3,3.78,0,0-5.84-.77-8.61-5.08,0,0,1.12,3.19.65,3.19C58.38,71.28,52.54,67.62,51.65,62.73Z" transform="translate(-2.96 -4.07)" fill="#f2f2f2"/><path d="M63.68,33.65l-11.85-.27S41.09,15,23.28,8.58L6.53,26S13.25,44,31.89,53.29l.47,13.45,14,9.2s4.84.59,4.84-5L45.93,59.42l3,2.36L60,51l-1.65-3.73L68.7,52.94s5.54.64,5.54-4.61ZM27,36.83a8.2,8.2,0,1,1,8.2-8.2A8.2,8.2,0,0,1,27,36.83Z" transform="translate(-2.96 -4.07)" fill="#f2f2f2"/></g><g opacity="0.4"><path d="M59.17,142.74,74.61,127.3a44.65,44.65,0,0,0-18.18-3.23s-.53,10.14,2.48,17.75Z" transform="translate(-2.96 -4.07)" fill="#f2f2f2"/><path d="M105.09,182.7l9.88-9.88s9.17,4.86,10.65,10.88c0,0-2.36.06-5.84-3.66,0,0,6.25,5.9,7.55,12.33,0,0-3.07,1.36-9.85-3,0,0,2.3,2.3,2.3,3.78,0,0-5.84-.77-8.61-5.08,0,0,1.12,3.19.64,3.19C111.81,191.25,106,187.59,105.09,182.7Z" transform="translate(-2.96 -4.07)" fill="#f2f2f2"/><path d="M117.12,153.62l-11.85-.27s-10.74-18.43-28.55-24.8L60,146s6.72,17.93,25.36,27.25l.47,13.45,14,9.2s4.84.59,4.84-5l-5.31-11.56,2.95,2.36L113.41,171l-1.65-3.73,10.38,5.67s5.54.64,5.54-4.6ZM80.41,156.8a8.2,8.2,0,1,1,8.19-8.2A8.2,8.2,0,0,1,80.41,156.8Z" transform="translate(-2.96 -4.07)" fill="#f2f2f2"/></g><g opacity="0.4"><path d="M128.54,55.53,144,40.09a44.6,44.6,0,0,0-18.18-3.23s-.53,10.14,2.48,17.75Z" transform="translate(-2.96 -4.07)" fill="#f2f2f2"/><path d="M174.45,95.49l9.88-9.88s9.18,4.86,10.65,10.88c0,0-2.36.06-5.84-3.66,0,0,6.25,5.9,7.55,12.33,0,0-3.07,1.36-9.85-3,0,0,2.3,2.3,2.3,3.78,0,0-5.84-.77-8.61-5.08,0,0,1.12,3.19.65,3.19C181.18,104,175.34,100.38,174.45,95.49Z" transform="translate(-2.96 -4.07)" fill="#f2f2f2"/><path d="M186.49,66.41l-11.86-.27s-10.73-18.43-28.55-24.8L129.33,58.8s6.73,17.93,25.37,27.25l.47,13.45,14,9.2s4.84.59,4.84-5l-5.31-11.56,3,2.36,11.09-10.78L181.12,80,191.5,85.7s5.54.64,5.54-4.61Zm-36.72,3.18a8.2,8.2,0,1,1,8.2-8.2A8.2,8.2,0,0,1,149.77,69.59Z" transform="translate(-2.96 -4.07)" fill="#f2f2f2"/></g></svg>