<svg id="Capa_1" data-name="Capa 1" xmlns="http://www.w3.org/2000/svg" viewBox="0 0 268.57 291.87"><defs><style>.cls-1{fill:#fff;}</style></defs><title>ANALISIS Y BENCHMARKING</title><path class="cls-1" d="M145.84,264.48H32.21c-5.73,0-7.44-1.69-7.44-7.34,0-2.95,0-5.91,0-8.86,0-3.68,2.26-5.88,5.95-6h.44c2.11-.15,5,.94,6.13-.44s.34-4.1.34-6.23q0-15.74,0-31.45c0-3.52.94-4.44,4.49-4.44h37c3.31,0,4.3,1,4.3,4.39,0,12,0,24.07,0,36.11,0,1.59.29,2.22,2,2.1a53.89,53.89,0,0,1,7.3,0c1.78.13,2-.56,2-2.12-.06-12.84,0-25.69,0-38.54q0-14.17,0-28.35c0-3.6,1-4.59,4.61-4.59h36.77c3.41,0,4.47,1.06,4.48,4.47,0,22.23,0,44.45-.06,66.67,0,2.12.64,2.58,2.57,2.46,2.42-.16,4.87-.08,7.3,0,1,0,1.54-.22,1.4-1.34a11.3,11.3,0,0,1,0-1.54V137.75c0-4,.93-4.9,5-4.9h36.33c3.51,0,4.59,1.07,4.59,4.64q0,51.16-.05,102.33c0,2,.5,2.67,2.52,2.5a40.29,40.29,0,0,1,6.86,0c2,.18,1.88-.86,1.88-2.22q0-38.64,0-77.3V91.93c0-3.71,1-4.7,4.7-4.71h36.33c3.94,0,4.86.94,4.86,5V239.32c0,3,0,3,2.86,3,1.4,0,2.81,0,4.21,0a5.67,5.67,0,0,1,5.79,5.75q.14,5.43,0,10.85c-.09,3.3-2.34,5.43-5.67,5.58-.74,0-1.48,0-2.22,0Zm102.59-96.26q0-36.09,0-72.2c0-1.92-.41-2.51-2.41-2.49q-14.28.16-28.57,0c-1.82,0-2.33.43-2.33,2.29q.09,72.21,0,144.41c0,1.61.32,2.1,2,2.09q14.51-.15,29,0c1.9,0,2.26-.56,2.25-2.34Q248.38,204.11,248.43,168.22Zm-57.07,22.6c0-16.4,0-32.79,0-49.18,0-1.88-.39-2.55-2.42-2.52-9.52.11-19,.09-28.57,0-1.83,0-2.34.48-2.34,2.33q.09,49.4,0,98.78c0,1.63.35,2.11,2,2.09q14.5-.13,29,0c1.88,0,2.28-.54,2.27-2.34C191.33,223.6,191.36,207.21,191.36,190.82Zm-45.25,67.46H254.38c2.21,0,5.16.75,6.42-.37,1.45-1.28.22-4.32.51-6.56s-.5-2.77-2.75-2.77q-112.26.09-224.51.05a11.44,11.44,0,0,1-1.55,0c-1.23-.15-1.5.44-1.46,1.55a40.86,40.86,0,0,1,0,5.75c-.18,2,.43,2.42,2.39,2.42Q89.77,258.23,146.11,258.28ZM101,208.78c0,10.55,0,21.1,0,31.65,0,1.39.3,1.89,1.8,1.88q14.82-.09,29.65,0c1.45,0,1.85-.36,1.85-1.83q-.07-31.75,0-63.51c0-1.61-.53-1.94-2-1.94q-14.61.09-29.21,0c-1.68,0-2.1.46-2.09,2.11C101.06,187.69,101,198.24,101,208.78ZM77.14,224.27c0-5.38,0-10.76,0-16.14,0-1.59-.3-2.17-2-2.15-9.73.09-19.46.07-29.2,0-1.5,0-2,.38-2,2q.09,16.26,0,32.51c0,1.47.42,1.85,1.86,1.84q14.82-.09,29.63,0c1.55,0,1.79-.55,1.77-1.9C77.11,235,77.14,229.66,77.14,224.27Z"/><path class="cls-1" d="M182.17,54.14c-21.85,0-43.7.06-65.55-.06a8.87,8.87,0,0,0-7,2.78c-2,2-2.67,3.49-1.57,6.49,9.05,24.83.52,51-21.16,65.67a53.66,53.66,0,0,1-19,8c-1.36.28-1.79.8-1.78,2.18.06,7.16,0,14.32,0,21.48a2.85,2.85,0,0,0,1,2.5,6.11,6.11,0,0,1,2.2,5.1c0,6.35.07,12.69,0,19,0,4.17-2.49,6.57-6.66,6.65s-8.42.08-12.62,0-6.75-2.56-6.8-6.8c-.06-6.35,0-12.7,0-19.05a6.12,6.12,0,0,1,2.17-4.9,3,3,0,0,0,1.11-2.69c0-7.09-.06-14.17,0-21.26,0-1.5-.5-2-1.93-2.26-21.33-4.2-39.19-22.57-42.73-44C-1.82,70.83,5.25,52.51,22.93,38.74c13.36-10.4,28.83-13.51,45.39-9.92C82.82,32,94.1,40.09,102.41,52.32c1.09,1.6,1.8,1.59,2.83.16,2.75-3.82,6.39-4.77,11.08-4.75,44.44.19,88.88.11,133.32.11a16.31,16.31,0,0,1,2.21,0,3,3,0,0,1,2.78,3.18A2.79,2.79,0,0,1,251.91,54c-.88.07-1.76.13-2.64.13ZM56.42,33.64C28.53,33.72,7.89,56.23,7.16,80.86A49.14,49.14,0,0,0,55.86,132c27.12.15,49.62-22,49.56-48.51C105.37,55.83,83.54,33.64,56.42,33.64Zm-6.83,144c0,2.8.08,5.61,0,8.4-.05,1.41.45,1.74,1.77,1.7,3.32-.09,6.64-.08,10,0,1.31,0,1.83-.32,1.81-1.73-.07-5.52-.05-11,0-16.57,0-1.2-.3-1.72-1.61-1.69-3.46.07-6.92.06-10.38,0-1.16,0-1.55.34-1.52,1.5C49.64,172,49.59,174.84,49.59,177.64Zm3.18-27.72v6.62c0,5.22,0,5.17,5.21,5.12,1.46,0,1.91-.46,1.89-1.9-.07-5.3,0-10.6,0-15.89,0-1.82.8-4.13-.39-5.32s-3.36,0-5.08-.33c-1.34-.23-1.62.32-1.6,1.54C52.81,143.15,52.77,146.53,52.77,149.92Z"/><path class="cls-1" d="M56.15,125.58c-22.34.3-43-18.27-42.68-44.18.31-21.94,19.77-41.13,42-41.36a43.1,43.1,0,0,1,43.6,43.15C99,106.5,79.72,125.58,56.15,125.58ZM91.81,75l-28,28c-2.82,2.81-4.64,2.59-6.61-.81-2.73-4.72-5.46-9.44-8.11-14.2a2.6,2.6,0,0,0-2.64-1.51c-4,.08-8,.07-11.95,0-2.4,0-3.76-1.23-3.77-3.12s1.42-3.14,3.75-3.15c4.87,0,9.75,0,14.62,0a4.34,4.34,0,0,1,4.25,2.54c2.22,4.07,4.63,8,6.87,12.12.74,1.35,1.21,1.65,2.45.4Q75.38,82.26,88.28,69.49a2.31,2.31,0,0,0,.49-3.21A36.47,36.47,0,0,0,21.52,93.9c4.94,15.31,19.42,25.75,35.17,25.35,16.88-.41,30.69-11.25,34.89-27.41A34.08,34.08,0,0,0,91.81,75Z"/></svg>